{"glyphs":{"0":{"ha":732,"x_min":61,"x_max":700,"o":"m 378 768 q 622 666 543 768 q 700 383 700 564 q 622 92 700 201 q 376 -18 543 -18 q 135 80 210 -18 q 61 374 61 178 q 378 768 61 768 m 211 165 q 220 140 211 165 q 271 91 229 115 q 372 67 313 67 q 468 85 431 67 q 526 128 506 103 q 556 197 546 153 q 572 375 572 267 q 378 682 572 682 q 287 663 325 682 q 229 615 249 643 q 199 544 210 588 q 182 394 182 478 q 188 263 182 311 q 211 165 193 215 z "},"1":{"ha":500,"x_min":35,"x_max":458,"o":"m 350 707 q 333 94 350 707 l 458 83 q 435 0 458 44 l 69 0 l 67 47 q 232 82 114 61 q 225 356 229 174 q 218 631 221 539 q 61 575 106 579 q 35 661 38 614 l 306 753 q 350 707 347 722 z "},"2":{"ha":629,"x_min":63,"x_max":569,"o":"m 476 214 q 500 215 486 215 q 549 208 525 215 q 565 0 565 125 l 79 0 q 63 52 63 29 q 64 81 63 75 q 374 378 351 354 q 419 451 396 403 q 442 549 442 500 q 403 640 442 599 q 288 682 365 682 q 214 674 244 682 l 181 503 q 150 501 167 501 q 100 507 133 501 q 76 672 78 567 q 176 735 111 706 q 299 765 240 765 q 495 703 421 765 q 569 568 569 642 q 530 404 569 474 q 399 257 490 335 l 213 99 l 217 82 l 460 83 q 476 214 467 178 z "},"3":{"ha":658,"x_min":40,"x_max":597,"o":"m 432 538 q 263 686 432 686 q 199 676 235 686 l 165 504 q 85 508 111 504 q 61 674 61 578 q 158 737 90 707 q 275 767 225 767 q 478 705 399 767 q 558 557 558 643 q 381 331 558 407 q 531 278 465 331 q 597 126 597 225 q 539 -47 597 28 q 403 -155 481 -121 q 234 -189 326 -189 q 40 -154 142 -189 q 57 -81 43 -101 q 83 -86 61 -81 q 122 -94 106 -92 q 204 -103 169 -103 q 253 -101 239 -103 q 299 -94 268 -100 q 358 -75 331 -89 q 411 -42 385 -61 q 469 91 469 4 q 416 221 469 178 q 271 264 363 264 q 189 258 249 264 q 183 291 183 265 q 188 340 183 317 l 249 349 q 378 410 324 358 q 432 538 432 463 z "},"4":{"ha":739,"x_min":21,"x_max":713,"o":"m 457 138 l 443 640 l 139 135 q 457 138 350 138 m 575 750 l 561 138 q 713 135 613 138 q 699 50 713 76 l 560 50 l 550 -182 q 508 -186 529 -186 q 469 -181 488 -186 l 458 50 l 38 50 q 21 99 21 74 q 22 126 21 125 l 392 750 l 575 750 z "},"5":{"ha":626,"x_min":40,"x_max":597,"o":"m 294 404 q 515 327 432 404 q 597 116 597 250 q 490 -103 597 -18 q 251 -189 383 -189 q 40 -154 118 -189 q 58 -81 40 -97 q 228 -103 119 -103 q 406 -53 343 -103 q 451 12 432 -31 q 471 111 471 54 q 424 263 471 208 q 289 318 376 318 q 180 308 222 318 q 133 297 138 297 q 88 338 104 314 l 72 750 l 544 750 q 528 542 544 629 q 456 536 504 536 q 439 667 447 569 l 197 667 l 193 390 q 294 404 235 404 z "},"6":{"ha":776,"x_min":71,"x_max":725,"o":"m 204 443 q 203 392 203 432 q 211 300 203 351 q 240 192 219 249 q 306 101 261 136 q 411 67 350 67 q 553 132 508 67 q 597 304 597 197 q 560 466 597 411 q 419 521 524 521 q 204 443 315 521 m 426 607 q 645 528 565 607 q 725 295 725 450 q 637 61 725 140 q 407 -18 549 -18 q 175 89 269 -18 q 99 242 126 143 q 71 461 71 342 q 101 669 71 581 q 183 819 132 758 q 300 922 233 879 q 576 1006 426 1006 q 593 932 593 989 q 310 815 407 918 q 199 518 214 711 q 308 581 238 554 q 426 607 379 607 z "},"7":{"ha":644,"x_min":31,"x_max":582,"o":"m 31 686 q 35 751 31 719 l 554 750 q 582 675 582 722 q 411 170 492 399 q 283 -193 331 -58 q 208 -167 231 -186 l 457 667 l 171 667 l 136 497 q 56 503 82 497 q 31 686 31 583 z "},"8":{"ha":733,"x_min":63,"x_max":675,"o":"m 675 269 q 600 65 675 147 q 372 -17 525 -17 q 169 42 263 -17 q 92 128 122 71 q 63 261 63 185 q 249 550 63 424 l 244 553 q 121 647 157 594 q 85 805 85 699 q 162 976 85 911 q 374 1042 239 1042 q 585 974 510 1042 q 661 802 661 907 q 615 640 661 697 q 479 531 569 582 q 675 269 675 413 m 501 89 q 547 261 547 178 q 498 397 547 344 q 322 514 449 449 q 224 408 257 465 q 190 276 190 351 q 208 160 190 201 q 256 100 226 119 q 363 64 311 64 q 489 83 451 64 l 501 89 m 533 807 q 372 957 533 957 q 247 935 300 957 q 213 806 213 872 q 363 590 213 656 q 408 568 371 588 q 533 807 533 646 z "},"9":{"ha":726,"x_min":46,"x_max":665,"o":"m 361 688 q 172 450 172 688 q 226 299 172 351 q 372 247 281 247 q 453 271 399 247 q 533 311 508 294 q 542 413 542 358 q 533 510 542 468 q 507 595 525 553 q 451 663 489 638 q 361 688 414 688 m 347 165 q 128 250 210 165 q 46 465 46 335 q 128 682 46 596 q 360 768 211 768 q 588 671 510 768 q 665 400 665 574 q 546 -19 665 144 q 386 -147 486 -101 q 153 -192 286 -192 q 143 -151 143 -179 l 144 -131 q 408 -31 325 -117 q 519 228 492 56 q 435 183 486 200 q 347 165 385 165 z "},"":{"ha":0,"x_min":0,"x_max":0,"o":""}," ":{"ha":361,"x_min":0,"x_max":0,"o":""},"!":{"ha":404,"x_min":126,"x_max":275,"o":"m 129 3 q 126 60 126 19 q 135 136 126 100 q 208 139 174 139 q 272 132 242 139 q 275 73 275 113 q 267 -6 275 33 q 194 -10 233 -10 q 129 3 156 -10 m 240 218 q 208 217 232 217 q 165 219 185 217 l 132 1000 q 201 1003 174 1003 q 260 996 229 1003 l 240 218 z "},"\"":{"ha":564,"x_min":104,"x_max":493,"o":"m 250 933 q 217 711 250 778 q 176 706 200 706 l 161 707 q 164 763 164 725 q 104 1017 164 881 q 169 1024 135 1024 q 242 1021 203 1024 q 250 933 250 982 m 493 933 q 460 711 493 778 q 419 706 443 706 l 404 707 q 407 763 407 725 q 347 1017 407 881 q 412 1024 378 1024 q 485 1021 446 1024 q 493 933 493 982 z "},"#":{"ha":926,"x_min":36,"x_max":876,"o":"m 874 722 q 876 677 876 701 q 874 640 876 653 q 738 633 801 633 l 679 633 l 646 363 l 835 361 q 838 316 838 340 q 835 279 838 292 q 699 272 763 272 l 635 272 l 601 0 q 569 -3 592 -3 l 526 0 l 550 272 q 315 275 408 275 l 282 0 q 250 -3 272 -3 l 207 0 l 231 276 l 39 279 q 36 317 36 292 l 39 361 q 175 368 111 368 l 239 368 l 263 638 l 78 640 q 75 678 75 653 l 78 722 q 214 729 150 729 l 269 729 l 292 971 q 358 975 329 975 q 403 974 388 975 l 372 728 q 589 725 444 728 l 611 971 q 669 975 632 975 q 722 974 707 975 l 690 724 l 874 722 m 582 635 l 361 636 l 326 367 l 558 364 l 582 635 z "},"$":{"ha":699,"x_min":83,"x_max":622,"o":"m 210 96 q 343 67 276 67 q 453 98 410 67 q 497 178 497 129 q 458 259 497 226 q 361 317 418 292 q 247 370 304 342 q 151 444 190 399 q 111 550 111 490 q 166 699 111 643 q 313 765 221 756 l 313 940 q 360 944 325 944 q 404 942 396 944 l 397 765 q 589 714 507 756 q 590 634 590 699 q 578 525 590 569 q 493 513 549 513 l 444 668 q 356 683 411 683 q 267 653 301 683 q 233 579 233 622 q 274 503 233 536 q 371 444 314 469 q 485 390 428 418 q 582 314 542 361 q 622 207 622 267 q 558 53 622 111 q 390 -15 493 -4 l 390 -176 q 360 -179 382 -179 q 325 -176 339 -179 l 319 -17 q 83 58 179 -10 q 101 236 83 151 q 193 240 126 240 l 210 96 z "},"%":{"ha":1183,"x_min":56,"x_max":1107,"o":"m 56 764 q 115 966 56 892 q 291 1040 174 1040 q 469 968 408 1040 q 531 772 531 896 q 469 569 531 647 q 292 490 408 490 q 56 764 56 490 m 972 961 l 247 -17 q 194 24 231 -10 l 882 1022 q 972 961 931 1003 m 231 575 q 243 568 231 575 q 292 561 256 561 q 353 575 328 561 q 390 606 378 589 q 408 656 403 624 q 417 747 417 696 q 416 816 417 797 q 408 868 415 835 q 390 920 401 901 q 353 954 378 939 q 292 969 328 969 q 231 957 256 969 q 193 928 206 944 q 174 881 181 913 q 165 789 165 844 q 166 713 165 733 q 174 658 167 692 q 193 606 181 624 q 231 575 206 589 m 632 256 q 691 458 632 383 q 867 532 750 532 q 1046 460 985 532 q 1107 263 1107 388 q 1046 60 1107 139 q 868 -18 985 -18 q 632 256 632 -18 m 807 67 q 819 60 807 67 q 868 53 832 53 q 929 67 904 53 q 967 98 954 81 q 986 147 979 115 q 993 238 993 188 q 992 308 993 289 q 985 360 992 326 q 966 412 978 393 q 929 446 954 431 q 868 461 904 461 q 807 449 832 461 q 769 420 782 436 q 750 372 757 404 q 742 281 742 336 q 742 204 742 225 q 750 149 743 183 q 769 98 757 115 q 807 67 782 81 z "},"&":{"ha":1011,"x_min":56,"x_max":983,"o":"m 332 478 q 227 394 268 449 q 186 280 186 339 q 211 178 186 221 q 274 114 236 135 q 413 72 344 72 q 651 186 556 72 l 332 478 m 407 -17 q 151 58 247 -17 q 56 275 56 133 q 115 440 56 369 q 251 546 174 511 q 177 651 200 603 q 154 768 154 700 q 227 926 154 864 q 426 989 300 989 q 558 960 494 989 q 657 896 621 931 l 633 758 q 594 753 618 753 l 568 754 l 533 897 q 426 908 493 908 q 326 867 360 908 q 293 783 293 825 q 310 706 293 742 q 347 648 328 669 q 411 581 365 626 q 703 263 454 536 q 756 543 756 356 q 753 608 756 583 l 636 619 q 660 703 636 658 l 979 703 l 983 654 q 856 621 919 632 q 828 410 854 540 q 760 213 803 279 l 939 15 q 883 -25 917 -25 l 703 131 q 563 28 651 72 q 407 -17 475 -17 z "},"'":{"ha":285,"x_min":69,"x_max":215,"o":"m 215 933 q 182 711 215 778 q 142 706 165 706 l 126 707 q 129 763 129 725 q 69 1017 129 881 q 134 1024 100 1024 q 207 1021 168 1024 q 215 933 215 982 z "},"(":{"ha":453,"x_min":97,"x_max":432,"o":"m 319 769 q 303 725 319 769 q 256 558 286 682 q 225 340 225 433 q 256 122 225 247 q 319 -91 286 -4 q 432 -364 353 -178 q 364 -401 392 -394 q 184 -62 271 -282 q 97 340 97 158 q 184 741 97 521 q 364 1081 271 961 q 432 1043 392 1074 q 319 769 353 856 z "},")":{"ha":453,"x_min":21,"x_max":356,"o":"m 133 -91 q 150 -48 133 -91 q 197 122 167 -4 q 228 340 228 247 q 197 558 228 433 q 133 769 167 682 q 21 1043 100 856 q 89 1081 61 1074 q 269 741 182 961 q 356 340 356 521 q 269 -62 356 158 q 89 -401 182 -282 q 21 -364 61 -394 q 133 -91 100 -178 z "},"*":{"ha":597,"x_min":49,"x_max":535,"o":"m 290 1014 q 349 1022 322 1022 q 392 1018 375 1022 q 404 985 399 1014 q 322 824 385 933 q 481 906 461 900 q 535 819 524 861 q 513 793 535 810 q 331 782 435 782 q 482 686 464 704 q 435 596 465 626 q 429 594 432 594 l 400 603 q 301 751 371 639 q 293 575 299 604 q 235 567 261 567 q 192 571 208 567 q 179 604 185 575 q 258 763 196 647 q 103 683 129 690 q 49 769 60 728 q 71 796 49 779 q 249 806 126 806 q 101 903 121 883 q 149 993 118 963 q 154 994 151 994 l 183 986 q 281 836 217 946 q 290 1014 283 986 z "},"+":{"ha":731,"x_min":35,"x_max":694,"o":"m 207 413 l 308 411 l 315 706 q 354 710 335 710 l 400 706 q 417 543 417 617 q 415 408 417 469 l 692 403 q 694 363 694 389 l 692 321 q 534 304 603 304 q 413 306 465 304 l 407 0 q 367 -3 393 -3 l 322 0 q 306 165 306 89 q 307 307 306 240 l 39 314 q 35 351 35 333 l 39 396 q 207 413 128 413 z "},",":{"ha":292,"x_min":35,"x_max":215,"o":"m 207 142 q 215 42 215 103 q 167 -90 215 -19 q 79 -186 119 -161 q 35 -154 56 -176 q 122 -25 50 -108 q 142 -3 139 -6 q 75 0 93 -3 q 67 73 67 28 q 69 138 67 118 q 134 144 100 144 q 207 142 168 144 z "},"-":{"ha":454,"x_min":64,"x_max":392,"o":"m 389 392 q 392 354 392 369 l 389 306 q 253 299 317 299 l 67 306 q 64 342 64 315 l 67 392 q 203 399 139 399 l 389 392 z "},".":{"ha":289,"x_min":71,"x_max":219,"o":"m 217 4 q 147 -4 181 -4 q 79 0 113 -4 q 71 78 71 39 q 74 138 71 118 q 138 144 104 144 q 211 142 172 144 q 219 72 219 106 q 217 4 219 38 z "},"/":{"ha":565,"x_min":42,"x_max":524,"o":"m 403 972 q 460 976 440 976 q 524 969 479 976 l 143 0 q 89 -6 114 -6 q 42 -3 64 -6 l 403 972 z "},":":{"ha":331,"x_min":92,"x_max":240,"o":"m 238 475 q 167 467 201 467 q 100 471 133 467 q 92 549 92 510 q 94 608 92 589 q 159 615 125 615 q 232 613 193 615 q 240 542 240 576 q 238 475 240 508 m 238 3 q 167 -6 201 -6 q 100 -1 133 -6 q 92 77 92 38 q 94 136 92 117 q 159 143 125 143 q 232 140 193 143 q 240 63 240 104 q 238 3 240 21 z "},";":{"ha":326,"x_min":56,"x_max":236,"o":"m 232 475 q 162 467 196 467 q 94 471 128 467 q 86 549 86 510 q 89 608 86 589 q 153 615 119 615 q 226 613 188 615 q 235 535 235 576 q 232 475 235 493 m 228 140 q 236 40 236 101 q 188 -92 236 -21 q 100 -187 140 -162 q 56 -156 76 -178 q 142 -28 71 -110 q 163 -4 160 -7 q 96 -1 114 -4 q 88 72 88 26 q 90 136 88 117 q 155 143 121 143 q 228 140 189 143 z "},"<":{"ha":613,"x_min":64,"x_max":536,"o":"m 68 321 q 64 359 64 338 q 68 389 64 381 q 201 517 82 403 q 346 656 319 631 q 481 757 394 699 l 536 696 q 234 406 272 440 q 179 358 196 371 q 226 319 224 322 l 536 22 l 481 -39 q 362 49 406 11 q 199 199 318 88 q 68 321 79 310 z "},"=":{"ha":828,"x_min":97,"x_max":729,"o":"m 726 282 q 729 242 729 268 l 726 200 q 560 183 638 183 l 101 193 q 97 231 97 211 l 101 275 q 269 292 190 292 l 726 282 m 726 525 q 729 485 729 511 l 726 443 q 560 426 638 426 l 101 436 q 97 474 97 456 l 101 518 q 269 535 190 535 l 726 525 z "},">":{"ha":647,"x_min":97,"x_max":569,"o":"m 565 389 q 569 359 569 381 q 565 321 569 338 q 435 199 554 310 q 288 64 315 88 q 153 -39 226 11 l 97 22 q 385 300 361 278 q 454 358 410 322 q 407 399 438 371 l 97 696 l 153 757 q 272 669 229 708 q 433 517 314 631 q 565 389 551 403 z "},"?":{"ha":669,"x_min":97,"x_max":586,"o":"m 369 567 q 388 591 369 567 q 438 676 407 614 q 468 799 468 739 q 429 897 468 860 q 333 935 390 935 q 235 918 276 935 l 203 775 l 122 778 q 97 932 103 832 q 347 1015 204 1015 q 586 782 586 1015 q 554 661 586 724 q 483 553 522 599 q 349 331 369 419 q 343 226 343 310 q 283 222 318 222 q 251 338 263 271 q 296 458 260 394 q 369 567 332 521 m 386 3 q 316 -6 350 -6 q 249 -1 282 -6 q 240 77 240 38 q 243 136 240 117 q 306 143 274 143 q 381 140 339 143 q 389 63 389 104 q 386 3 389 21 z "},"@":{"ha":1271,"x_min":97,"x_max":1188,"o":"m 860 443 l 854 124 q 949 104 906 121 q 1002 139 974 114 q 1051 195 1031 164 q 1089 284 1072 226 q 1106 413 1106 342 q 984 726 1106 610 q 650 843 863 843 q 176 365 176 843 q 307 -12 176 121 q 649 -144 438 -144 q 967 -67 833 -144 q 992 -133 992 -106 q 650 -222 860 -222 q 244 -67 392 -222 q 97 363 97 88 q 650 924 97 924 q 1046 786 904 924 q 1188 415 1188 649 q 786 25 1188 25 q 763 115 765 68 q 672 58 736 93 q 567 24 608 24 q 432 66 485 24 q 379 200 379 108 q 514 389 379 363 q 749 403 589 403 l 747 443 q 714 566 744 529 q 610 603 683 603 q 540 588 581 603 l 511 464 q 440 468 465 464 q 419 614 421 521 q 526 651 443 626 q 633 676 610 676 q 806 622 753 676 q 860 443 860 568 m 593 108 q 653 129 617 108 q 758 199 708 163 l 751 340 q 568 317 585 321 q 488 211 488 297 q 593 108 488 108 z "},"A":{"ha":1026,"x_min":7,"x_max":1019,"o":"m 224 943 q 360 962 249 951 q 562 972 471 972 q 703 964 653 972 q 704 951 704 958 q 697 915 704 943 q 685 879 689 888 q 622 863 674 868 l 888 94 l 1019 83 q 996 0 1019 44 l 676 0 l 672 49 q 765 78 704 65 l 694 276 l 307 276 l 242 94 l 354 83 q 331 0 354 44 l 11 0 l 7 49 q 122 79 61 68 l 392 867 q 218 900 268 881 l 224 943 m 585 586 l 511 858 q 488 860 503 860 l 413 576 l 332 365 l 669 365 l 585 586 z "},"B":{"ha":875,"x_min":42,"x_max":806,"o":"m 601 507 q 744 432 682 497 q 806 249 806 367 q 713 66 806 132 q 443 0 621 0 l 63 0 l 58 49 q 178 82 117 72 q 164 886 169 618 q 42 919 117 894 q 49 972 46 971 l 397 972 q 650 940 583 972 q 714 900 682 925 q 778 735 778 850 q 758 630 778 676 q 706 558 738 583 q 601 507 647 513 m 450 447 l 296 447 q 290 94 293 328 l 438 94 q 668 267 668 94 q 615 407 668 367 q 450 447 561 447 m 383 875 l 300 874 q 297 542 297 746 l 433 542 q 597 588 556 542 q 638 736 638 635 q 383 875 638 875 z "},"C":{"ha":821,"x_min":28,"x_max":757,"o":"m 436 -18 q 28 494 28 -18 q 127 864 28 738 q 444 990 226 990 q 756 893 619 990 q 736 696 756 815 q 656 692 717 692 l 614 864 q 456 882 515 882 q 263 851 346 882 l 236 842 q 215 801 228 828 q 183 688 203 774 q 163 511 163 601 q 227 200 163 315 q 433 85 292 85 q 586 106 535 85 q 626 126 600 113 l 656 293 l 736 289 q 757 57 757 146 q 631 8 728 35 q 436 -18 535 -18 z "},"D":{"ha":926,"x_min":42,"x_max":871,"o":"m 871 508 q 728 82 871 194 q 599 17 668 35 q 417 0 529 0 l 64 0 l 60 49 q 117 67 65 53 q 178 81 168 81 q 164 886 169 622 q 42 919 101 894 q 49 972 44 967 l 399 972 q 627 946 543 972 q 774 849 711 919 q 871 508 871 742 m 736 497 q 666 780 736 685 q 431 875 596 875 l 289 875 q 275 94 283 619 l 421 94 q 674 180 611 94 q 736 497 736 265 z "},"E":{"ha":826,"x_min":42,"x_max":742,"o":"m 303 876 l 296 542 l 515 542 l 526 642 q 610 618 565 642 l 610 354 l 561 350 q 533 450 540 410 l 296 450 q 290 93 293 329 l 608 93 l 642 224 l 722 218 q 742 78 742 139 q 739 0 742 18 l 64 0 l 60 49 q 178 81 121 71 q 164 886 169 622 q 42 919 133 889 l 49 972 l 718 972 q 721 917 721 954 q 701 751 721 840 q 621 744 671 744 l 588 876 l 303 876 z "},"F":{"ha":772,"x_min":42,"x_max":721,"o":"m 297 435 l 290 93 l 407 83 q 383 0 407 44 l 64 0 l 60 49 q 178 81 121 71 q 164 886 169 622 q 42 919 133 889 l 49 972 l 718 972 q 721 917 721 954 q 701 750 721 842 q 621 744 671 744 l 588 876 l 303 876 q 297 526 300 760 l 517 526 l 528 626 q 611 603 567 626 l 611 339 l 563 335 q 535 435 542 394 l 297 435 z "},"G":{"ha":910,"x_min":28,"x_max":883,"o":"m 436 -18 q 139 110 250 -18 q 28 488 28 238 q 124 865 28 739 q 426 990 221 990 q 771 888 631 990 q 751 719 771 817 q 671 714 721 714 l 640 857 q 446 883 561 883 q 236 842 369 883 q 215 799 228 826 q 183 685 203 772 q 163 511 163 599 q 439 85 163 85 q 664 138 585 85 q 671 400 669 313 l 536 433 l 540 482 l 860 482 q 883 399 883 438 q 767 388 829 390 q 775 65 775 154 q 637 12 740 42 q 436 -18 533 -18 z "},"H":{"ha":1033,"x_min":42,"x_max":992,"o":"m 296 557 l 749 556 q 740 890 746 725 q 617 924 689 900 l 621 972 l 968 972 q 992 889 992 928 q 881 883 922 883 l 865 94 l 982 83 q 958 0 982 44 l 639 0 l 635 49 q 763 82 700 71 l 751 468 l 293 468 q 290 94 290 218 l 407 83 q 383 0 407 44 l 64 0 l 60 49 q 188 82 125 71 q 165 890 174 621 q 42 924 114 900 l 46 972 l 393 972 q 417 889 417 928 q 306 883 347 883 q 296 557 301 778 z "},"I":{"ha":528,"x_min":76,"x_max":451,"o":"m 339 883 l 325 94 l 442 83 q 418 0 442 44 l 99 0 l 94 49 q 221 82 158 71 q 212 454 218 172 q 201 890 206 736 q 76 924 146 901 l 81 972 l 428 972 q 451 889 451 928 q 339 883 381 883 z "},"J":{"ha":644,"x_min":7,"x_max":603,"o":"m 139 101 q 238 88 176 88 q 334 123 299 88 q 369 251 369 158 q 367 447 369 343 q 358 684 364 551 q 350 890 353 817 q 228 924 308 896 l 232 972 l 579 972 q 603 889 603 928 q 492 883 586 883 q 485 532 489 760 q 481 232 482 304 q 424 48 478 114 q 268 -18 371 -18 q 114 3 193 -18 q 7 44 35 24 q 29 272 8 150 q 111 282 51 282 l 139 101 z "},"K":{"ha":961,"x_min":42,"x_max":936,"o":"m 294 299 l 290 94 l 407 83 q 383 0 407 44 l 64 0 l 60 49 q 188 82 125 71 q 165 890 174 621 q 42 924 114 900 l 46 972 l 393 972 q 417 889 417 928 q 306 883 347 883 q 301 622 303 739 q 297 458 299 506 l 629 878 l 518 889 q 542 972 518 928 l 894 972 l 899 911 q 774 878 835 889 l 500 549 l 819 94 l 936 83 q 913 0 936 44 l 739 0 l 424 454 l 294 299 z "},"L":{"ha":822,"x_min":96,"x_max":782,"o":"m 763 218 q 774 154 767 210 q 782 60 782 99 q 778 0 782 22 l 118 0 l 114 49 q 232 81 179 72 q 218 888 224 628 q 96 921 182 893 l 103 972 l 438 972 q 461 890 461 933 q 353 886 386 888 q 348 401 350 619 q 344 93 346 182 l 649 93 l 682 225 q 763 218 751 225 z "},"M":{"ha":1350,"x_min":21,"x_max":1329,"o":"m 1057 876 l 1203 94 l 1329 82 q 1306 0 1329 44 l 986 0 l 982 49 q 1085 78 1024 67 l 936 857 l 753 67 l 615 67 l 363 860 l 250 94 l 368 83 q 344 0 368 44 l 25 0 l 21 49 q 143 82 82 71 l 265 888 q 131 917 181 900 l 136 972 l 460 972 l 681 211 l 686 211 l 858 972 l 1168 972 q 1192 886 1192 928 q 1057 876 1101 876 z "},"N":{"ha":1090,"x_min":42,"x_max":1056,"o":"m 303 800 l 289 94 l 406 83 q 382 0 406 44 l 63 0 l 58 49 q 186 82 133 74 q 177 454 183 172 q 167 890 171 736 q 42 924 114 899 l 46 972 l 321 972 l 828 163 l 804 890 q 681 924 753 900 l 685 972 l 1032 972 q 1056 889 1056 928 q 944 883 986 883 l 931 0 l 796 0 l 303 800 z "},"O":{"ha":899,"x_min":28,"x_max":871,"o":"m 454 90 q 735 485 735 90 q 454 881 735 881 q 239 842 322 881 q 164 499 164 693 q 228 198 164 306 q 454 90 293 90 m 28 481 q 28 603 28 481 q 128 858 28 725 q 456 990 229 990 q 777 869 683 990 q 871 501 871 747 q 770 119 871 256 q 449 -17 669 -17 q 128 110 229 -17 q 28 481 28 236 z "},"P":{"ha":799,"x_min":43,"x_max":771,"o":"m 424 972 q 685 915 600 972 q 771 711 771 857 q 686 480 771 565 q 413 394 601 394 l 296 394 l 292 93 l 400 83 q 376 0 400 44 l 64 0 l 60 47 q 179 81 118 69 q 165 886 171 622 q 43 919 128 893 l 50 972 l 424 972 m 399 485 q 581 545 518 486 q 643 701 643 604 q 582 837 643 799 q 386 875 521 875 q 301 874 361 875 q 297 483 301 872 l 399 485 z "},"Q":{"ha":888,"x_min":28,"x_max":886,"o":"m 576 -206 q 540 -191 576 -206 q 458 -164 503 -176 q 378 -151 413 -151 q 272 -169 344 -151 q 192 -186 199 -186 q 158 -122 161 -161 q 390 -47 310 -47 q 608 -103 467 -47 q 715 -138 665 -126 q 886 -153 764 -150 q 835 -279 886 -212 q 674 -243 761 -275 q 576 -206 650 -235 m 454 90 q 735 485 735 90 q 454 881 735 881 q 239 842 322 881 q 164 499 164 693 q 228 198 164 306 q 454 90 293 90 m 28 481 q 28 603 28 481 q 128 858 28 725 q 456 990 229 990 q 777 869 683 990 q 871 501 871 747 q 770 119 871 256 q 449 -18 669 -18 q 128 109 229 -18 q 28 481 28 236 z "},"R":{"ha":911,"x_min":42,"x_max":883,"o":"m 533 861 q 415 875 489 875 l 300 875 l 296 525 l 401 526 q 565 568 504 528 q 626 722 626 608 q 533 861 626 835 m 294 436 l 290 93 l 406 83 q 382 0 406 44 l 63 0 l 58 49 q 178 81 117 69 q 164 886 169 608 q 42 919 125 892 q 49 972 42 938 l 361 972 q 692 910 615 972 q 767 722 767 850 q 531 443 767 507 l 768 92 l 883 82 q 860 0 883 44 l 689 0 l 397 436 l 294 436 z "},"S":{"ha":796,"x_min":63,"x_max":733,"o":"m 397 93 q 604 261 604 93 q 503 400 604 343 q 402 450 457 426 q 292 501 347 474 q 191 561 236 529 q 117 642 146 593 q 89 751 89 690 q 170 922 89 851 q 393 992 251 992 q 692 906 535 992 q 672 707 692 826 q 592 703 642 703 l 550 864 q 484 881 533 872 q 397 889 435 889 q 272 855 317 889 q 228 760 228 821 q 280 652 228 700 q 406 570 332 604 q 555 500 481 536 q 681 406 629 464 q 733 272 733 349 q 640 58 733 133 q 397 -18 547 -18 q 220 8 315 -18 q 63 74 125 33 q 83 289 65 167 q 164 293 114 293 l 193 126 q 285 103 224 114 q 397 93 347 93 z "},"T":{"ha":863,"x_min":28,"x_max":833,"o":"m 506 886 q 490 94 499 653 l 607 83 q 583 0 607 44 l 264 0 l 260 49 q 388 82 340 78 q 365 886 374 618 l 163 886 l 129 744 l 49 750 q 28 922 28 835 q 31 972 28 939 l 831 972 q 833 917 833 954 q 814 753 833 842 q 733 744 783 744 l 699 886 l 506 886 z "},"U":{"ha":1047,"x_min":33,"x_max":1014,"o":"m 539 -17 q 401 -4 460 -17 q 289 42 343 8 q 173 307 176 108 q 158 890 169 506 q 33 924 103 901 l 38 972 l 386 972 q 410 889 410 928 q 294 883 369 886 q 292 400 292 722 q 356 158 292 226 q 540 90 421 90 q 630 101 592 90 q 706 144 668 113 q 781 403 781 208 q 768 883 781 404 q 643 924 660 915 l 647 972 l 992 972 q 1014 890 1014 915 q 901 889 926 890 q 895 574 899 778 q 890 307 892 371 q 793 66 886 149 q 539 -17 700 -17 z "},"V":{"ha":1014,"x_min":7,"x_max":1001,"o":"m 881 881 l 594 0 l 450 0 l 132 890 q 7 924 76 901 l 11 972 l 372 972 q 396 889 396 928 q 271 881 328 885 l 517 146 l 524 146 q 756 890 554 250 q 625 924 700 899 l 629 972 l 978 972 q 1001 889 1001 928 q 881 881 938 885 z "},"W":{"ha":1496,"x_min":7,"x_max":1486,"o":"m 1053 146 l 1236 890 q 1111 924 1181 901 l 1115 972 l 1463 972 q 1486 889 1486 928 q 1353 881 1410 885 l 1111 0 l 981 0 l 742 815 l 525 0 l 381 0 l 132 890 q 7 924 76 901 l 11 972 l 372 972 q 396 889 396 928 q 271 881 328 885 l 447 146 l 453 146 q 573 608 497 338 q 674 971 649 879 l 824 971 l 1047 146 l 1053 146 z "},"X":{"ha":1003,"x_min":14,"x_max":990,"o":"m 858 890 l 572 501 l 872 92 l 990 83 q 967 0 990 44 l 603 0 l 599 49 q 722 82 661 71 l 496 415 l 281 92 l 399 83 q 375 0 399 44 l 18 0 l 14 49 q 139 82 78 71 l 432 501 l 158 879 l 40 888 q 64 971 40 926 l 438 971 l 442 922 q 310 885 371 896 l 515 582 l 717 881 l 599 889 q 622 972 599 928 l 979 972 l 983 924 q 858 890 919 901 z "},"Y":{"ha":940,"x_min":7,"x_max":933,"o":"m 539 347 l 533 94 l 650 83 q 628 0 650 42 l 307 0 l 303 49 q 431 82 388 78 q 424 347 429 168 l 132 890 q 7 924 76 901 l 11 972 l 372 972 q 396 889 396 928 q 271 881 328 885 l 478 460 l 493 460 l 700 890 q 569 924 644 899 l 574 972 l 910 972 q 933 889 933 928 q 815 881 872 885 l 539 347 z "},"Z":{"ha":828,"x_min":63,"x_max":772,"o":"m 106 922 q 108 972 106 939 l 740 972 q 772 888 765 940 l 231 93 l 636 93 l 669 251 q 742 243 714 251 q 764 81 764 144 q 761 0 764 17 l 94 0 q 63 85 69 32 l 603 878 l 238 878 l 201 718 q 129 728 153 718 q 106 922 106 829 z "},"[":{"ha":511,"x_min":118,"x_max":463,"o":"m 463 -189 q 457 -261 463 -232 q 323 -277 435 -268 q 165 -286 211 -286 q 149 -250 160 -281 q 138 -197 139 -219 q 118 985 124 597 q 131 1038 119 1007 q 146 1074 142 1069 q 314 1065 193 1074 q 457 1049 435 1056 q 461 976 461 1015 q 253 949 443 971 q 244 -176 244 199 l 463 -189 z "},"\\":{"ha":565,"x_min":42,"x_max":524,"o":"m 524 -3 q 476 -6 501 -6 q 422 0 451 -6 l 42 969 q 103 976 86 976 q 163 972 121 976 l 524 -3 z "},"]":{"ha":442,"x_min":56,"x_max":400,"o":"m 274 -176 q 265 949 274 199 q 57 976 75 971 q 61 1049 57 1015 q 204 1065 83 1056 q 372 1074 325 1074 q 388 1038 376 1069 q 400 985 399 1007 q 381 -197 394 597 q 369 -250 379 -219 q 353 -286 358 -281 q 195 -277 307 -286 q 61 -261 83 -268 q 56 -189 56 -232 q 274 -176 211 -176 z "},"^":{"ha":711,"x_min":83,"x_max":628,"o":"m 310 972 q 356 975 315 975 q 408 971 396 975 l 628 550 q 597 533 621 542 q 564 524 574 524 q 465 674 508 594 q 356 886 422 753 q 213 617 249 671 q 147 524 176 563 q 114 533 138 524 q 83 550 90 542 q 310 972 301 965 z "},"_":{"ha":699,"x_min":0,"x_max":696,"o":"m 693 -229 q 696 -269 696 -243 l 693 -311 q 526 -328 604 -328 l 4 -318 q 0 -281 0 -300 l 4 -236 q 172 -219 93 -219 l 693 -229 z "},"`":{"ha":1157,"x_min":272,"x_max":525,"o":"m 525 864 q 469 807 493 826 q 272 938 347 865 q 288 978 274 957 q 331 1022 303 999 l 525 864 z "},"a":{"ha":749,"x_min":57,"x_max":721,"o":"m 608 454 l 601 96 q 721 76 661 92 l 718 28 q 638 3 696 17 q 525 -10 581 -10 q 497 86 500 40 q 275 -18 339 -18 q 117 35 176 -18 q 57 182 57 88 q 324 407 57 400 q 481 411 479 411 l 479 458 q 443 597 476 554 q 324 639 410 639 q 246 622 288 639 l 213 483 q 189 482 206 482 l 132 486 q 108 651 110 546 q 229 694 135 665 q 350 722 324 722 q 550 660 492 722 q 608 454 608 597 m 306 76 q 492 167 346 76 l 485 340 q 326 325 390 332 q 224 288 263 318 q 185 194 185 258 q 306 76 185 76 z "},"b":{"ha":788,"x_min":10,"x_max":738,"o":"m 458 618 q 260 560 368 618 q 255 323 257 432 q 251 171 253 214 q 344 107 286 136 q 446 78 403 78 q 610 347 610 78 q 586 509 610 450 q 532 593 563 568 q 458 618 501 618 m 221 1032 q 282 1029 264 1032 q 264 918 282 988 q 263 828 264 886 q 260 635 260 714 q 483 722 432 722 q 675 622 613 722 q 738 360 738 521 q 667 92 738 200 q 464 -17 597 -17 q 345 14 410 -17 q 235 86 281 44 q 213 -8 229 35 q 192 -10 207 -10 q 147 -6 176 -10 l 132 921 q 10 939 63 925 l 15 1011 q 221 1032 86 1032 z "},"c":{"ha":656,"x_min":50,"x_max":617,"o":"m 381 -17 q 132 77 214 -17 q 50 344 50 171 q 386 722 50 722 q 499 706 440 722 q 590 671 557 690 q 564 488 586 542 q 524 481 539 481 l 500 481 q 483 482 493 481 l 449 635 q 396 639 403 639 q 237 578 296 639 q 178 372 178 517 q 223 153 178 228 q 397 78 268 78 q 589 136 458 78 q 617 72 615 100 q 478 7 546 31 q 381 -17 410 -17 z "},"d":{"ha":785,"x_min":50,"x_max":764,"o":"m 528 643 l 524 921 q 401 938 447 925 l 407 1010 q 613 1031 478 1031 q 674 1028 656 1031 q 666 962 674 1003 q 656 917 658 921 l 643 96 q 764 76 700 93 l 761 28 q 592 -17 665 -17 q 568 -15 576 -17 q 540 81 557 6 q 317 -17 381 -10 q 117 85 183 -17 q 50 345 50 186 q 117 613 50 504 q 317 722 185 722 q 528 643 419 722 m 340 628 q 178 361 178 628 q 211 181 178 257 q 260 114 228 139 q 336 89 293 89 q 437 108 379 89 q 536 153 494 128 l 528 549 q 436 604 490 581 q 340 628 382 628 z "},"e":{"ha":711,"x_min":56,"x_max":649,"o":"m 403 78 q 594 136 464 78 q 622 72 621 100 q 483 7 551 31 q 386 -17 415 -17 q 140 80 225 -17 q 56 350 56 176 q 138 623 56 524 q 386 722 221 722 q 581 631 514 722 q 649 385 649 539 q 631 358 638 365 l 183 365 q 233 151 185 225 q 403 78 281 78 m 522 444 q 489 587 522 536 q 378 638 456 638 q 239 608 300 638 q 186 438 197 525 q 522 444 296 439 z "},"f":{"ha":511,"x_min":28,"x_max":581,"o":"m 514 815 l 492 817 l 486 817 l 443 953 q 389 958 413 958 q 294 906 321 958 q 267 721 267 853 l 267 704 l 288 704 q 435 693 383 704 q 440 692 436 693 q 417 610 439 651 l 258 610 l 258 94 l 279 94 q 375 89 333 94 q 419 81 417 83 q 396 0 419 44 l 32 0 l 28 49 q 144 82 92 71 l 144 610 l 38 610 l 33 658 q 144 689 83 678 l 144 746 q 203 975 144 903 q 269 1022 226 1003 q 369 1040 313 1040 q 581 992 481 1040 q 564 819 581 906 q 514 815 549 815 z "},"g":{"ha":803,"x_min":57,"x_max":778,"o":"m 417 85 l 540 88 q 732 -71 732 88 q 669 -208 732 -144 q 518 -303 606 -271 q 355 -335 431 -335 q 214 -313 279 -335 q 103 -243 149 -292 q 57 -131 57 -194 q 106 -51 57 -115 q 171 25 156 14 q 122 73 158 33 q 82 128 86 113 q 192 253 117 192 q 81 472 81 319 q 158 658 81 594 q 353 722 236 722 q 533 685 469 722 q 751 707 644 707 q 778 675 778 707 q 757 599 778 619 l 597 625 q 647 472 647 561 q 565 273 647 333 q 364 213 483 213 q 275 222 326 213 q 222 129 254 179 q 417 85 247 85 m 593 -171 q 607 -91 607 -132 q 575 -25 607 -50 q 493 0 543 0 q 250 4 294 0 q 198 -97 213 -56 q 183 -143 183 -137 q 235 -224 183 -197 q 353 -250 286 -250 q 490 -228 421 -250 q 593 -171 558 -206 m 522 467 q 522 553 522 467 q 364 639 522 639 q 206 472 206 639 q 247 342 206 388 q 368 296 289 296 q 522 467 522 296 z "},"h":{"ha":857,"x_min":28,"x_max":833,"o":"m 244 1032 q 306 1029 288 1032 q 298 965 306 1004 q 288 918 290 925 q 285 792 288 888 q 282 643 282 696 q 401 699 342 675 q 475 722 460 722 q 668 656 608 722 q 728 456 728 590 q 717 94 728 417 l 833 83 q 810 0 833 44 l 490 0 l 486 49 q 611 82 550 71 q 597 487 603 446 q 576 558 590 528 q 535 601 563 589 q 461 614 507 614 q 281 569 367 614 l 272 94 l 389 83 q 365 0 389 44 l 46 0 l 42 49 q 167 82 106 71 l 150 922 q 28 939 74 926 l 33 1011 q 244 1032 104 1032 z "},"i":{"ha":428,"x_min":42,"x_max":400,"o":"m 300 838 q 230 829 264 829 q 163 833 196 829 q 154 912 154 872 q 157 971 154 951 q 222 978 188 978 q 294 975 256 978 q 303 905 303 939 q 300 838 303 871 m 47 692 q 231 713 165 713 q 314 710 296 713 q 306 636 314 676 q 296 597 297 596 l 283 94 l 400 83 q 376 0 400 44 l 57 0 l 53 49 q 178 82 117 71 q 164 603 169 429 q 42 619 83 603 l 47 692 z "},"j":{"ha":396,"x_min":-136,"x_max":326,"o":"m 61 -335 q -48 -317 17 -335 q -136 -283 -112 -299 q -110 -99 -129 -157 q -58 -93 -79 -93 q -29 -94 -36 -93 l 6 -246 q 67 -253 26 -253 q 188 -54 188 -253 q 183 295 188 63 q 176 604 178 528 q 54 621 100 608 l 60 693 q 265 714 131 714 q 326 711 308 714 q 318 638 326 678 q 308 599 310 597 q 299 -28 304 393 q 247 -260 296 -186 q 61 -335 197 -335 m 313 838 q 242 829 276 829 q 175 833 208 829 q 167 912 167 872 q 169 971 167 951 q 234 978 200 978 q 307 975 268 978 q 315 905 315 939 q 313 838 315 871 z "},"k":{"ha":821,"x_min":26,"x_max":810,"o":"m 238 1040 q 299 1038 281 1040 q 281 926 299 994 q 272 372 272 560 l 496 611 l 385 622 q 408 706 385 661 l 761 706 l 765 644 q 649 613 733 632 l 458 440 l 693 94 l 810 83 q 786 0 810 44 l 596 0 l 379 369 l 271 271 q 268 94 268 154 l 385 83 q 361 0 385 44 l 42 0 l 38 49 q 163 82 101 71 q 149 931 154 643 q 26 947 72 935 l 32 1019 q 238 1040 103 1040 z "},"l":{"ha":410,"x_min":26,"x_max":385,"o":"m 238 1032 q 299 1029 281 1032 q 281 918 299 981 q 268 94 268 99 l 385 83 q 361 0 385 44 l 42 0 l 38 49 q 163 82 101 71 l 149 922 q 26 939 72 926 l 32 1011 q 238 1032 103 1032 z "},"m":{"ha":1286,"x_min":39,"x_max":1272,"o":"m 724 567 q 729 464 729 522 q 718 94 729 406 l 835 83 q 811 0 835 44 l 492 0 l 488 49 q 613 82 551 71 q 598 493 604 451 q 578 563 592 535 q 535 603 564 592 q 447 614 506 614 q 292 569 388 614 q 281 94 283 253 l 397 83 q 374 0 397 44 l 54 0 l 50 49 q 175 82 114 71 q 168 365 174 182 q 161 604 163 547 q 39 621 85 608 l 44 693 q 263 714 119 714 q 288 642 282 679 q 408 698 349 674 q 483 722 468 722 q 699 628 638 722 q 831 692 763 663 q 914 722 900 722 q 1103 660 1040 722 q 1167 458 1167 599 q 1156 94 1167 417 l 1272 83 q 1249 0 1272 44 l 929 0 l 925 49 q 1050 82 989 71 q 1040 414 1044 301 q 1008 570 1036 526 q 897 614 981 614 q 724 567 814 614 z "},"n":{"ha":856,"x_min":39,"x_max":842,"o":"m 483 722 q 676 656 617 722 q 736 456 736 590 q 725 94 736 417 l 842 83 q 818 0 842 44 l 499 0 l 494 49 q 619 82 558 71 q 605 487 611 446 q 585 558 599 528 q 543 601 571 589 q 469 614 515 614 q 292 569 378 614 q 281 94 283 253 l 397 83 q 374 0 397 44 l 54 0 l 50 49 q 175 82 114 71 q 161 604 167 435 q 39 621 85 608 l 44 693 q 263 714 119 714 q 288 642 279 689 q 408 698 347 674 q 483 722 468 722 z "},"o":{"ha":747,"x_min":50,"x_max":697,"o":"m 372 67 q 430 67 372 67 q 528 140 488 67 q 569 347 569 213 q 475 615 569 561 q 366 638 436 638 q 233 608 296 638 q 178 360 178 501 q 214 150 178 224 q 372 67 256 67 m 50 347 q 50 435 50 347 q 131 623 50 524 q 379 722 211 722 q 622 631 547 722 q 697 363 697 540 q 617 83 697 185 q 375 -18 538 -18 q 131 76 213 -18 q 50 347 50 171 z "},"p":{"ha":804,"x_min":21,"x_max":754,"o":"m 268 71 l 261 -226 l 382 -236 q 358 -319 382 -275 l 36 -319 l 32 -271 q 157 -239 96 -250 q 143 604 149 328 q 21 621 81 606 l 26 693 q 251 714 107 714 q 275 632 264 692 q 500 722 453 722 q 692 622 629 722 q 754 360 754 521 q 684 92 754 200 q 481 -17 614 -17 q 372 8 431 -17 q 268 71 313 33 m 475 618 q 275 557 389 618 q 269 169 272 299 q 362 106 304 135 q 463 78 419 78 q 626 347 626 78 q 603 509 626 450 q 549 593 579 568 q 475 618 518 618 z "},"q":{"ha":799,"x_min":50,"x_max":778,"o":"m 317 -17 q 117 85 183 -17 q 50 345 50 186 q 117 613 50 504 q 317 722 185 722 q 532 642 421 722 q 568 714 547 678 q 686 697 622 714 q 775 668 750 681 q 778 619 778 653 q 661 599 711 601 l 646 -224 l 763 -235 q 739 -318 763 -274 l 410 -318 l 406 -274 q 540 -236 479 -247 q 535 76 538 -28 q 317 -17 376 -10 m 211 181 q 260 114 228 139 q 335 89 293 89 q 435 108 378 89 q 535 151 493 126 q 528 549 533 286 q 436 604 490 581 q 340 628 382 628 q 178 361 178 628 q 211 181 178 257 z "},"r":{"ha":624,"x_min":39,"x_max":611,"o":"m 476 606 q 446 613 469 613 q 376 596 422 613 q 292 557 329 579 q 281 94 283 249 l 397 83 q 374 0 397 44 l 54 0 l 50 49 q 175 82 114 71 q 161 604 167 435 q 39 621 85 608 l 44 693 q 263 714 118 714 q 290 625 285 679 q 481 722 450 722 q 551 710 511 722 q 611 685 592 699 q 585 458 611 546 q 540 453 565 453 q 504 454 514 453 l 476 606 z "},"s":{"ha":628,"x_min":46,"x_max":560,"o":"m 165 89 q 284 68 214 68 q 394 94 354 68 q 435 167 435 121 q 397 243 435 213 q 306 297 360 274 q 197 347 251 321 q 106 417 143 374 q 68 517 68 460 q 132 667 68 613 q 309 722 196 722 q 522 671 422 722 q 524 597 524 657 q 511 493 524 536 q 432 482 478 482 l 386 624 q 303 639 356 639 q 221 612 251 639 q 190 544 190 585 q 228 472 190 503 q 321 417 267 442 q 429 366 375 393 q 522 295 483 339 q 560 194 560 251 q 483 38 560 94 q 293 -18 406 -18 q 163 2 232 -18 q 46 54 93 22 q 63 219 46 147 q 149 225 94 225 l 165 89 z "},"t":{"ha":483,"x_min":31,"x_max":438,"o":"m 153 86 l 142 610 l 35 610 l 31 658 q 111 694 44 668 l 225 872 q 268 858 253 869 l 267 706 q 438 692 371 706 q 414 610 438 654 l 264 610 q 258 104 261 443 q 414 76 336 100 l 413 28 q 313 -1 393 15 q 182 -18 233 -18 q 164 30 175 -7 q 153 86 153 67 z "},"u":{"ha":826,"x_min":14,"x_max":804,"o":"m 408 92 q 499 109 449 92 q 581 151 549 126 q 571 600 575 447 q 443 617 485 600 l 449 689 q 634 710 567 710 q 719 707 701 710 q 712 640 719 682 q 701 594 704 599 l 685 99 q 804 82 758 94 l 801 11 q 683 -8 740 -8 q 614 -7 626 -8 q 583 90 588 46 q 458 11 515 39 q 382 -17 400 -17 q 205 49 260 -17 q 150 243 150 115 q 163 599 150 244 q 14 617 82 599 l 19 689 q 203 710 138 710 q 286 707 268 710 q 278 633 286 674 q 268 594 269 593 l 269 294 q 296 140 269 189 q 408 92 322 92 z "},"v":{"ha":819,"x_min":-14,"x_max":840,"o":"m 726 613 l 456 0 l 357 0 l 103 611 l -14 622 q 10 706 -14 661 l 346 706 l 350 657 q 251 626 306 638 l 376 247 l 408 125 l 425 125 l 460 249 l 589 626 l 472 657 l 476 706 l 817 706 q 840 622 840 661 q 726 613 783 615 z "},"w":{"ha":1193,"x_min":-14,"x_max":1214,"o":"m 594 546 l 589 546 l 431 0 l 293 0 l 103 611 l -14 622 q 10 706 -14 661 l 329 706 l 333 657 q 235 626 289 638 l 333 247 l 358 125 l 372 125 l 400 249 l 540 706 q 564 707 557 707 l 660 704 l 808 247 l 839 125 l 851 125 l 874 249 l 990 626 l 874 657 l 878 706 l 1190 706 q 1214 622 1214 661 q 1100 613 1157 615 l 910 0 l 772 0 l 594 546 z "},"x":{"ha":761,"x_min":13,"x_max":749,"o":"m 504 79 l 379 274 l 181 0 l 22 0 q 13 56 13 25 q 129 94 67 83 l 321 365 l 161 611 l 17 622 q 40 706 17 661 l 360 706 l 364 657 q 293 622 326 631 l 394 458 l 567 706 l 738 706 q 746 679 746 694 l 742 650 q 628 625 689 631 l 444 368 l 638 94 l 749 83 q 725 0 749 44 l 406 0 l 401 49 q 504 79 447 68 z "},"y":{"ha":771,"x_min":-14,"x_max":792,"o":"m 194 -258 q 298 -157 247 -258 q 356 0 349 -56 l 322 0 l 103 611 l -14 622 q 10 706 -14 661 l 329 706 l 333 657 q 235 626 289 638 l 356 247 l 388 125 l 401 125 l 568 626 l 451 657 l 456 706 l 768 706 q 792 622 792 661 q 678 613 735 615 q 570 297 642 507 q 458 -28 499 88 q 376 -215 417 -143 q 297 -312 336 -287 q 208 -336 257 -336 q 47 -303 122 -336 l 22 -290 q 35 -117 32 -132 q 115 -112 46 -112 l 163 -254 q 194 -258 175 -258 z "},"z":{"ha":674,"x_min":61,"x_max":608,"o":"m 589 222 q 608 80 608 142 q 606 0 608 18 l 81 0 q 61 75 64 25 l 460 628 l 222 628 l 189 483 q 164 482 168 482 l 108 486 q 89 627 89 567 q 92 706 89 688 l 585 706 q 593 628 593 685 l 213 83 l 475 83 l 508 229 l 589 222 z "},"{":{"ha":563,"x_min":43,"x_max":486,"o":"m 310 911 l 315 604 q 119 439 315 519 l 119 396 q 315 231 315 315 l 310 -76 q 486 -172 468 -157 q 457 -239 475 -204 q 210 -167 424 -236 q 188 -130 200 -160 q 174 -87 175 -100 l 222 215 q 147 287 218 222 q 50 374 76 351 q 43 422 43 389 l 50 461 q 147 548 76 483 q 222 619 218 613 l 174 922 q 188 965 175 935 q 210 1001 200 994 q 457 1074 424 1071 q 486 1007 475 1039 q 310 911 468 992 z "},"|":{"ha":414,"x_min":139,"x_max":275,"o":"m 260 -300 q 210 -304 250 -304 q 156 -300 169 -304 q 139 1040 140 993 q 208 1044 156 1044 q 275 1042 261 1044 l 260 -300 z "},"}":{"ha":549,"x_min":40,"x_max":483,"o":"m 217 -76 l 211 231 q 407 396 211 315 l 407 439 q 211 604 211 519 l 217 911 q 40 1007 58 992 q 69 1074 51 1039 q 317 1001 103 1071 q 339 965 326 994 q 353 922 351 935 l 304 619 q 379 548 308 613 q 476 461 450 483 q 483 425 483 442 q 476 374 483 390 q 379 287 450 351 q 304 215 308 222 l 353 -87 q 339 -130 351 -100 q 317 -167 326 -160 q 69 -239 103 -236 q 40 -172 51 -204 q 217 -76 58 -157 z "},"~":{"ha":785,"x_min":69,"x_max":715,"o":"m 251 476 l 547 376 q 692 428 578 393 l 715 388 q 631 317 699 363 q 535 272 564 272 l 238 372 q 93 321 207 356 l 69 361 q 153 431 86 386 q 251 476 221 476 z "},"¡":{"ha":404,"x_min":126,"x_max":275,"o":"m 272 664 q 275 607 275 647 q 267 531 275 567 q 194 528 228 528 q 129 535 160 528 q 126 594 126 554 q 135 672 126 633 q 206 676 168 676 q 272 664 244 676 m 161 449 q 193 450 169 450 q 236 447 217 450 l 269 -333 q 200 -336 228 -336 q 142 -329 172 -336 l 161 449 z "},"¢":{"ha":724,"x_min":69,"x_max":665,"o":"m 439 -15 l 438 -176 q 408 -179 429 -179 q 372 -176 386 -179 q 369 -15 372 -76 q 69 371 69 8 q 361 765 69 733 l 361 940 q 408 944 374 944 q 450 942 442 944 q 447 767 447 825 q 638 714 560 758 q 610 518 633 581 q 524 511 578 511 l 488 679 q 431 683 438 683 q 263 617 325 683 q 200 407 200 550 q 242 167 200 250 q 433 69 292 69 q 636 132 496 69 q 665 64 663 96 q 439 -15 560 -1 z "},"£":{"ha":731,"x_min":85,"x_max":653,"o":"m 374 467 l 329 467 q 368 344 368 394 q 352 249 368 293 q 324 183 336 204 q 279 124 311 163 q 244 83 247 86 l 547 83 q 564 215 554 179 q 636 207 608 215 q 653 0 653 101 l 101 0 q 85 88 85 19 q 132 140 90 100 q 244 313 244 249 q 189 472 244 358 l 89 476 q 85 510 85 494 l 89 543 q 150 551 115 547 q 110 714 110 642 q 172 913 110 838 q 344 989 233 989 q 593 896 481 989 q 569 732 593 806 q 489 725 539 725 l 457 897 q 365 907 428 907 q 266 853 301 907 q 231 728 231 799 q 281 560 231 657 l 547 550 q 550 514 550 536 l 547 483 q 374 467 451 467 z "},"¤":{"ha":829,"x_min":36,"x_max":800,"o":"m 239 717 q 420 772 310 772 q 599 721 531 772 q 722 839 707 829 q 799 771 776 808 l 785 739 q 654 657 742 718 q 692 492 692 594 q 639 315 692 389 q 786 222 760 235 q 800 190 800 200 q 724 122 783 161 q 582 258 700 138 q 422 211 515 211 q 261 250 328 211 q 128 122 143 132 q 51 190 74 153 l 65 222 q 196 304 114 244 q 140 480 140 375 q 183 654 140 585 q 50 739 88 719 q 36 771 36 761 q 113 839 56 806 q 239 717 133 825 m 419 294 q 565 488 565 294 q 535 639 565 589 q 431 689 506 689 q 310 667 356 689 q 267 491 267 582 q 306 347 267 400 q 419 294 344 294 z "},"¥":{"ha":954,"x_min":14,"x_max":940,"o":"m 600 346 l 546 346 l 546 275 q 744 271 688 271 q 746 238 746 260 l 744 201 q 610 189 672 189 l 542 189 l 542 94 l 657 83 q 635 0 657 42 l 314 0 l 310 49 q 438 82 394 78 l 438 190 l 247 194 q 244 226 244 217 l 247 265 q 357 278 310 278 q 432 276 404 278 l 432 347 l 238 351 q 235 383 235 374 l 238 422 q 372 435 310 435 l 383 435 l 139 890 q 14 924 83 901 l 18 972 l 379 972 q 403 889 403 928 q 278 881 335 885 l 485 460 l 500 460 l 707 890 q 576 924 651 899 l 581 972 l 917 972 q 940 889 940 928 q 822 881 879 885 l 589 431 l 735 428 q 736 394 736 417 l 735 358 q 600 346 663 346 z "},"¦":{"ha":414,"x_min":139,"x_max":275,"o":"m 146 529 l 139 1040 q 208 1044 156 1044 q 275 1042 261 1044 q 269 531 272 703 l 146 529 m 156 -300 l 150 178 l 265 178 q 260 -300 263 17 q 209 -304 249 -304 q 156 -300 169 -304 z "},"§":{"ha":708,"x_min":97,"x_max":611,"o":"m 125 804 q 189 955 125 900 q 366 1010 253 1010 q 579 958 479 1010 q 581 885 581 944 q 568 781 581 825 q 489 769 540 769 l 443 911 q 360 926 413 926 q 278 899 308 926 q 247 831 247 872 q 285 756 247 790 q 376 694 322 722 q 483 635 429 667 q 574 558 536 604 q 611 445 611 511 q 564 308 611 379 q 446 200 517 238 q 547 119 511 161 q 583 19 583 78 q 519 -131 583 -76 q 342 -186 456 -186 q 129 -135 229 -186 q 128 -61 128 -121 q 140 43 128 -1 q 219 54 168 54 l 265 -87 q 348 -103 296 -103 q 431 -76 400 -103 q 461 -8 461 -49 q 424 67 461 33 q 333 129 386 101 q 226 188 279 157 q 135 266 172 219 q 97 378 97 313 q 144 515 97 444 q 263 622 192 586 q 161 704 197 663 q 125 804 125 746 m 375 240 q 457 292 422 254 q 492 393 492 331 q 451 497 492 456 q 332 582 410 538 q 251 531 285 569 q 217 431 217 493 q 257 327 217 368 q 375 240 297 286 z "},"¨":{"ha":1157,"x_min":289,"x_max":636,"o":"m 406 842 q 347 836 378 836 q 296 839 315 836 q 289 890 289 864 q 292 949 289 915 q 349 953 313 953 q 401 951 385 953 q 407 888 407 921 q 406 842 407 856 m 635 842 q 576 836 607 836 q 525 839 544 836 q 518 890 518 864 q 521 949 518 915 q 578 953 542 953 q 631 951 614 953 q 636 888 636 921 q 635 842 636 856 z "},"©":{"ha":1157,"x_min":26,"x_max":1118,"o":"m 70 269 q 48 321 70 269 q 26 511 26 374 q 70 753 26 649 q 190 918 114 857 q 572 1040 343 1040 q 956 911 801 1040 q 1074 746 1031 849 q 1118 508 1118 643 q 1074 269 1118 374 q 954 103 1031 164 q 782 11 878 42 q 572 -19 686 -19 q 363 11 458 -19 q 190 103 267 42 q 70 269 114 164 m 153 506 q 260 185 153 311 q 569 58 368 58 q 881 186 769 58 q 993 519 993 314 q 888 840 993 724 q 572 956 783 956 q 376 922 460 956 q 153 506 153 835 m 581 200 q 382 276 457 200 q 307 510 307 353 q 377 747 307 667 q 585 826 447 826 q 685 811 636 826 q 756 781 733 796 l 778 765 q 767 643 778 715 q 717 640 747 640 l 690 747 q 600 757 644 757 q 456 732 522 757 q 410 528 410 656 q 578 269 410 269 q 699 294 651 269 l 717 399 l 767 396 q 779 246 779 301 q 701 216 761 232 q 581 200 642 200 z "},"ª":{"ha":519,"x_min":31,"x_max":494,"o":"m 183 472 q 72 509 114 472 q 31 619 31 546 q 217 769 31 761 q 326 772 289 772 l 325 806 q 300 902 322 872 q 217 932 278 932 q 163 921 193 932 l 139 822 l 82 825 q 67 940 67 867 q 150 970 85 950 q 235 990 215 990 q 376 946 335 990 q 417 806 417 901 q 411 551 417 710 q 494 539 440 550 l 493 504 q 358 478 444 478 q 339 544 339 514 q 183 472 226 472 m 204 539 q 335 601 232 539 l 329 724 l 225 714 q 119 621 119 703 q 204 539 119 539 z "},"«":{"ha":665,"x_min":76,"x_max":568,"o":"m 79 342 q 76 359 76 346 q 78 376 76 372 q 190 526 164 496 q 251 592 217 556 q 318 544 271 586 q 186 358 208 383 q 224 311 201 340 l 318 172 q 251 125 279 128 q 142 251 186 189 l 79 342 m 329 342 q 326 359 326 346 q 328 376 326 372 q 440 526 414 496 q 501 592 467 556 q 568 544 521 586 q 436 358 458 383 q 474 311 451 340 l 568 172 q 501 125 529 128 q 392 251 436 189 l 329 342 z "},"¬":{"ha":719,"x_min":49,"x_max":650,"o":"m 53 415 q 190 432 142 432 q 290 431 239 432 q 400 428 340 429 q 650 421 564 424 l 650 143 q 611 139 631 139 l 565 143 l 546 322 l 465 322 l 53 331 q 49 369 49 350 l 53 415 z "},"­":{"ha":536,"x_min":104,"x_max":432,"o":"m 429 392 q 432 354 432 369 l 429 306 q 293 299 357 299 l 107 306 q 104 342 104 315 l 107 392 q 243 399 179 399 l 429 392 z "},"®":{"ha":736,"x_min":78,"x_max":706,"o":"m 342 874 l 340 769 l 375 769 q 432 780 413 769 q 451 826 451 790 q 381 875 451 875 q 342 874 360 875 m 339 732 l 338 615 l 376 613 q 369 583 376 600 l 246 583 l 244 601 q 285 611 264 607 q 281 878 285 761 l 239 896 l 240 914 l 368 914 q 478 897 442 914 q 514 829 514 881 q 433 735 514 757 l 514 615 l 553 613 q 544 583 553 597 l 472 583 l 374 732 l 339 732 m 392 444 q 326 444 392 444 q 169 524 261 444 q 78 749 78 603 q 168 968 78 896 q 390 1040 258 1040 q 614 965 522 1040 q 706 747 706 890 q 614 524 706 603 q 392 444 522 444 m 161 747 q 220 570 161 640 q 390 500 279 500 q 562 571 500 500 q 624 752 624 642 q 563 922 624 863 q 392 981 503 981 q 161 747 161 981 z "},"¯":{"ha":413,"x_min":57,"x_max":367,"o":"m 364 972 q 367 936 367 950 l 364 888 q 228 881 292 881 l 60 888 q 57 924 57 907 l 60 972 q 196 979 132 979 l 364 972 z "},"°":{"ha":614,"x_min":132,"x_max":446,"o":"m 132 888 q 175 1001 132 963 q 290 1040 218 1040 q 404 1000 363 1040 q 446 881 446 960 q 404 756 446 801 q 292 711 363 711 q 132 888 132 711 m 290 764 q 371 881 371 764 q 348 956 371 931 q 289 981 325 981 q 228 957 253 981 q 203 881 203 933 q 290 764 203 764 z "},"±":{"ha":786,"x_min":63,"x_max":722,"o":"m 235 481 l 336 479 l 343 774 q 382 778 363 778 l 428 774 q 444 611 444 685 q 443 476 444 538 l 719 471 q 722 431 722 457 l 719 389 q 562 372 631 372 q 440 374 493 372 l 435 68 q 394 65 421 65 l 350 68 q 333 233 333 157 q 335 375 333 308 l 67 382 q 63 419 63 400 l 67 464 q 235 481 156 481 m 719 -10 q 722 -50 722 -24 l 719 -92 q 553 -108 631 -108 l 67 -99 q 63 -61 63 -81 l 67 -17 q 235 0 156 0 l 719 -10 z "},"²":{"ha":482,"x_min":36,"x_max":446,"o":"m 446 376 l 47 376 q 36 454 36 399 q 271 728 225 661 q 317 853 317 796 q 290 934 317 910 q 219 958 264 958 q 156 953 174 958 l 132 833 l 76 836 q 60 972 60 885 q 234 1038 125 1038 q 392 993 343 1038 q 440 876 440 949 q 398 738 440 803 q 171 467 356 674 l 174 454 l 371 456 q 383 547 376 522 l 433 543 q 446 376 446 457 z "},"³":{"ha":481,"x_min":35,"x_max":446,"o":"m 196 676 q 139 672 193 676 q 136 703 136 676 q 138 743 136 731 l 181 749 q 272 785 233 754 q 310 860 310 815 q 190 964 310 964 q 146 957 174 964 l 122 836 l 67 840 q 50 976 50 897 q 117 1021 71 1000 q 199 1042 164 1042 q 356 999 294 1042 q 418 894 418 956 q 294 736 418 789 q 400 699 354 736 q 446 590 446 663 q 360 433 446 493 q 191 372 275 372 q 35 397 107 372 q 47 469 38 451 q 149 454 118 454 q 200 457 181 454 q 254 469 219 460 q 312 506 289 479 q 335 577 335 532 q 297 649 335 622 q 196 676 258 676 z "},"´":{"ha":389,"x_min":89,"x_max":342,"o":"m 89 864 l 283 1022 q 342 938 338 981 q 259 873 308 906 q 144 807 210 840 q 89 864 119 825 z "},"µ":{"ha":833,"x_min":21,"x_max":811,"o":"m 275 594 l 276 294 q 303 140 276 189 q 415 92 329 92 q 506 109 456 92 q 588 151 556 126 q 578 600 582 447 q 450 617 492 600 l 456 689 q 641 710 574 710 q 726 707 708 710 q 718 633 726 674 q 708 594 710 593 l 692 99 q 811 82 765 94 l 808 11 q 621 -10 740 -10 q 590 90 594 42 q 465 11 522 39 q 389 -17 407 -17 q 268 8 314 -17 l 264 -285 q 225 -318 244 -311 l 44 -318 l 40 -271 q 161 -237 100 -249 q 147 603 153 318 q 21 617 51 608 l 26 689 q 210 710 144 710 q 293 707 275 710 q 285 633 293 674 q 275 594 276 593 z "},"¶":{"ha":913,"x_min":90,"x_max":836,"o":"m 625 981 q 831 960 760 981 q 836 888 836 921 q 714 871 790 875 q 707 441 713 768 q 700 -64 701 114 q 825 -97 756 -75 l 821 -146 l 592 -146 l 582 867 q 571 912 578 863 q 564 978 564 961 q 625 981 582 981 m 394 -64 l 386 379 q 163 463 236 379 q 90 684 90 547 q 171 900 90 821 q 392 979 251 979 l 475 981 q 531 978 514 981 q 522 904 531 943 q 513 867 514 865 q 503 -146 507 393 l 274 -146 l 269 -97 q 394 -64 333 -75 z "},"·":{"ha":289,"x_min":71,"x_max":219,"o":"m 217 333 q 147 325 181 325 q 79 329 113 325 q 71 408 71 368 q 74 467 71 447 q 138 474 104 474 q 211 471 172 474 q 219 401 219 435 q 217 333 219 367 z "},"¸":{"ha":458,"x_min":236,"x_max":411,"o":"m 322 -171 q 236 -114 322 -144 q 285 31 236 -78 q 308 35 293 35 q 333 31 322 35 q 300 -72 311 -44 q 411 -159 411 -119 q 373 -242 411 -199 q 286 -303 335 -286 l 271 -285 q 289 -244 276 -269 q 322 -171 322 -181 z "},"¹":{"ha":476,"x_min":28,"x_max":365,"o":"m 50 440 l 183 464 q 174 933 178 774 q 104 906 146 918 q 46 894 63 894 q 28 975 28 931 l 238 1039 q 290 1007 279 1026 q 278 472 289 969 l 365 465 q 349 386 365 424 l 50 386 l 50 440 z "},"º":{"ha":599,"x_min":68,"x_max":521,"o":"m 157 735 q 157 685 157 735 q 186 583 157 636 q 295 531 215 531 q 403 582 375 531 q 432 728 432 633 q 403 877 432 824 q 307 931 375 931 q 196 910 239 931 q 157 735 157 833 m 68 726 q 124 921 68 851 q 299 990 181 990 q 469 927 417 990 q 521 739 521 864 q 465 542 521 614 q 297 471 410 471 q 68 726 68 471 z "},"»":{"ha":665,"x_min":97,"x_max":589,"o":"m 586 375 q 589 358 589 371 q 588 340 589 344 q 475 190 501 221 q 414 125 449 160 q 347 172 394 131 q 479 358 457 333 q 442 406 464 375 l 347 544 q 414 592 386 589 q 524 465 479 528 l 586 375 m 336 375 q 339 358 339 371 q 338 340 339 344 q 225 190 251 221 q 164 125 199 160 q 97 172 144 131 q 229 358 207 333 q 192 406 214 375 l 97 544 q 164 592 136 589 q 274 465 229 528 l 336 375 z "},"¼":{"ha":1190,"x_min":28,"x_max":1154,"o":"m 972 961 l 247 -17 q 194 24 231 -10 l 882 1022 q 972 961 931 1003 m 954 249 l 951 565 l 753 249 l 954 249 m 1154 249 q 1144 167 1154 192 l 1047 167 l 1040 4 q 999 1 1015 1 q 964 6 982 1 l 956 167 l 661 167 q 650 240 650 193 l 910 657 l 1058 657 q 1049 249 1054 521 l 1154 249 m 50 440 l 183 464 q 174 933 178 774 q 104 906 146 918 q 46 894 63 894 q 28 975 28 931 l 238 1039 q 290 1007 279 1026 q 278 472 289 969 l 365 465 q 349 386 365 424 l 50 386 l 50 440 z "},"½":{"ha":1176,"x_min":28,"x_max":1147,"o":"m 972 961 l 247 -17 q 194 24 231 -10 l 882 1022 q 972 961 931 1003 m 50 440 l 183 464 q 174 933 178 774 q 104 906 146 918 q 46 894 63 894 q 28 975 28 931 l 238 1039 q 290 1007 279 1026 q 278 472 289 969 l 365 465 q 349 386 365 424 l 50 386 l 50 440 m 1147 -18 l 749 -18 q 738 60 738 4 q 972 334 926 267 q 1018 458 1018 401 q 992 540 1018 515 q 920 564 965 564 q 857 558 875 564 l 833 439 l 778 442 q 761 578 761 490 q 935 643 826 643 q 1093 599 1044 643 q 1142 481 1142 554 q 1099 344 1142 408 q 872 72 1057 279 l 875 60 l 1072 61 q 1085 153 1078 128 l 1135 149 q 1147 -18 1147 63 z "},"¾":{"ha":1163,"x_min":35,"x_max":1126,"o":"m 944 961 l 219 -17 q 167 24 203 -10 l 854 1022 q 944 961 903 1003 m 926 249 l 924 565 l 725 249 l 926 249 m 1126 249 q 1117 167 1126 192 l 1019 167 l 1013 4 q 972 1 988 1 q 936 6 956 1 l 928 167 l 633 167 q 622 240 622 193 l 882 657 l 1031 657 q 1021 249 1026 521 l 1126 249 m 196 676 q 139 672 193 676 q 136 703 136 676 q 138 743 136 731 l 181 749 q 272 785 233 754 q 310 860 310 815 q 190 964 310 964 q 146 957 174 964 l 122 836 l 67 840 q 50 976 50 897 q 117 1021 71 1000 q 199 1042 164 1042 q 356 999 294 1042 q 418 894 418 956 q 294 736 418 789 q 400 699 354 736 q 446 590 446 663 q 360 433 446 493 q 191 372 275 372 q 35 397 107 372 q 47 469 38 451 q 149 454 118 454 q 200 457 181 454 q 254 469 219 460 q 312 506 289 479 q 335 577 335 532 q 297 649 335 622 q 196 676 258 676 z "},"¿":{"ha":676,"x_min":83,"x_max":572,"o":"m 300 113 q 281 90 300 113 q 232 4 263 67 q 201 -119 201 -58 q 240 -217 201 -179 q 336 -254 279 -254 q 435 -237 393 -254 l 467 -94 l 547 -97 q 572 -251 567 -151 q 322 -335 465 -335 q 83 -101 83 -335 q 115 19 83 -43 q 186 128 147 82 q 321 350 300 261 q 326 454 326 371 q 386 458 351 458 q 418 343 408 408 q 374 223 410 286 q 300 113 338 160 m 283 678 q 353 686 319 686 q 421 682 388 686 q 429 603 429 643 q 426 544 429 564 q 363 538 396 538 q 289 540 331 538 q 281 618 281 576 q 283 678 281 660 z "},"À":{"ha":1026,"x_min":7,"x_max":1019,"o":"m 224 943 q 360 962 249 951 q 562 972 471 972 q 703 964 653 972 q 704 951 704 958 q 697 915 704 943 q 685 879 689 888 q 622 863 674 868 l 888 94 l 1019 83 q 996 0 1019 44 l 676 0 l 672 49 q 765 78 704 65 l 694 276 l 307 276 l 242 94 l 354 83 q 331 0 354 44 l 11 0 l 7 49 q 122 79 61 68 l 392 867 q 218 900 268 881 l 224 943 m 585 586 l 511 858 q 488 860 503 860 l 413 576 l 332 365 l 669 365 l 585 586 m 597 1131 q 542 1074 565 1093 q 344 1204 419 1132 q 360 1244 346 1224 q 403 1289 375 1265 l 597 1131 z "},"Á":{"ha":1026,"x_min":7,"x_max":1019,"o":"m 224 943 q 360 962 249 951 q 562 972 471 972 q 703 964 653 972 q 704 951 704 958 q 697 915 704 943 q 685 879 689 888 q 622 863 674 868 l 888 94 l 1019 83 q 996 0 1019 44 l 676 0 l 672 49 q 765 78 704 65 l 694 276 l 307 276 l 242 94 l 354 83 q 331 0 354 44 l 11 0 l 7 49 q 122 79 61 68 l 392 867 q 218 900 268 881 l 224 943 m 585 586 l 511 858 q 488 860 503 860 l 413 576 l 332 365 l 669 365 l 585 586 m 414 1131 l 608 1289 q 667 1204 663 1247 q 584 1140 633 1172 q 469 1074 535 1107 q 414 1131 444 1092 z "},"Â":{"ha":1026,"x_min":7,"x_max":1019,"o":"m 224 943 q 360 962 249 951 q 562 972 471 972 q 703 964 653 972 q 704 951 704 958 q 697 915 704 943 q 685 879 689 888 q 622 863 674 868 l 888 94 l 1019 83 q 996 0 1019 44 l 676 0 l 672 49 q 765 78 704 65 l 694 276 l 307 276 l 242 94 l 354 83 q 331 0 354 44 l 11 0 l 7 49 q 122 79 61 68 l 392 867 q 218 900 268 881 l 224 943 m 585 586 l 511 858 q 488 860 503 860 l 413 576 l 332 365 l 669 365 l 585 586 m 513 1289 l 708 1131 q 663 1081 694 1111 q 641 1091 661 1082 q 603 1110 621 1100 q 513 1172 549 1139 q 383 1092 464 1126 q 363 1081 364 1082 q 317 1131 329 1111 l 513 1289 z "},"Ã":{"ha":1026,"x_min":7,"x_max":1019,"o":"m 224 943 q 360 962 249 951 q 562 972 471 972 q 703 964 653 972 q 704 951 704 958 q 697 915 704 943 q 685 879 689 888 q 622 863 674 868 l 888 94 l 1019 83 q 996 0 1019 44 l 676 0 l 672 49 q 765 78 704 65 l 694 276 l 307 276 l 242 94 l 354 83 q 331 0 354 44 l 11 0 l 7 49 q 122 79 61 68 l 392 867 q 218 900 268 881 l 224 943 m 585 586 l 511 858 q 488 860 503 860 l 413 576 l 332 365 l 669 365 l 585 586 m 397 1150 q 281 1099 357 1124 l 257 1139 q 348 1222 294 1190 q 411 1254 401 1254 q 512 1222 438 1254 q 601 1186 586 1190 q 718 1242 681 1229 l 742 1201 q 635 1108 704 1150 q 619 1097 629 1106 q 588 1082 597 1082 q 517 1110 560 1092 q 397 1150 421 1150 z "},"Ä":{"ha":1026,"x_min":7,"x_max":1019,"o":"m 224 943 q 360 962 249 951 q 562 972 471 972 q 703 964 653 972 q 704 951 704 958 q 697 915 704 943 q 685 879 689 888 q 622 863 674 868 l 888 94 l 1019 83 q 996 0 1019 44 l 676 0 l 672 49 q 765 78 704 65 l 694 276 l 307 276 l 242 94 l 354 83 q 331 0 354 44 l 11 0 l 7 49 q 122 79 61 68 l 392 867 q 218 900 268 881 l 224 943 m 585 586 l 511 858 q 488 860 503 860 l 413 576 l 332 365 l 669 365 l 585 586 m 446 1108 q 387 1103 418 1103 q 336 1106 356 1103 q 329 1156 329 1131 q 332 1215 329 1182 q 389 1219 353 1219 q 442 1218 425 1219 q 447 1155 447 1188 q 446 1108 447 1122 m 675 1108 q 616 1103 647 1103 q 565 1106 585 1103 q 558 1156 558 1131 q 561 1215 558 1182 q 618 1219 582 1219 q 671 1218 654 1219 q 676 1155 676 1188 q 675 1108 676 1122 z "},"Å":{"ha":1026,"x_min":7,"x_max":1019,"o":"m 499 1333 q 480 1333 499 1333 q 438 1306 461 1333 q 415 1234 415 1279 q 438 1163 415 1189 q 499 1136 461 1136 q 560 1163 538 1136 q 583 1234 583 1189 q 560 1306 583 1279 q 499 1333 538 1333 m 500 1397 q 534 1397 500 1397 q 617 1353 568 1397 q 667 1233 667 1308 q 618 1116 667 1157 q 500 1075 569 1075 q 381 1117 431 1075 q 331 1233 331 1158 q 381 1353 331 1308 q 500 1397 432 1397 m 224 943 q 360 962 249 951 q 562 972 471 972 q 703 964 653 972 q 704 951 704 958 q 697 915 704 943 q 685 879 689 888 q 622 863 674 868 l 888 94 l 1019 83 q 996 0 1019 44 l 676 0 l 672 49 q 765 78 704 65 l 694 276 l 307 276 l 242 94 l 354 83 q 331 0 354 44 l 11 0 l 7 49 q 122 79 61 68 l 392 867 q 218 900 268 881 l 224 943 m 585 586 l 511 858 q 488 860 503 860 l 413 576 l 332 365 l 669 365 l 585 586 z "},"Æ":{"ha":1283,"x_min":-42,"x_max":1192,"o":"m 622 365 l 614 874 l 338 365 l 622 365 m 628 81 q 624 276 628 168 l 294 276 l 193 94 l 306 83 q 282 0 306 44 l -37 0 l -42 49 q 74 79 13 68 l 501 886 l 385 919 l 392 971 l 1168 971 q 1171 917 1171 953 q 1151 751 1171 840 q 1071 744 1121 744 l 1038 876 l 753 876 q 746 542 753 876 l 965 542 l 976 642 q 1060 618 1015 642 l 1060 354 l 1011 350 q 983 450 990 410 l 746 450 q 740 93 743 329 l 1058 93 l 1092 224 l 1172 218 q 1192 78 1192 139 q 1189 0 1192 18 l 514 0 l 510 49 q 628 81 571 71 z "},"Ç":{"ha":821,"x_min":28,"x_max":757,"o":"m 436 -18 q 28 494 28 -18 q 127 864 28 738 q 444 990 226 990 q 756 893 619 990 q 736 696 756 815 q 656 692 717 692 l 614 864 q 456 882 515 882 q 263 851 346 882 l 236 842 q 215 801 228 828 q 183 688 203 774 q 163 511 163 601 q 227 200 163 315 q 433 85 292 85 q 586 106 535 85 q 626 126 600 113 l 656 293 l 736 289 q 757 57 757 146 q 631 8 728 35 q 436 -18 535 -18 m 453 -171 q 367 -114 453 -144 q 415 31 367 -78 q 438 35 424 35 q 464 31 453 35 q 431 -72 442 -44 q 542 -159 542 -119 q 503 -242 542 -199 q 417 -303 465 -286 l 401 -285 q 419 -244 407 -269 q 453 -171 453 -181 z "},"È":{"ha":826,"x_min":42,"x_max":742,"o":"m 303 876 l 296 542 l 515 542 l 526 642 q 610 618 565 642 l 610 354 l 561 350 q 533 450 540 410 l 296 450 q 290 93 293 329 l 608 93 l 642 224 l 722 218 q 742 78 742 139 q 739 0 742 18 l 64 0 l 60 49 q 178 81 121 71 q 164 886 169 622 q 42 919 133 889 l 49 972 l 718 972 q 721 917 721 954 q 701 751 721 840 q 621 744 671 744 l 588 876 l 303 876 m 485 1131 q 429 1074 454 1093 q 232 1204 307 1132 q 248 1244 233 1224 q 290 1289 263 1265 l 485 1131 z "},"É":{"ha":826,"x_min":42,"x_max":742,"o":"m 314 1131 l 508 1289 q 567 1204 563 1247 q 484 1140 533 1172 q 369 1074 435 1107 q 314 1131 344 1092 m 303 876 l 296 542 l 515 542 l 526 642 q 610 618 565 642 l 610 354 l 561 350 q 533 450 540 410 l 296 450 q 290 93 293 329 l 608 93 l 642 224 l 722 218 q 742 78 742 139 q 739 0 742 18 l 64 0 l 60 49 q 178 81 121 71 q 164 886 169 622 q 42 919 133 889 l 49 972 l 718 972 q 721 917 721 954 q 701 751 721 840 q 621 744 671 744 l 588 876 l 303 876 z "},"Ê":{"ha":826,"x_min":42,"x_max":742,"o":"m 303 876 l 296 542 l 515 542 l 526 642 q 610 618 565 642 l 610 354 l 561 350 q 533 450 540 410 l 296 450 q 290 93 293 329 l 608 93 l 642 224 l 722 218 q 742 78 742 139 q 739 0 742 18 l 64 0 l 60 49 q 178 81 121 71 q 164 886 169 622 q 42 919 133 889 l 49 972 l 718 972 q 721 917 721 954 q 701 751 721 840 q 621 744 671 744 l 588 876 l 303 876 m 392 1289 l 588 1131 q 542 1081 579 1118 q 520 1091 540 1082 q 482 1110 500 1100 q 392 1172 428 1139 q 264 1092 343 1126 q 242 1081 243 1082 q 196 1131 208 1111 l 392 1289 z "},"Ë":{"ha":826,"x_min":42,"x_max":742,"o":"m 303 876 l 296 542 l 515 542 l 526 642 q 610 618 565 642 l 610 354 l 561 350 q 533 450 540 410 l 296 450 q 290 93 293 329 l 608 93 l 642 224 l 722 218 q 742 78 742 139 q 739 0 742 18 l 64 0 l 60 49 q 178 81 121 71 q 164 886 169 622 q 42 919 133 889 l 49 972 l 718 972 q 721 917 721 954 q 701 751 721 840 q 621 744 671 744 l 588 876 l 303 876 m 343 1108 q 284 1103 315 1103 q 233 1106 253 1103 q 226 1156 226 1131 q 229 1215 226 1182 q 286 1219 250 1219 q 339 1218 322 1219 q 344 1155 344 1188 q 343 1108 344 1122 m 572 1108 q 513 1103 544 1103 q 463 1106 482 1103 q 456 1156 456 1131 q 458 1215 456 1182 q 515 1219 479 1219 q 568 1218 551 1219 q 574 1155 574 1188 q 572 1108 574 1122 z "},"Ì":{"ha":528,"x_min":76,"x_max":451,"o":"m 339 883 l 325 94 l 442 83 q 418 0 442 44 l 99 0 l 94 49 q 221 82 158 71 q 212 454 218 172 q 201 890 206 736 q 76 924 146 901 l 81 972 l 428 972 q 451 889 451 928 q 339 883 381 883 m 350 1131 q 294 1074 318 1093 q 97 1204 172 1132 q 113 1244 99 1224 q 156 1289 128 1265 l 350 1131 z "},"Í":{"ha":536,"x_min":76,"x_max":460,"o":"m 325 94 q 442 83 388 92 q 418 0 442 44 l 99 0 l 94 49 q 221 82 161 69 q 212 454 218 172 q 201 890 206 736 q 76 924 140 901 l 81 972 l 428 972 q 451 889 451 928 l 339 883 l 325 94 m 207 1131 l 401 1289 q 460 1204 456 1247 q 377 1140 426 1172 q 263 1074 328 1107 q 207 1131 238 1092 z "},"Î":{"ha":544,"x_min":76,"x_max":468,"o":"m 333 94 q 450 83 396 92 q 426 0 450 44 l 107 0 l 103 49 q 229 82 169 69 q 220 454 226 172 q 210 890 214 736 q 85 924 149 901 l 89 972 l 436 972 q 460 889 460 928 l 347 883 l 333 94 m 272 1289 l 468 1131 q 422 1081 460 1118 q 401 1091 421 1082 q 363 1110 381 1100 q 272 1172 308 1139 q 144 1092 224 1126 q 122 1081 124 1082 q 76 1131 89 1111 l 272 1289 z "},"Ï":{"ha":528,"x_min":76,"x_max":451,"o":"m 325 94 q 442 83 388 92 q 418 0 442 44 l 99 0 l 94 49 q 221 82 161 69 q 212 454 218 172 q 201 890 206 736 q 76 924 140 901 l 81 972 l 428 972 q 451 889 451 928 l 339 883 l 325 94 m 207 1108 q 148 1103 179 1103 q 97 1106 117 1103 q 90 1156 90 1131 q 93 1215 90 1182 q 150 1219 114 1219 q 203 1218 186 1219 q 208 1155 208 1188 q 207 1108 208 1122 m 436 1108 q 377 1103 408 1103 q 326 1106 346 1103 q 319 1156 319 1131 q 322 1215 319 1182 q 379 1219 343 1219 q 432 1218 415 1219 q 438 1155 438 1188 q 436 1108 438 1122 z "},"Ð":{"ha":925,"x_min":38,"x_max":869,"o":"m 869 508 q 726 82 869 194 q 597 17 667 35 q 415 0 528 0 l 63 0 l 58 49 q 115 67 64 53 q 176 81 167 81 q 171 450 174 203 l 40 454 q 38 492 38 467 l 40 536 q 169 543 107 540 q 163 886 164 769 q 40 919 100 894 q 47 972 43 967 l 397 972 q 626 946 542 972 q 772 849 710 919 q 869 508 869 742 m 735 497 q 665 780 735 685 q 429 875 594 875 l 288 875 q 281 542 282 653 l 467 536 q 469 491 469 515 q 467 454 469 467 q 331 447 394 447 l 279 447 q 274 94 276 331 l 419 94 q 672 180 610 94 q 735 497 735 265 z "},"Ñ":{"ha":1090,"x_min":42,"x_max":1056,"o":"m 303 800 l 289 94 l 406 83 q 382 0 406 44 l 63 0 l 58 49 q 186 82 133 74 q 177 454 183 172 q 167 890 171 736 q 42 924 114 899 l 46 972 l 321 972 l 828 163 l 804 890 q 681 924 753 900 l 685 972 l 1032 972 q 1056 889 1056 928 q 944 883 986 883 l 931 0 l 796 0 l 303 800 m 571 1150 q 454 1099 531 1124 l 431 1139 q 522 1222 468 1190 q 585 1254 575 1254 q 685 1222 611 1254 q 775 1186 760 1190 q 892 1242 854 1229 l 915 1201 q 808 1108 878 1150 q 793 1097 803 1106 q 761 1082 771 1082 q 690 1110 733 1092 q 571 1150 594 1150 z "},"Ò":{"ha":899,"x_min":28,"x_max":871,"o":"m 454 90 q 735 485 735 90 q 454 881 735 881 q 239 842 322 881 q 164 499 164 693 q 228 198 164 306 q 454 90 293 90 m 28 481 q 28 603 28 481 q 128 858 28 725 q 456 990 229 990 q 777 869 683 990 q 871 501 871 747 q 770 119 871 256 q 449 -17 669 -17 q 128 110 229 -17 q 28 481 28 236 m 547 1131 q 492 1074 515 1093 q 294 1204 369 1132 q 310 1244 296 1224 q 353 1289 325 1265 l 547 1131 z "},"Ó":{"ha":899,"x_min":28,"x_max":871,"o":"m 454 90 q 735 485 735 90 q 454 881 735 881 q 239 842 322 881 q 164 499 164 693 q 228 198 164 306 q 454 90 293 90 m 28 481 q 28 603 28 481 q 128 858 28 725 q 456 990 229 990 q 777 869 683 990 q 871 501 871 747 q 770 119 871 256 q 449 -17 669 -17 q 128 110 229 -17 q 28 481 28 236 m 365 1131 l 560 1289 q 618 1204 614 1247 q 535 1140 585 1172 q 421 1074 486 1107 q 365 1131 396 1092 z "},"Ô":{"ha":899,"x_min":28,"x_max":871,"o":"m 454 90 q 735 485 735 90 q 454 881 735 881 q 239 842 322 881 q 164 499 164 693 q 228 198 164 306 q 454 90 293 90 m 28 481 q 28 603 28 481 q 128 858 28 725 q 456 990 229 990 q 777 869 683 990 q 871 501 871 747 q 770 119 871 256 q 449 -17 669 -17 q 128 110 229 -17 q 28 481 28 236 m 450 1289 l 646 1131 q 600 1081 632 1111 q 578 1091 599 1082 q 540 1110 558 1100 q 450 1172 486 1139 q 321 1092 401 1126 q 300 1081 301 1082 q 254 1131 267 1111 l 450 1289 z "},"Õ":{"ha":899,"x_min":28,"x_max":871,"o":"m 454 90 q 735 485 735 90 q 454 881 735 881 q 239 842 322 881 q 164 499 164 693 q 228 198 164 306 q 454 90 293 90 m 28 481 q 28 603 28 481 q 128 858 28 725 q 456 990 229 990 q 777 869 683 990 q 871 501 871 747 q 770 119 871 256 q 449 -17 669 -17 q 128 110 229 -17 q 28 481 28 236 m 465 1150 q 349 1099 425 1124 l 325 1139 q 416 1222 363 1190 q 479 1254 469 1254 q 580 1222 506 1254 q 669 1186 654 1190 q 786 1242 749 1229 l 810 1201 q 703 1108 772 1150 q 688 1097 697 1106 q 656 1082 665 1082 q 585 1110 628 1092 q 465 1150 489 1150 z "},"Ö":{"ha":899,"x_min":28,"x_max":871,"o":"m 454 90 q 735 485 735 90 q 454 881 735 881 q 239 842 322 881 q 164 499 164 693 q 228 198 164 306 q 454 90 293 90 m 28 481 q 28 603 28 481 q 128 858 28 725 q 456 990 229 990 q 777 869 683 990 q 871 501 871 747 q 770 119 871 256 q 449 -17 669 -17 q 128 110 229 -17 q 28 481 28 236 m 393 1108 q 334 1103 365 1103 q 283 1106 303 1103 q 276 1156 276 1131 q 279 1215 276 1182 q 336 1219 300 1219 q 389 1218 372 1219 q 394 1155 394 1188 q 393 1108 394 1122 m 622 1108 q 563 1103 594 1103 q 513 1106 532 1103 q 506 1156 506 1131 q 508 1215 506 1182 q 565 1219 529 1219 q 618 1218 601 1219 q 624 1155 624 1188 q 622 1108 624 1122 z "},"×":{"ha":731,"x_min":83,"x_max":647,"o":"m 83 571 q 143 631 106 604 q 292 506 228 572 q 367 428 329 465 l 582 635 q 643 575 615 611 q 536 446 592 501 l 440 353 l 647 136 q 588 76 625 104 q 458 182 513 128 q 364 279 439 199 l 147 72 q 89 132 117 93 q 192 258 140 206 q 290 354 244 311 l 83 571 z "},"Ø":{"ha":899,"x_min":28,"x_max":871,"o":"m 454 990 q 581 978 525 990 l 628 1111 q 718 1076 685 1099 l 671 950 q 824 788 778 900 q 871 497 871 676 q 770 119 871 256 q 454 -17 669 -17 q 319 -1 383 -17 l 269 -140 q 196 -110 219 -133 l 243 24 q 28 478 28 122 q 128 858 28 725 q 454 990 229 990 m 164 497 q 283 139 164 228 l 542 868 q 454 881 503 881 q 239 842 322 881 q 164 497 164 693 m 454 90 q 735 481 735 90 q 625 824 735 729 l 358 103 q 454 90 400 90 z "},"Ù":{"ha":1047,"x_min":33,"x_max":1014,"o":"m 539 -17 q 401 -4 460 -17 q 289 42 343 8 q 173 307 176 108 q 158 890 169 506 q 33 924 103 901 l 38 972 l 386 972 q 410 889 410 928 q 294 883 369 886 q 292 400 292 722 q 356 158 292 226 q 540 90 421 90 q 630 101 592 90 q 706 144 668 113 q 781 403 781 208 q 768 883 781 404 q 643 924 660 915 l 647 972 l 992 972 q 1014 890 1014 915 q 901 889 926 890 q 895 574 899 778 q 890 307 892 371 q 793 66 886 149 q 539 -17 700 -17 m 625 1131 q 569 1074 593 1093 q 372 1204 447 1132 q 388 1244 374 1224 q 431 1289 403 1265 l 625 1131 z "},"Ú":{"ha":1047,"x_min":33,"x_max":1014,"o":"m 539 -17 q 401 -4 460 -17 q 289 42 343 8 q 173 307 176 108 q 158 890 169 506 q 33 924 103 901 l 38 972 l 386 972 q 410 889 410 928 q 294 883 369 886 q 292 400 292 722 q 356 158 292 226 q 540 90 421 90 q 630 101 592 90 q 706 144 668 113 q 781 403 781 208 q 768 883 781 404 q 643 924 660 915 l 647 972 l 992 972 q 1014 890 1014 915 q 901 889 926 890 q 895 574 899 778 q 890 307 892 371 q 793 66 886 149 q 539 -17 700 -17 m 451 1131 l 646 1289 q 704 1204 700 1247 q 622 1140 671 1172 q 507 1074 572 1107 q 451 1131 482 1092 z "},"Û":{"ha":1047,"x_min":33,"x_max":1014,"o":"m 1014 890 q 901 889 926 890 q 895 574 899 778 q 890 307 892 371 q 793 66 886 149 q 539 -17 700 -17 q 401 -4 460 -17 q 289 42 343 8 q 174 306 176 108 q 158 890 169 506 q 33 924 97 901 l 38 972 l 386 972 q 410 889 410 928 q 294 883 410 889 q 292 400 292 722 q 356 158 292 226 q 540 90 421 90 q 630 101 592 90 q 706 144 668 113 q 781 403 781 208 q 768 883 781 404 q 643 924 660 915 l 647 972 l 992 972 q 1014 890 1014 915 m 526 1289 l 722 1131 q 676 1081 714 1118 q 655 1091 675 1082 q 617 1110 635 1100 q 526 1172 563 1139 q 397 1092 478 1126 q 376 1081 378 1082 q 331 1131 343 1111 l 526 1289 z "},"Ü":{"ha":1047,"x_min":33,"x_max":1014,"o":"m 1014 890 q 901 889 926 890 q 895 574 899 778 q 890 307 892 371 q 793 66 886 149 q 539 -17 700 -17 q 401 -4 460 -17 q 289 42 343 8 q 174 306 176 108 q 158 890 169 506 q 33 924 97 901 l 38 972 l 386 972 q 410 889 410 928 q 294 883 410 889 q 292 400 292 722 q 356 158 292 226 q 540 90 421 90 q 630 101 592 90 q 706 144 668 113 q 781 403 781 208 q 768 883 781 404 q 643 924 660 915 l 647 972 l 992 972 q 1014 890 1014 915 m 479 1108 q 420 1103 451 1103 q 369 1106 389 1103 q 363 1156 363 1131 q 365 1215 363 1182 q 422 1219 386 1219 q 475 1218 458 1219 q 481 1155 481 1188 q 479 1108 481 1122 m 708 1108 q 649 1103 681 1103 q 599 1106 618 1103 q 592 1156 592 1131 q 594 1215 592 1182 q 651 1219 615 1219 q 704 1218 688 1219 q 710 1155 710 1188 q 708 1108 710 1122 z "},"Ý":{"ha":940,"x_min":7,"x_max":933,"o":"m 539 347 l 533 94 l 650 83 q 628 0 650 42 l 307 0 l 303 49 q 431 82 388 78 q 424 347 429 168 l 132 890 q 7 924 76 901 l 11 972 l 372 972 q 396 889 396 928 q 271 881 328 885 l 478 460 l 493 460 l 700 890 q 569 924 644 899 l 574 972 l 910 972 q 933 889 933 928 q 815 881 872 885 l 539 347 m 449 1125 l 643 1283 q 701 1199 697 1242 q 619 1134 668 1167 q 504 1068 569 1101 q 449 1125 479 1086 z "},"Þ":{"ha":804,"x_min":28,"x_max":763,"o":"m 468 790 q 763 499 763 790 q 693 306 763 394 q 598 233 658 261 q 475 204 538 204 q 279 250 413 204 q 276 94 276 147 l 393 83 q 369 0 393 44 l 50 0 l 46 49 q 174 82 111 71 q 151 890 160 621 q 28 924 100 900 l 32 972 l 379 972 q 403 889 403 928 q 292 883 333 883 q 289 757 289 836 q 468 790 431 790 m 451 299 q 589 350 538 299 q 640 492 640 401 q 458 688 640 688 q 288 671 381 688 q 283 494 285 608 q 281 343 282 379 q 451 299 399 299 z "},"ß":{"ha":906,"x_min":35,"x_max":864,"o":"m 150 689 q 233 944 158 849 q 446 1040 307 1040 q 665 984 585 1040 q 746 844 746 928 q 679 699 746 749 q 622 660 651 678 q 556 557 556 617 q 664 439 556 490 q 755 392 710 417 q 832 322 800 367 q 864 217 864 278 q 588 -17 864 -17 q 446 6 507 -17 q 467 179 446 106 l 539 185 l 556 60 q 588 54 565 54 q 690 93 643 54 q 736 200 736 132 q 628 321 736 271 q 539 366 583 342 q 463 434 494 390 q 432 536 432 478 q 461 635 432 594 q 524 696 490 675 q 588 751 558 717 q 617 832 617 786 q 565 908 617 878 q 437 939 514 939 q 317 883 360 939 q 274 697 275 826 q 264 94 269 493 l 382 89 q 358 0 382 44 l 39 0 l 35 49 q 160 82 99 71 q 150 610 154 431 l 43 610 l 39 658 q 92 676 56 667 q 150 689 129 686 z "},"à":{"ha":749,"x_min":57,"x_max":721,"o":"m 483 864 q 428 807 451 826 q 231 938 306 865 q 247 978 232 957 q 289 1022 261 999 l 483 864 m 608 454 l 601 96 q 721 76 661 92 l 718 28 q 638 3 696 17 q 525 -10 581 -10 q 497 86 500 40 q 275 -18 339 -18 q 117 35 176 -18 q 57 182 57 88 q 324 407 57 400 q 481 411 479 411 l 479 458 q 443 597 476 554 q 324 639 410 639 q 246 622 288 639 l 213 483 q 189 482 206 482 l 132 486 q 108 651 110 546 q 229 694 135 665 q 350 722 324 722 q 550 660 492 722 q 608 454 608 597 m 306 76 q 492 167 346 76 l 485 340 q 326 325 390 332 q 224 288 263 318 q 185 194 185 258 q 306 76 185 76 z "},"á":{"ha":749,"x_min":57,"x_max":721,"o":"m 608 454 l 601 96 q 721 76 661 92 l 718 28 q 638 3 696 17 q 525 -10 581 -10 q 497 86 500 40 q 275 -18 339 -18 q 117 35 176 -18 q 57 182 57 88 q 324 407 57 400 q 481 411 479 411 l 479 458 q 443 597 476 554 q 324 639 410 639 q 246 622 288 639 l 213 483 q 189 482 206 482 l 132 486 q 108 651 110 546 q 229 694 135 665 q 350 722 324 722 q 550 660 492 722 q 608 454 608 597 m 306 76 q 492 167 346 76 l 485 340 q 326 325 390 332 q 224 288 263 318 q 185 194 185 258 q 306 76 185 76 m 296 864 l 490 1022 q 549 938 544 981 q 466 873 515 906 q 351 807 417 840 q 296 864 326 825 z "},"â":{"ha":749,"x_min":57,"x_max":721,"o":"m 393 1022 l 589 864 q 543 814 575 844 q 522 824 542 815 q 483 843 501 833 q 393 906 429 872 q 264 825 344 860 q 243 814 244 815 q 197 864 210 844 l 393 1022 m 608 454 l 601 96 q 721 76 661 92 l 718 28 q 638 3 696 17 q 525 -10 581 -10 q 497 86 500 40 q 275 -18 339 -18 q 117 35 176 -18 q 57 182 57 88 q 324 407 57 400 q 481 411 479 411 l 479 458 q 443 597 476 554 q 324 639 410 639 q 246 622 288 639 l 213 483 q 189 482 206 482 l 132 486 q 108 651 110 546 q 229 694 135 665 q 350 722 324 722 q 550 660 492 722 q 608 454 608 597 m 306 76 q 492 167 346 76 l 485 340 q 326 325 390 332 q 224 288 263 318 q 185 194 185 258 q 306 76 185 76 z "},"ã":{"ha":749,"x_min":57,"x_max":721,"o":"m 257 883 q 140 832 217 857 l 117 872 q 208 956 154 924 q 271 988 261 988 q 372 956 297 988 q 461 919 446 924 q 578 975 540 963 l 601 935 q 494 842 564 883 q 478 831 489 839 q 447 815 457 815 q 376 843 419 825 q 257 883 281 883 m 608 454 l 601 96 q 721 76 661 92 l 718 28 q 638 3 696 17 q 525 -10 581 -10 q 497 86 500 40 q 275 -18 339 -18 q 117 35 176 -18 q 57 182 57 88 q 324 407 57 400 q 481 411 479 411 l 479 458 q 443 597 476 554 q 324 639 410 639 q 246 622 288 639 l 213 483 q 189 482 206 482 l 132 486 q 108 651 110 546 q 229 694 135 665 q 350 722 324 722 q 550 660 492 722 q 608 454 608 597 m 306 76 q 492 167 346 76 l 485 340 q 326 325 390 332 q 224 288 263 318 q 185 194 185 258 q 306 76 185 76 z "},"ä":{"ha":749,"x_min":57,"x_max":721,"o":"m 310 842 q 251 836 282 836 q 200 839 219 836 q 193 890 193 864 q 196 949 193 915 q 253 953 217 953 q 306 951 289 953 q 311 888 311 921 q 310 842 311 856 m 539 842 q 480 836 511 836 q 429 839 449 836 q 422 890 422 864 q 425 949 422 915 q 482 953 446 953 q 535 951 518 953 q 540 888 540 921 q 539 842 540 856 m 608 454 l 601 96 q 721 76 661 92 l 718 28 q 638 3 696 17 q 525 -10 581 -10 q 497 86 500 40 q 275 -18 339 -18 q 117 35 176 -18 q 57 182 57 88 q 324 407 57 400 q 481 411 479 411 l 479 458 q 443 597 476 554 q 324 639 410 639 q 246 622 288 639 l 213 483 q 189 482 206 482 l 132 486 q 108 651 110 546 q 229 694 135 665 q 350 722 324 722 q 550 660 492 722 q 608 454 608 597 m 306 76 q 492 167 346 76 l 485 340 q 326 325 390 332 q 224 288 263 318 q 185 194 185 258 q 306 76 185 76 z "},"å":{"ha":749,"x_min":57,"x_max":721,"o":"m 358 1051 q 339 1051 358 1051 q 297 1024 319 1051 q 274 952 274 997 q 297 881 274 907 q 358 854 319 854 q 419 881 396 854 q 442 952 442 907 q 419 1024 442 997 q 358 1051 396 1051 m 358 1115 q 392 1115 358 1115 q 476 1071 426 1115 q 525 951 525 1026 q 476 834 525 875 q 358 793 428 793 q 239 835 289 793 q 189 951 189 876 q 240 1071 189 1026 q 358 1115 290 1115 m 608 454 l 601 96 q 721 76 661 92 l 718 28 q 638 3 696 17 q 525 -10 581 -10 q 497 86 500 40 q 275 -18 339 -18 q 117 35 176 -18 q 57 182 57 88 q 324 407 57 400 q 481 411 479 411 l 479 458 q 443 597 476 554 q 324 639 410 639 q 246 622 288 639 l 213 483 q 189 482 206 482 l 132 486 q 108 651 110 546 q 229 694 135 665 q 350 722 324 722 q 550 660 492 722 q 608 454 608 597 m 306 76 q 492 167 346 76 l 485 340 q 326 325 390 332 q 224 288 263 318 q 185 194 185 258 q 306 76 185 76 z "},"æ":{"ha":1147,"x_min":63,"x_max":1083,"o":"m 313 78 q 467 158 354 78 q 499 181 497 181 l 492 340 q 285 315 314 322 q 185 194 185 289 q 219 108 185 138 q 313 78 254 78 m 488 411 l 486 458 q 449 598 483 557 q 331 639 415 639 q 253 622 294 639 l 219 482 l 196 482 l 139 486 q 115 651 117 546 q 236 694 142 665 q 357 722 331 722 q 576 628 518 722 q 803 722 660 722 q 1015 633 946 722 q 1083 404 1083 543 l 1083 383 q 1067 365 1074 365 l 615 365 q 714 101 615 158 q 813 76 757 76 q 938 94 869 76 q 1039 126 1006 111 q 1064 71 1064 92 l 1064 60 q 832 -15 938 -15 q 656 24 726 -15 q 547 126 585 63 q 421 39 513 94 q 282 -17 329 -17 q 63 182 63 -17 q 100 320 63 260 q 222 396 138 381 q 488 411 307 411 m 818 639 q 677 583 733 638 q 618 438 621 529 q 954 444 728 439 q 818 639 954 639 z "},"ç":{"ha":660,"x_min":50,"x_max":617,"o":"m 397 -171 q 311 -114 397 -144 q 360 31 311 -78 q 383 35 368 35 q 408 31 397 35 q 375 -72 386 -44 q 486 -159 486 -119 q 448 -242 486 -199 q 361 -303 410 -286 l 346 -285 q 364 -244 351 -269 q 397 -171 397 -181 m 381 -17 q 478 7 410 -17 q 617 72 546 31 q 589 136 615 100 q 397 78 458 78 q 223 153 268 78 q 178 372 178 228 q 237 578 178 517 q 396 639 296 639 q 449 635 403 639 l 483 482 q 500 481 493 481 l 524 481 q 564 488 539 481 q 590 671 586 542 q 499 706 557 690 q 386 722 440 722 q 50 344 50 722 q 132 77 50 171 q 381 -17 214 -17 z "},"è":{"ha":711,"x_min":56,"x_max":649,"o":"m 460 864 q 404 807 428 826 q 207 938 282 865 q 223 978 208 957 q 265 1022 238 999 l 460 864 m 403 78 q 594 136 464 78 q 622 72 621 100 q 483 7 551 31 q 386 -17 415 -17 q 140 80 225 -17 q 56 350 56 176 q 138 623 56 524 q 386 722 221 722 q 581 631 514 722 q 649 385 649 539 q 631 358 638 365 l 183 365 q 233 151 185 225 q 403 78 281 78 m 522 444 q 489 587 522 536 q 378 638 456 638 q 239 608 300 638 q 186 438 197 525 q 522 444 296 439 z "},"é":{"ha":711,"x_min":56,"x_max":649,"o":"m 263 864 l 457 1022 q 515 938 511 981 q 433 873 482 906 q 318 807 383 840 q 263 864 293 825 m 403 78 q 594 136 464 78 q 622 72 621 100 q 483 7 551 31 q 386 -17 415 -17 q 140 80 225 -17 q 56 350 56 176 q 138 623 56 524 q 386 722 221 722 q 581 631 514 722 q 649 385 649 539 q 631 358 638 365 l 183 365 q 233 151 185 225 q 403 78 281 78 m 522 444 q 489 587 522 536 q 378 638 456 638 q 239 608 300 638 q 186 438 197 525 q 522 444 296 439 z "},"ê":{"ha":711,"x_min":56,"x_max":649,"o":"m 363 1022 l 558 864 q 513 814 550 851 q 491 824 511 815 q 453 843 471 833 q 363 906 399 872 q 233 825 314 860 q 213 814 214 815 q 167 864 179 844 l 363 1022 m 403 78 q 594 136 464 78 q 622 72 621 100 q 483 7 551 31 q 386 -17 415 -17 q 140 80 225 -17 q 56 350 56 176 q 138 623 56 524 q 386 722 221 722 q 581 631 514 722 q 649 385 649 539 q 631 358 638 365 l 183 365 q 233 151 185 225 q 403 78 281 78 m 522 444 q 489 587 522 536 q 378 638 456 638 q 239 608 300 638 q 186 438 197 525 q 522 444 296 439 z "},"ë":{"ha":711,"x_min":56,"x_max":649,"o":"m 296 842 q 237 836 268 836 q 186 839 206 836 q 179 890 179 864 q 182 949 179 915 q 239 953 203 953 q 292 951 275 953 q 297 888 297 921 q 296 842 297 856 m 525 842 q 466 836 497 836 q 415 839 435 836 q 408 890 408 864 q 411 949 408 915 q 468 953 432 953 q 521 951 504 953 q 526 888 526 921 q 525 842 526 856 m 403 78 q 594 136 464 78 q 622 72 621 100 q 483 7 551 31 q 386 -17 415 -17 q 140 80 225 -17 q 56 350 56 176 q 138 623 56 524 q 386 722 221 722 q 581 631 514 722 q 649 385 649 539 q 631 358 638 365 l 183 365 q 233 151 185 225 q 403 78 281 78 m 522 444 q 489 587 522 536 q 378 638 456 638 q 239 608 300 638 q 186 438 197 525 q 522 444 296 439 z "},"ì":{"ha":428,"x_min":42,"x_max":400,"o":"m 311 864 q 256 807 281 826 q 58 938 133 865 q 74 978 60 957 q 117 1022 89 999 l 311 864 m 47 692 q 231 713 165 713 q 314 710 296 713 q 306 636 314 676 q 296 597 297 596 l 283 94 l 400 83 q 376 0 400 44 l 57 0 l 53 49 q 178 82 117 71 q 164 603 169 429 q 42 619 83 603 l 47 692 z "},"í":{"ha":428,"x_min":42,"x_max":400,"o":"m 128 864 l 322 1022 q 381 938 376 981 q 298 873 347 906 q 183 807 249 840 q 128 864 158 825 m 47 692 q 231 713 165 713 q 314 710 296 713 q 306 636 314 676 q 296 597 297 596 l 283 94 l 400 83 q 376 0 400 44 l 57 0 l 53 49 q 178 82 117 71 q 164 603 169 429 q 42 619 83 603 l 47 692 z "},"î":{"ha":461,"x_min":42,"x_max":433,"o":"m 238 1022 l 433 864 q 388 814 419 844 q 366 824 386 815 q 328 843 346 833 q 238 906 274 872 q 108 825 189 860 q 88 814 89 815 q 42 864 54 844 l 238 1022 m 63 692 q 246 713 181 713 q 329 710 311 713 q 321 636 329 676 q 311 597 313 596 l 299 94 l 415 83 q 392 0 415 44 l 72 0 l 68 49 q 193 82 132 71 q 179 603 185 429 q 57 619 99 603 l 63 692 z "},"ï":{"ha":433,"x_min":42,"x_max":406,"o":"m 158 842 q 99 836 131 836 q 49 839 68 836 q 42 890 42 864 q 44 949 42 915 q 101 953 65 953 q 154 951 138 953 q 160 888 160 921 q 158 842 160 856 m 388 842 q 328 836 360 836 q 278 839 297 836 q 271 890 271 864 q 274 949 271 915 q 331 953 294 953 q 383 951 367 953 q 389 888 389 921 q 388 842 389 856 m 53 692 q 236 713 171 713 q 319 710 301 713 q 311 636 319 676 q 301 597 303 596 l 289 94 l 406 83 q 382 0 406 44 l 63 0 l 58 49 q 183 82 122 71 q 169 603 175 429 q 47 619 89 603 l 53 692 z "},"ð":{"ha":804,"x_min":50,"x_max":714,"o":"m 307 758 q 261 824 283 782 q 386 921 314 871 q 192 972 310 963 q 190 998 190 979 q 201 1033 190 1017 q 453 967 338 1033 l 586 1054 q 633 986 618 1021 q 533 908 582 944 q 714 463 714 751 q 371 -18 714 -18 q 139 90 228 -18 q 50 335 50 197 q 134 574 50 472 q 360 675 218 675 q 467 650 399 675 q 571 594 536 625 q 465 861 549 774 l 307 758 m 360 590 q 222 526 265 590 q 179 328 179 463 q 226 130 179 193 q 377 67 272 67 q 524 139 482 67 q 577 328 567 211 q 588 465 588 444 q 583 515 588 486 q 484 563 551 536 q 360 590 417 590 z "},"ñ":{"ha":856,"x_min":39,"x_max":842,"o":"m 483 722 q 676 656 617 722 q 736 456 736 590 q 725 94 736 417 l 842 83 q 818 0 842 44 l 499 0 l 494 49 q 619 82 558 71 q 605 487 611 446 q 585 558 599 528 q 543 601 571 589 q 469 614 515 614 q 292 569 378 614 q 281 94 283 253 l 397 83 q 374 0 397 44 l 54 0 l 50 49 q 175 82 114 71 q 161 604 167 435 q 39 621 85 608 l 44 693 q 263 714 119 714 q 288 642 279 689 q 408 698 347 674 q 483 722 468 722 m 344 883 q 228 832 304 857 l 204 872 q 295 956 242 924 q 358 988 349 988 q 459 956 385 988 q 549 919 533 924 q 665 975 628 963 l 689 935 q 582 842 651 883 q 567 831 576 839 q 535 815 544 815 q 464 843 507 825 q 344 883 368 883 z "},"ò":{"ha":747,"x_min":50,"x_max":697,"o":"m 496 864 q 440 807 464 826 q 243 938 318 865 q 259 978 244 957 q 301 1022 274 999 l 496 864 m 372 67 q 430 67 372 67 q 528 140 488 67 q 569 347 569 213 q 475 615 569 561 q 366 638 436 638 q 233 608 296 638 q 178 360 178 501 q 214 150 178 224 q 372 67 256 67 m 50 347 q 50 435 50 347 q 131 623 50 524 q 379 722 211 722 q 622 631 547 722 q 697 363 697 540 q 617 83 697 185 q 375 -18 538 -18 q 131 76 213 -18 q 50 347 50 171 z "},"ó":{"ha":747,"x_min":50,"x_max":697,"o":"m 285 864 l 479 1022 q 538 938 533 981 q 455 873 504 906 q 340 807 406 840 q 285 864 315 825 m 372 67 q 430 67 372 67 q 528 140 488 67 q 569 347 569 213 q 475 615 569 561 q 366 638 436 638 q 233 608 296 638 q 178 360 178 501 q 214 150 178 224 q 372 67 256 67 m 50 347 q 50 435 50 347 q 131 623 50 524 q 379 722 211 722 q 622 631 547 722 q 697 363 697 540 q 617 83 697 185 q 375 -18 538 -18 q 131 76 213 -18 q 50 347 50 171 z "},"ô":{"ha":747,"x_min":50,"x_max":697,"o":"m 382 1022 l 578 864 q 532 814 564 844 q 510 824 531 815 q 472 843 490 833 q 382 906 418 872 q 253 825 333 860 q 232 814 233 815 q 186 864 199 844 l 382 1022 m 372 67 q 430 67 372 67 q 528 140 488 67 q 569 347 569 213 q 475 615 569 561 q 366 638 436 638 q 233 608 296 638 q 178 360 178 501 q 214 150 178 224 q 372 67 256 67 m 50 347 q 50 435 50 347 q 131 623 50 524 q 379 722 211 722 q 622 631 547 722 q 697 363 697 540 q 617 83 697 185 q 375 -18 538 -18 q 131 76 213 -18 q 50 347 50 171 z "},"õ":{"ha":747,"x_min":50,"x_max":697,"o":"m 290 883 q 174 832 250 857 l 150 872 q 241 956 188 924 q 304 988 294 988 q 405 956 331 988 q 494 919 479 924 q 611 975 574 963 l 635 935 q 528 842 597 883 q 511 831 522 839 q 481 815 490 815 q 410 843 453 825 q 290 883 314 883 m 372 67 q 430 67 372 67 q 528 140 488 67 q 569 347 569 213 q 475 615 569 561 q 366 638 436 638 q 233 608 296 638 q 178 360 178 501 q 214 150 178 224 q 372 67 256 67 m 50 347 q 50 435 50 347 q 131 623 50 524 q 379 722 211 722 q 622 631 547 722 q 697 363 697 540 q 617 83 697 185 q 375 -18 538 -18 q 131 76 213 -18 q 50 347 50 171 z "},"ö":{"ha":747,"x_min":50,"x_max":697,"o":"m 329 842 q 270 836 301 836 q 219 839 239 836 q 213 890 213 864 q 215 949 213 915 q 272 953 236 953 q 325 951 308 953 q 331 888 331 921 q 329 842 331 856 m 558 842 q 499 836 531 836 q 449 839 468 836 q 442 890 442 864 q 444 949 442 915 q 501 953 465 953 q 554 951 538 953 q 560 888 560 921 q 558 842 560 856 m 372 67 q 430 67 372 67 q 528 140 488 67 q 569 347 569 213 q 475 615 569 561 q 366 638 436 638 q 233 608 296 638 q 178 360 178 501 q 214 150 178 224 q 372 67 256 67 m 50 347 q 50 435 50 347 q 131 623 50 524 q 379 722 211 722 q 622 631 547 722 q 697 363 697 540 q 617 83 697 185 q 375 -18 538 -18 q 131 76 213 -18 q 50 347 50 171 z "},"÷":{"ha":786,"x_min":63,"x_max":722,"o":"m 465 611 l 463 561 q 392 553 426 553 q 325 557 358 553 q 317 635 317 596 q 319 694 317 675 q 384 701 350 701 q 457 699 418 701 q 465 611 465 663 m 465 63 l 463 13 q 392 4 426 4 q 325 8 358 4 q 317 87 317 47 q 319 146 317 126 q 384 153 350 153 q 457 150 418 153 q 465 63 465 114 m 719 403 q 722 363 722 389 l 719 321 q 553 304 631 304 l 67 314 q 63 351 63 333 l 67 396 q 235 413 156 413 l 719 403 z "},"ø":{"ha":747,"x_min":50,"x_max":697,"o":"m 697 360 q 619 84 697 186 q 383 -18 540 -18 q 289 -8 333 -18 l 238 -142 q 164 -111 188 -135 l 211 17 q 50 346 50 93 q 131 623 50 524 q 378 722 211 722 q 469 714 428 722 l 519 846 q 610 811 576 833 l 560 682 q 697 360 697 606 m 178 360 q 246 110 178 171 l 439 629 q 378 638 413 638 q 233 608 296 638 q 178 360 178 501 m 378 67 q 528 140 488 67 q 569 360 569 213 q 518 576 569 507 l 321 72 q 378 67 343 67 z "},"ù":{"ha":826,"x_min":14,"x_max":804,"o":"m 497 864 q 442 807 465 826 q 244 938 319 865 q 260 978 246 957 q 303 1022 275 999 l 497 864 m 408 92 q 499 109 449 92 q 581 151 549 126 q 571 600 575 447 q 443 617 485 600 l 449 689 q 634 710 567 710 q 719 707 701 710 q 712 640 719 682 q 701 594 704 599 l 685 99 q 804 82 758 94 l 801 11 q 683 -8 740 -8 q 614 -7 626 -8 q 583 90 588 46 q 458 11 515 39 q 382 -17 400 -17 q 205 49 260 -17 q 150 243 150 115 q 163 599 150 244 q 14 617 82 599 l 19 689 q 203 710 138 710 q 286 707 268 710 q 278 633 286 674 q 268 594 269 593 l 269 294 q 296 140 269 189 q 408 92 322 92 z "},"ú":{"ha":826,"x_min":14,"x_max":804,"o":"m 300 864 l 494 1022 q 553 938 549 981 q 470 873 519 906 q 356 807 421 840 q 300 864 331 825 m 408 92 q 499 109 449 92 q 581 151 549 126 q 571 600 575 447 q 443 617 485 600 l 449 689 q 634 710 567 710 q 719 707 701 710 q 712 640 719 682 q 701 594 704 599 l 685 99 q 804 82 758 94 l 801 11 q 683 -8 740 -8 q 614 -7 626 -8 q 583 90 588 46 q 458 11 515 39 q 382 -17 400 -17 q 205 49 260 -17 q 150 243 150 115 q 163 599 150 244 q 14 617 82 599 l 19 689 q 203 710 138 710 q 286 707 268 710 q 278 633 286 674 q 268 594 269 593 l 269 294 q 296 140 269 189 q 408 92 322 92 z "},"û":{"ha":826,"x_min":14,"x_max":804,"o":"m 399 1022 l 594 864 q 549 814 586 851 q 527 824 547 815 q 489 843 507 833 q 399 906 435 872 q 269 825 350 860 q 249 814 250 815 q 203 864 215 844 l 399 1022 m 408 92 q 499 109 449 92 q 581 151 549 126 q 571 600 575 447 q 443 617 485 600 l 449 689 q 634 710 567 710 q 719 707 701 710 q 712 640 719 682 q 701 594 704 599 l 685 99 q 804 82 758 94 l 801 11 q 683 -8 740 -8 q 614 -7 626 -8 q 583 90 588 46 q 458 11 515 39 q 382 -17 400 -17 q 205 49 260 -17 q 150 243 150 115 q 163 599 150 244 q 14 617 82 599 l 19 689 q 203 710 138 710 q 286 707 268 710 q 278 633 286 674 q 268 594 269 593 l 269 294 q 296 140 269 189 q 408 92 322 92 z "},"ü":{"ha":826,"x_min":14,"x_max":804,"o":"m 344 842 q 285 836 317 836 q 235 839 254 836 q 228 890 228 864 q 231 949 228 915 q 288 953 251 953 q 340 951 324 953 q 346 888 346 921 q 344 842 346 856 m 574 842 q 515 836 546 836 q 464 839 483 836 q 457 890 457 864 q 460 949 457 915 q 517 953 481 953 q 569 951 553 953 q 575 888 575 921 q 574 842 575 856 m 408 92 q 499 109 449 92 q 581 151 549 126 q 571 600 575 447 q 443 617 485 600 l 449 689 q 634 710 567 710 q 719 707 701 710 q 712 640 719 682 q 701 594 704 599 l 685 99 q 804 82 758 94 l 801 11 q 683 -8 740 -8 q 614 -7 626 -8 q 583 90 588 46 q 458 11 515 39 q 382 -17 400 -17 q 205 49 260 -17 q 150 243 150 115 q 163 599 150 244 q 14 617 82 599 l 19 689 q 203 710 138 710 q 286 707 268 710 q 278 633 286 674 q 268 594 269 593 l 269 294 q 296 140 269 189 q 408 92 322 92 z "},"ý":{"ha":771,"x_min":-14,"x_max":792,"o":"m 194 -258 q 298 -157 247 -258 q 356 0 349 -56 l 322 0 l 103 611 l -14 622 q 10 706 -14 661 l 329 706 l 333 657 q 235 626 289 638 l 356 247 l 388 125 l 401 125 l 568 626 l 451 657 l 456 706 l 768 706 q 792 622 792 661 q 678 613 735 615 q 570 297 642 507 q 458 -28 499 88 q 376 -215 417 -143 q 297 -312 336 -287 q 208 -336 257 -336 q 47 -303 122 -336 l 22 -290 q 35 -117 32 -132 q 115 -112 46 -112 l 163 -254 q 194 -258 175 -258 m 343 864 l 538 1022 q 596 938 592 981 q 513 873 563 906 q 399 807 464 840 q 343 864 374 825 z "},"þ":{"ha":804,"x_min":28,"x_max":749,"o":"m 454 722 q 749 354 749 722 q 679 111 749 225 q 584 19 644 54 q 447 -17 524 -17 q 265 64 400 -17 q 260 -225 263 -31 l 383 -236 q 360 -319 383 -275 l 40 -319 l 36 -271 q 168 -237 107 -249 q 158 393 165 -15 q 150 931 151 801 q 28 947 74 935 l 33 1019 q 239 1040 104 1040 q 300 1038 282 1040 q 292 964 300 1003 q 282 926 283 925 q 279 801 282 896 q 276 656 276 707 q 454 722 424 722 m 444 619 q 275 568 367 619 q 267 157 275 565 q 438 78 382 78 q 575 150 524 78 q 626 347 626 222 q 444 619 626 619 z "},"ÿ":{"ha":771,"x_min":-14,"x_max":792,"o":"m 194 -258 q 298 -157 247 -258 q 356 0 349 -56 l 322 0 l 103 611 l -14 622 q 10 706 -14 661 l 329 706 l 333 657 q 235 626 289 638 l 356 247 l 388 125 l 401 125 l 568 626 l 451 657 l 456 706 l 768 706 q 792 622 792 661 q 678 613 735 615 q 570 297 642 507 q 458 -28 499 88 q 376 -215 417 -143 q 297 -312 336 -287 q 208 -336 257 -336 q 47 -303 122 -336 l 22 -290 q 35 -117 32 -132 q 115 -112 46 -112 l 163 -254 q 194 -258 175 -258 m 332 842 q 273 836 304 836 q 222 839 242 836 q 215 890 215 864 q 218 949 215 915 q 275 953 239 953 q 328 951 311 953 q 333 888 333 921 q 332 842 333 856 m 561 842 q 502 836 533 836 q 451 839 471 836 q 444 890 444 864 q 447 949 444 915 q 504 953 468 953 q 557 951 540 953 q 563 888 563 921 q 561 842 563 856 z "},"Ā":{"ha":1026,"x_min":7,"x_max":1019,"o":"m 224 943 q 360 962 249 951 q 562 972 471 972 q 703 964 653 972 q 704 951 704 958 q 697 915 704 943 q 685 879 689 888 q 622 863 674 868 l 888 94 l 1019 83 q 996 0 1019 44 l 676 0 l 672 49 q 765 78 704 65 l 694 276 l 307 276 l 242 94 l 354 83 q 331 0 354 44 l 11 0 l 7 49 q 122 79 61 68 l 392 867 q 218 900 268 881 l 224 943 m 585 586 l 511 858 q 488 860 503 860 l 413 576 l 332 365 l 669 365 l 585 586 m 665 1239 q 668 1203 668 1217 l 665 1154 q 529 1147 593 1147 l 361 1154 q 358 1190 358 1174 l 361 1239 q 497 1246 433 1246 l 665 1239 z "},"ā":{"ha":749,"x_min":57,"x_max":721,"o":"m 608 454 l 601 96 q 721 76 661 92 l 718 28 q 638 3 696 17 q 525 -10 581 -10 q 497 86 500 40 q 275 -18 339 -18 q 117 35 176 -18 q 57 182 57 88 q 324 407 57 400 q 481 411 479 411 l 479 458 q 443 597 476 554 q 324 639 410 639 q 246 622 288 639 l 213 483 q 189 482 206 482 l 132 486 q 108 651 110 546 q 229 694 135 665 q 350 722 324 722 q 550 660 492 722 q 608 454 608 597 m 306 76 q 492 167 346 76 l 485 340 q 326 325 390 332 q 224 288 263 318 q 185 194 185 258 q 306 76 185 76 m 542 972 q 544 936 544 950 l 542 888 q 406 881 469 881 l 238 888 q 235 924 235 907 l 238 972 q 374 979 310 979 l 542 972 z "},"Ă":{"ha":1026,"x_min":7,"x_max":1019,"o":"m 224 943 q 360 962 249 951 q 562 972 471 972 q 703 964 653 972 q 704 951 704 958 q 697 915 704 943 q 685 879 689 888 q 622 863 674 868 l 888 94 l 1019 83 q 996 0 1019 44 l 676 0 l 672 49 q 765 78 704 65 l 694 276 l 307 276 l 242 94 l 354 83 q 331 0 354 44 l 11 0 l 7 49 q 122 79 61 68 l 392 867 q 218 900 268 881 l 224 943 m 585 586 l 511 858 q 488 860 503 860 l 413 576 l 332 365 l 669 365 l 585 586 m 700 1290 q 649 1153 700 1213 q 510 1093 597 1093 q 374 1153 424 1093 q 325 1290 325 1213 l 397 1293 q 425 1215 397 1249 q 511 1181 453 1181 q 613 1290 613 1181 l 700 1290 z "},"ă":{"ha":749,"x_min":57,"x_max":721,"o":"m 561 1024 q 510 886 561 946 q 372 826 458 826 q 235 886 285 826 q 186 1024 186 946 l 258 1026 q 286 948 258 982 q 372 914 314 914 q 474 1024 474 914 l 561 1024 m 608 454 l 601 96 q 721 76 661 92 l 718 28 q 638 3 696 17 q 525 -10 581 -10 q 497 86 500 40 q 275 -18 339 -18 q 117 35 176 -18 q 57 182 57 88 q 324 407 57 400 q 481 411 479 411 l 479 458 q 443 597 476 554 q 324 639 410 639 q 246 622 288 639 l 213 483 q 189 482 206 482 l 132 486 q 108 651 110 546 q 229 694 135 665 q 350 722 324 722 q 550 660 492 722 q 608 454 608 597 m 306 76 q 492 167 346 76 l 485 340 q 326 325 390 332 q 224 288 263 318 q 185 194 185 258 q 306 76 185 76 z "},"Ē":{"ha":826,"x_min":42,"x_max":742,"o":"m 303 876 l 296 542 l 515 542 l 526 642 q 610 618 565 642 l 610 354 l 561 350 q 533 450 540 410 l 296 450 q 290 93 293 329 l 608 93 l 642 224 l 722 218 q 742 78 742 139 q 739 0 742 18 l 64 0 l 60 49 q 178 81 121 71 q 164 886 169 622 q 42 919 133 889 l 49 972 l 718 972 q 721 917 721 954 q 701 751 721 840 q 621 744 671 744 l 588 876 l 303 876 m 565 1239 q 568 1203 568 1217 l 565 1154 q 429 1147 493 1147 l 261 1154 q 258 1190 258 1174 l 261 1239 q 397 1246 333 1246 l 565 1239 z "},"ē":{"ha":711,"x_min":56,"x_max":649,"o":"m 403 78 q 594 136 464 78 q 622 72 621 100 q 483 7 551 31 q 386 -17 415 -17 q 140 80 225 -17 q 56 350 56 176 q 138 623 56 524 q 386 722 221 722 q 581 631 514 722 q 649 385 649 539 q 631 358 638 365 l 183 365 q 233 151 185 225 q 403 78 281 78 m 522 444 q 489 587 522 536 q 378 638 456 638 q 239 608 300 638 q 186 438 197 525 q 522 444 296 439 m 508 972 q 511 936 511 950 l 508 888 q 372 881 436 881 l 204 888 q 201 924 201 907 l 204 972 q 340 979 276 979 l 508 972 z "},"Ĕ":{"ha":826,"x_min":42,"x_max":742,"o":"m 303 876 l 296 542 l 515 542 l 526 642 q 610 618 565 642 l 610 354 l 561 350 q 533 450 540 410 l 296 450 q 290 93 293 329 l 608 93 l 642 224 l 722 218 q 742 78 742 139 q 739 0 742 18 l 64 0 l 60 49 q 178 81 121 71 q 164 886 169 622 q 42 919 133 889 l 49 972 l 718 972 q 721 917 721 954 q 701 751 721 840 q 621 744 671 744 l 588 876 l 303 876 m 600 1290 q 549 1153 600 1213 q 410 1093 497 1093 q 274 1153 324 1093 q 225 1290 225 1213 l 297 1293 q 325 1215 297 1249 q 411 1181 353 1181 q 513 1290 513 1181 l 600 1290 z "},"ĕ":{"ha":706,"x_min":56,"x_max":649,"o":"m 540 1024 q 489 886 540 946 q 351 826 438 826 q 215 886 264 826 q 165 1024 165 946 l 238 1026 q 265 948 238 982 q 351 914 293 914 q 453 1024 453 914 l 540 1024 m 403 78 q 594 136 464 78 q 622 72 621 100 q 483 7 551 31 q 386 -17 415 -17 q 140 80 225 -17 q 56 350 56 176 q 138 623 56 524 q 386 722 221 722 q 581 631 514 722 q 649 385 649 539 q 631 358 638 365 l 183 365 q 233 151 185 225 q 403 78 281 78 m 522 444 q 489 587 522 536 q 378 638 456 638 q 239 608 300 638 q 186 438 197 525 q 522 444 296 439 z "},"Ğ":{"ha":939,"x_min":28,"x_max":883,"o":"m 436 -18 q 139 110 250 -18 q 28 488 28 238 q 124 865 28 739 q 426 990 221 990 q 771 888 631 990 q 751 719 771 817 q 671 714 721 714 l 640 857 q 446 883 561 883 q 236 842 369 883 q 215 799 228 826 q 183 685 203 772 q 163 511 163 599 q 439 85 163 85 q 664 138 585 85 q 671 400 669 313 l 536 433 l 540 482 l 860 482 q 883 399 883 438 q 767 388 829 390 q 775 65 775 154 q 637 12 740 42 q 436 -18 533 -18 m 646 1290 q 594 1153 646 1213 q 456 1093 543 1093 q 320 1153 369 1093 q 271 1290 271 1213 l 343 1293 q 371 1215 343 1249 q 457 1181 399 1181 q 558 1290 558 1181 l 646 1290 z "},"ğ":{"ha":803,"x_min":57,"x_max":778,"o":"m 589 1024 q 538 886 589 946 q 399 826 486 826 q 263 886 313 826 q 214 1024 214 946 l 286 1026 q 314 948 286 982 q 400 914 342 914 q 501 1024 501 914 l 589 1024 m 540 88 q 732 -71 732 88 q 669 -208 732 -144 q 518 -303 606 -271 q 350 -335 431 -335 q 103 -243 189 -335 q 57 -131 57 -194 q 106 -51 57 -115 q 171 25 156 14 q 122 73 158 33 q 82 128 86 113 q 192 253 117 192 q 81 472 81 319 q 158 658 81 594 q 353 722 236 722 q 533 685 469 722 q 751 707 644 707 q 778 675 778 707 q 757 599 778 619 l 597 625 q 647 472 647 561 q 565 273 647 333 q 364 213 483 213 q 275 222 326 213 q 222 129 254 179 q 417 85 247 85 l 540 88 m 607 -91 q 607 -70 607 -91 q 575 -25 607 -50 q 493 0 543 0 q 250 4 294 0 q 206 -79 229 -29 q 183 -143 183 -129 q 235 -224 183 -197 q 353 -250 286 -250 q 490 -228 421 -250 q 593 -171 558 -206 q 607 -91 607 -132 m 522 472 q 364 639 522 639 q 206 472 206 639 q 247 342 206 388 q 368 296 289 296 q 485 340 447 296 q 522 472 522 385 z "},"ħ":{"ha":857,"x_min":28,"x_max":833,"o":"m 38 756 q 35 785 35 772 q 38 813 35 799 q 151 819 94 818 l 151 922 q 28 939 74 926 l 33 1011 q 244 1032 104 1032 q 306 1029 288 1032 q 298 965 306 1004 q 288 918 290 925 q 285 814 285 849 l 342 813 q 344 789 344 799 l 342 756 q 283 753 314 754 q 282 643 282 717 q 401 699 342 675 q 475 722 460 722 q 668 656 608 722 q 728 456 728 590 q 717 94 728 417 l 833 83 q 810 0 833 44 l 490 0 l 486 49 q 611 82 550 71 q 597 487 603 446 q 576 558 590 528 q 535 601 563 589 q 461 614 507 614 q 281 569 367 614 l 272 94 l 389 83 q 365 0 389 44 l 46 0 l 42 49 q 167 82 106 71 q 160 442 165 208 q 153 749 154 675 l 38 756 z "},"Ĩ":{"ha":638,"x_min":76,"x_max":561,"o":"m 378 94 q 494 83 440 92 q 471 0 494 44 l 151 0 l 147 49 q 274 82 222 72 q 265 454 271 172 q 254 890 258 736 q 129 924 193 901 l 133 972 l 481 972 q 504 889 504 928 l 392 883 l 378 94 m 217 1150 q 100 1099 176 1124 l 76 1139 q 167 1222 114 1190 q 231 1254 221 1254 q 331 1222 257 1254 q 421 1186 406 1190 q 538 1242 500 1229 l 561 1201 q 454 1108 524 1150 q 439 1097 449 1106 q 407 1082 417 1082 q 336 1110 379 1092 q 217 1150 240 1150 z "},"ĩ":{"ha":554,"x_min":42,"x_max":526,"o":"m 129 692 q 313 713 247 713 q 396 710 378 713 q 388 636 396 676 q 378 597 379 596 l 365 94 l 482 83 q 458 0 482 44 l 139 0 l 135 49 q 260 82 199 71 q 246 603 251 429 q 124 619 165 603 l 129 692 m 182 883 q 65 832 142 857 l 42 872 q 133 956 79 924 q 196 988 186 988 q 297 956 222 988 q 386 919 371 924 q 503 975 465 963 l 526 935 q 419 842 489 883 q 403 831 414 839 q 372 815 382 815 q 301 843 344 825 q 182 883 206 883 z "},"Ī":{"ha":528,"x_min":76,"x_max":451,"o":"m 325 94 q 442 83 388 92 q 418 0 442 44 l 99 0 l 94 49 q 221 82 161 69 q 212 454 218 172 q 201 890 206 736 q 76 924 140 901 l 81 972 l 428 972 q 451 889 451 928 l 339 883 l 325 94 m 417 1239 q 419 1203 419 1217 l 417 1154 q 281 1147 344 1147 l 113 1154 q 110 1190 110 1174 l 113 1239 q 249 1246 185 1246 l 417 1239 z "},"ī":{"ha":428,"x_min":42,"x_max":400,"o":"m 47 692 q 231 713 165 713 q 314 710 296 713 q 306 636 314 676 q 296 597 297 596 l 283 94 l 400 83 q 376 0 400 44 l 57 0 l 53 49 q 178 82 117 71 q 164 603 169 429 q 42 619 83 603 l 47 692 m 367 972 q 369 936 369 950 l 367 888 q 231 881 294 881 l 63 888 q 60 924 60 907 l 63 972 q 199 979 135 979 l 367 972 z "},"Ĭ":{"ha":528,"x_min":76,"x_max":451,"o":"m 325 94 q 442 83 388 92 q 418 0 442 44 l 99 0 l 94 49 q 221 82 161 69 q 212 454 218 172 q 201 890 206 736 q 76 924 140 901 l 81 972 l 428 972 q 451 889 451 928 l 339 883 l 325 94 m 451 1290 q 400 1153 451 1213 q 262 1093 349 1093 q 126 1153 175 1093 q 76 1290 76 1213 l 149 1293 q 176 1215 149 1249 q 263 1181 204 1181 q 364 1290 364 1181 l 451 1290 z "},"ĭ":{"ha":444,"x_min":42,"x_max":417,"o":"m 63 692 q 246 713 181 713 q 329 710 311 713 q 321 636 329 676 q 311 597 313 596 l 299 94 l 415 83 q 392 0 415 44 l 72 0 l 68 49 q 193 82 132 71 q 179 603 185 429 q 57 619 99 603 l 63 692 m 417 1024 q 365 886 417 946 q 227 826 314 826 q 91 886 140 826 q 42 1024 42 946 l 114 1026 q 142 948 114 982 q 228 914 169 914 q 329 1024 329 914 l 417 1024 z "},"ı":{"ha":428,"x_min":42,"x_max":400,"o":"m 47 692 q 231 713 165 713 q 314 710 296 713 q 306 636 314 676 q 296 597 297 596 l 283 94 l 400 83 q 376 0 400 44 l 57 0 l 53 49 q 178 82 117 71 q 164 603 169 429 q 42 619 83 603 l 47 692 z "},"Ĳ":{"ha":1172,"x_min":76,"x_max":1131,"o":"m 339 883 l 325 94 l 442 83 q 418 0 442 44 l 99 0 l 94 49 q 221 82 158 71 q 212 454 218 172 q 201 890 206 736 q 76 924 146 901 l 81 972 l 428 972 q 451 889 451 928 q 339 883 381 883 m 667 101 q 765 88 704 88 q 862 123 826 88 q 897 251 897 158 q 894 447 897 343 q 886 684 892 551 q 878 890 881 817 q 756 924 836 896 l 760 972 l 1107 972 q 1131 889 1131 928 q 1019 883 1114 883 q 1013 532 1017 760 q 1008 232 1010 304 q 952 48 1006 114 q 796 -18 899 -18 q 642 3 721 -18 q 535 44 563 24 q 557 272 536 150 q 639 282 579 282 l 667 101 z "},"ĳ":{"ha":851,"x_min":63,"x_max":756,"o":"m 321 838 q 251 829 285 829 q 183 833 217 829 q 175 912 175 872 q 178 971 175 951 q 242 978 208 978 q 315 975 276 978 q 324 905 324 939 q 321 838 324 871 m 68 692 q 251 713 186 713 q 335 710 317 713 q 326 636 335 676 q 317 597 318 596 l 304 94 l 421 83 q 397 0 421 44 l 78 0 l 74 49 q 199 82 138 71 q 185 603 190 429 q 63 619 104 603 l 68 692 m 490 -335 q 381 -317 446 -335 q 293 -283 317 -299 q 319 -99 300 -157 q 372 -93 350 -93 q 400 -94 393 -93 l 435 -246 q 496 -253 456 -253 q 617 -54 617 -253 q 612 295 617 63 q 606 604 607 528 q 483 621 529 608 l 489 693 q 694 714 560 714 q 756 711 738 714 q 747 638 756 678 q 738 599 739 597 q 728 -28 733 393 q 676 -260 725 -186 q 490 -335 626 -335 m 742 838 q 672 829 706 829 q 604 833 638 829 q 596 912 596 872 q 599 971 596 951 q 663 978 629 978 q 736 975 697 978 q 744 905 744 939 q 742 838 744 871 z "},"Ĵ":{"ha":644,"x_min":7,"x_max":618,"o":"m 139 101 q 238 88 176 88 q 334 123 299 88 q 369 251 369 158 q 367 447 369 343 q 358 684 364 551 q 350 890 353 817 q 228 924 308 896 l 232 972 l 579 972 q 603 889 603 928 q 492 883 586 883 q 485 532 489 760 q 481 232 482 304 q 424 48 478 114 q 268 -18 371 -18 q 114 3 193 -18 q 7 44 35 24 q 29 272 8 150 q 111 282 51 282 l 139 101 m 422 1289 l 618 1131 q 572 1081 604 1111 q 551 1091 571 1082 q 513 1110 531 1100 q 422 1172 458 1139 q 293 1092 374 1126 q 272 1081 274 1082 q 226 1131 239 1111 l 422 1289 z "},"ĵ":{"ha":424,"x_min":-136,"x_max":435,"o":"m 239 1022 l 435 864 q 389 814 426 851 q 367 824 388 815 q 329 843 347 833 q 239 906 275 872 q 111 825 190 860 q 89 814 90 815 q 43 864 56 844 l 239 1022 m 61 -335 q -48 -317 17 -335 q -136 -283 -112 -299 q -110 -99 -129 -157 q -58 -93 -79 -93 q -29 -94 -36 -93 l 6 -246 q 67 -253 26 -253 q 188 -54 188 -253 q 183 295 188 63 q 176 604 178 528 q 54 621 100 608 l 60 693 q 265 714 131 714 q 326 711 308 714 q 318 638 326 678 q 308 599 310 597 q 299 -28 304 393 q 247 -260 296 -186 q 61 -335 197 -335 z "},"ķ":{"ha":821,"x_min":26,"x_max":810,"o":"m 540 -37 q 547 -114 547 -62 q 509 -222 547 -165 q 439 -299 471 -279 q 403 -274 419 -290 q 489 -153 415 -239 q 435 -150 450 -153 q 429 -94 429 -132 q 431 -40 429 -56 q 485 -35 461 -35 q 540 -37 510 -35 m 238 1040 q 299 1038 281 1040 q 281 926 299 994 q 272 372 272 560 l 496 611 l 385 622 q 408 706 385 661 l 761 706 l 765 644 q 649 613 733 632 l 458 440 l 693 94 l 810 83 q 786 0 810 44 l 596 0 l 379 369 l 271 271 q 268 94 268 154 l 385 83 q 361 0 385 44 l 42 0 l 38 49 q 163 82 101 71 q 149 931 154 643 q 26 947 72 935 l 32 1019 q 238 1040 103 1040 z "},"ĸ":{"ha":821,"x_min":26,"x_max":810,"o":"m 238 710 q 299 707 281 710 q 288 633 299 672 q 275 596 276 594 q 272 372 272 446 l 496 611 l 385 622 q 408 706 385 661 l 761 706 l 765 644 q 649 613 733 632 l 458 440 l 693 94 l 810 83 q 786 0 810 44 l 596 0 l 379 369 l 271 271 q 268 94 271 211 l 385 83 q 361 0 385 44 l 42 0 l 38 49 q 163 82 101 71 q 154 600 154 597 q 26 617 71 606 l 32 689 q 238 710 103 710 z "},"Ŀ":{"ha":822,"x_min":96,"x_max":782,"o":"m 763 218 q 774 154 767 210 q 782 60 782 99 q 778 0 782 22 l 118 0 l 114 49 q 232 81 179 72 q 218 888 224 628 q 96 921 182 893 l 103 972 l 438 972 q 461 890 461 933 q 353 886 386 888 q 348 401 350 619 q 344 93 346 182 l 649 93 l 682 225 q 763 218 751 225 m 742 424 q 672 415 706 415 q 604 419 638 415 q 596 498 596 458 q 599 557 596 538 q 663 564 629 564 q 736 561 697 564 q 744 483 744 525 q 742 424 744 442 z "},"ŀ":{"ha":699,"x_min":26,"x_max":629,"o":"m 238 1032 q 299 1029 281 1032 q 281 918 299 981 q 268 94 268 99 l 385 83 q 361 0 385 44 l 42 0 l 38 49 q 163 82 101 71 l 149 922 q 26 939 72 926 l 32 1011 q 238 1032 103 1032 m 626 333 q 556 325 590 325 q 489 329 522 325 q 481 408 481 368 q 483 467 481 447 q 548 474 514 474 q 621 471 582 474 q 629 401 629 435 q 626 333 629 367 z "},"Ł":{"ha":822,"x_min":88,"x_max":782,"o":"m 88 436 q 225 493 150 468 q 218 888 224 622 q 96 921 182 893 l 103 972 l 438 972 q 461 890 461 933 q 353 886 386 888 q 349 533 349 728 l 464 569 q 490 492 485 529 q 347 436 432 464 q 344 93 344 306 l 649 93 l 682 225 q 763 218 751 225 q 774 154 767 210 q 782 60 782 99 q 778 0 782 22 l 118 0 l 114 49 q 232 81 179 72 q 226 397 229 292 l 114 363 q 88 436 99 388 z "},"ł":{"ha":421,"x_min":11,"x_max":414,"o":"m 38 363 q 11 436 22 388 q 150 493 92 475 q 143 931 149 639 q 21 947 67 935 l 26 1019 q 232 1040 97 1040 q 293 1038 275 1040 q 285 964 293 1003 q 275 926 276 925 q 268 532 269 661 l 388 569 q 414 492 408 529 q 267 435 356 464 q 263 94 267 433 l 379 83 q 356 0 379 44 l 36 0 l 32 49 q 157 82 96 71 q 151 397 154 290 l 38 363 z "},"Ń":{"ha":1090,"x_min":42,"x_max":1056,"o":"m 478 1131 l 672 1289 q 731 1204 726 1247 q 648 1140 697 1172 q 533 1074 599 1107 q 478 1131 508 1092 m 931 0 l 796 0 l 303 800 q 296 419 301 665 q 289 94 290 172 q 406 83 351 92 q 382 0 406 44 l 63 0 l 58 49 q 186 82 133 74 q 177 454 183 172 q 167 890 171 736 q 42 924 108 899 q 46 972 42 944 l 321 972 l 828 163 l 804 890 q 681 924 743 901 l 685 972 l 1032 972 q 1056 889 1056 928 l 944 883 l 931 0 z "},"ń":{"ha":856,"x_min":39,"x_max":842,"o":"m 483 722 q 676 656 617 722 q 736 456 736 590 q 725 94 736 417 l 842 83 q 818 0 842 44 l 499 0 l 494 49 q 619 82 558 71 q 605 487 611 446 q 585 558 599 528 q 543 601 571 589 q 469 614 515 614 q 292 569 378 614 q 281 94 283 253 l 397 83 q 374 0 397 44 l 54 0 l 50 49 q 175 82 114 71 q 161 604 167 435 q 39 621 85 608 l 44 693 q 263 714 119 714 q 288 642 279 689 q 408 698 347 674 q 483 722 468 722 m 308 864 l 503 1022 q 561 938 557 981 q 478 873 528 906 q 364 807 429 840 q 308 864 339 825 z "},"Ŋ":{"ha":1097,"x_min":42,"x_max":1056,"o":"m 303 800 l 289 94 l 406 83 q 382 0 406 44 l 63 0 l 58 49 q 186 82 133 74 q 177 454 183 172 q 167 890 171 736 q 42 924 114 899 l 46 972 l 321 972 l 828 163 l 804 890 q 681 924 753 900 l 685 972 l 1032 972 q 1056 889 1056 928 q 944 883 986 883 l 929 -28 q 876 -260 926 -185 q 690 -335 826 -335 q 581 -317 646 -335 q 493 -283 517 -299 q 519 -100 500 -158 q 600 -93 538 -93 l 635 -246 q 693 -253 656 -253 q 749 -244 731 -253 q 779 -214 768 -235 q 797 -175 790 -193 q 807 -125 804 -157 q 811 -18 811 -75 l 303 800 z "},"ŋ":{"ha":832,"x_min":39,"x_max":736,"o":"m 483 722 q 676 656 617 722 q 736 456 736 590 q 728 78 736 263 q 710 -158 721 -107 q 675 -253 700 -210 q 486 -335 628 -335 q 377 -317 442 -335 q 289 -283 313 -299 q 315 -101 296 -161 q 396 -94 357 -94 l 431 -246 q 500 -253 451 -253 q 621 -54 621 -253 q 614 297 621 126 q 603 497 607 467 q 585 558 599 528 q 543 601 571 589 q 469 614 515 614 q 292 569 378 614 q 285 313 289 479 q 281 94 282 147 l 397 83 q 374 0 397 44 l 54 0 l 50 49 q 175 82 114 71 q 161 604 167 435 q 39 621 85 608 l 44 693 q 263 714 119 714 q 288 642 279 689 q 408 698 347 674 q 483 722 468 722 z "},"Ō":{"ha":899,"x_min":28,"x_max":871,"o":"m 454 90 q 735 485 735 90 q 454 881 735 881 q 239 842 322 881 q 164 499 164 693 q 228 198 164 306 q 454 90 293 90 m 28 481 q 28 603 28 481 q 128 858 28 725 q 456 990 229 990 q 777 869 683 990 q 871 501 871 747 q 770 119 871 256 q 449 -17 669 -17 q 128 110 229 -17 q 28 481 28 236 m 614 1239 q 617 1203 617 1217 l 614 1154 q 478 1147 542 1147 l 310 1154 q 307 1190 307 1174 l 310 1239 q 446 1246 382 1246 l 614 1239 z "},"ō":{"ha":747,"x_min":50,"x_max":697,"o":"m 372 67 q 430 67 372 67 q 528 140 488 67 q 569 347 569 213 q 475 615 569 561 q 366 638 436 638 q 233 608 296 638 q 178 360 178 501 q 214 150 178 224 q 372 67 256 67 m 50 347 q 50 435 50 347 q 131 623 50 524 q 379 722 211 722 q 622 631 547 722 q 697 363 697 540 q 617 83 697 185 q 375 -18 538 -18 q 131 76 213 -18 q 50 347 50 171 m 526 972 q 529 936 529 950 l 526 888 q 390 881 454 881 l 222 888 q 219 924 219 907 l 222 972 q 358 979 294 979 l 526 972 z "},"Ŏ":{"ha":899,"x_min":28,"x_max":871,"o":"m 454 90 q 735 485 735 90 q 454 881 735 881 q 239 842 322 881 q 164 499 164 693 q 228 198 164 306 q 454 90 293 90 m 28 481 q 28 603 28 481 q 128 858 28 725 q 456 990 229 990 q 777 869 683 990 q 871 501 871 747 q 770 119 871 256 q 449 -17 669 -17 q 128 110 229 -17 q 28 481 28 236 m 638 1290 q 586 1153 638 1213 q 448 1093 535 1093 q 312 1153 361 1093 q 263 1290 263 1213 l 335 1293 q 363 1215 335 1249 q 449 1181 390 1181 q 550 1290 550 1181 l 638 1290 z "},"ŏ":{"ha":747,"x_min":50,"x_max":697,"o":"m 556 1024 q 504 886 556 946 q 366 826 453 826 q 230 886 279 826 q 181 1024 181 946 l 253 1026 q 281 948 253 982 q 367 914 308 914 q 468 1024 468 914 l 556 1024 m 372 67 q 430 67 372 67 q 528 140 488 67 q 569 347 569 213 q 475 615 569 561 q 366 638 436 638 q 233 608 296 638 q 178 360 178 501 q 214 150 178 224 q 372 67 256 67 m 50 347 q 50 435 50 347 q 131 623 50 524 q 379 722 211 722 q 622 631 547 722 q 697 363 697 540 q 617 83 697 185 q 375 -18 538 -18 q 131 76 213 -18 q 50 347 50 171 z "},"Œ":{"ha":1233,"x_min":28,"x_max":1149,"o":"m 572 861 q 454 881 521 881 q 335 871 388 881 q 240 842 282 861 q 219 801 232 828 q 187 679 207 774 q 167 478 167 585 q 239 185 167 278 q 453 92 311 92 q 586 119 526 92 l 572 861 m 1125 971 q 1128 917 1128 953 q 1108 751 1128 840 q 1028 744 1078 744 l 994 876 l 710 876 q 703 542 704 656 l 922 542 l 933 642 q 1017 618 972 642 l 1017 354 l 968 350 q 940 450 947 410 l 703 450 q 697 93 700 329 l 1015 93 l 1049 224 l 1129 217 q 1149 78 1149 139 q 1146 0 1149 18 l 588 0 q 453 -6 533 -6 q 135 110 242 -6 q 28 472 28 225 q 126 847 28 718 q 444 975 225 975 q 597 971 531 975 l 1125 971 z "},"œ":{"ha":1228,"x_min":50,"x_max":1164,"o":"m 919 78 q 1111 136 981 78 q 1139 72 1138 100 q 1000 7 1068 31 q 903 -17 932 -17 q 635 107 719 -17 q 378 -18 556 -18 q 50 346 50 -18 q 131 623 50 524 q 389 722 211 722 q 640 606 567 722 q 903 722 725 722 q 1098 630 1032 722 q 1164 383 1164 538 q 1147 358 1154 365 l 700 365 q 749 151 701 225 q 919 78 797 78 m 372 67 q 430 67 372 67 q 528 140 488 67 q 569 347 569 213 q 475 615 569 561 q 366 638 436 638 q 233 608 296 638 q 178 360 178 501 q 214 150 178 224 q 372 67 256 67 m 1039 444 q 1006 587 1039 536 q 894 638 972 638 q 756 608 817 638 q 703 438 714 525 q 1039 444 813 439 z "},"Ŕ":{"ha":911,"x_min":42,"x_max":883,"o":"m 356 1131 l 550 1289 q 608 1204 604 1247 q 526 1140 575 1172 q 411 1074 476 1107 q 356 1131 386 1092 m 533 861 q 415 875 489 875 l 300 875 l 296 525 l 401 526 q 565 568 504 528 q 626 722 626 608 q 533 861 626 835 m 294 436 l 290 93 l 406 83 q 382 0 406 44 l 63 0 l 58 49 q 178 81 117 69 q 164 886 169 608 q 42 919 125 892 q 49 972 42 938 l 361 972 q 692 910 615 972 q 767 722 767 850 q 531 443 767 507 l 768 92 l 883 82 q 860 0 883 44 l 689 0 l 397 436 l 294 436 z "},"ŕ":{"ha":624,"x_min":39,"x_max":611,"o":"m 476 606 q 446 613 469 613 q 376 596 422 613 q 292 557 329 579 q 281 94 283 249 l 397 83 q 374 0 397 44 l 54 0 l 50 49 q 175 82 114 71 q 161 604 167 435 q 39 621 85 608 l 44 693 q 263 714 118 714 q 290 625 285 679 q 481 722 450 722 q 551 710 511 722 q 611 685 592 699 q 585 458 611 546 q 540 453 565 453 q 504 454 514 453 l 476 606 m 185 864 l 379 1022 q 438 938 433 981 q 355 873 404 906 q 240 807 306 840 q 185 864 215 825 z "},"Ŗ":{"ha":911,"x_min":42,"x_max":883,"o":"m 582 -37 q 589 -114 589 -62 q 551 -222 589 -165 q 481 -299 513 -279 q 444 -274 461 -290 q 531 -153 457 -239 q 476 -150 492 -153 q 471 -94 471 -132 q 472 -40 471 -56 q 527 -35 503 -35 q 582 -37 551 -35 m 533 861 q 415 875 489 875 l 300 875 l 296 525 l 401 526 q 565 568 504 528 q 626 722 626 608 q 533 861 626 835 m 294 436 l 290 93 l 406 83 q 382 0 406 44 l 63 0 l 58 49 q 178 81 117 69 q 164 886 169 608 q 42 919 125 892 q 49 972 42 938 l 361 972 q 692 910 615 972 q 767 722 767 850 q 531 443 767 507 l 768 92 l 883 82 q 860 0 883 44 l 689 0 l 397 436 l 294 436 z "},"ŗ":{"ha":624,"x_min":39,"x_max":611,"o":"m 289 -37 q 296 -114 296 -62 q 258 -222 296 -165 q 188 -299 219 -279 q 151 -274 168 -290 q 238 -153 164 -239 q 183 -150 199 -153 q 178 -94 178 -132 q 179 -40 178 -56 q 234 -35 210 -35 q 289 -37 258 -35 m 476 606 q 446 613 469 613 q 376 596 422 613 q 292 557 329 579 q 281 94 283 249 l 397 83 q 374 0 397 44 l 54 0 l 50 49 q 175 82 114 71 q 161 604 167 435 q 39 621 85 608 l 44 693 q 263 714 118 714 q 290 625 285 679 q 481 722 450 722 q 551 710 511 722 q 611 685 592 699 q 585 458 611 546 q 540 453 565 453 q 504 454 514 453 l 476 606 z "},"Ř":{"ha":911,"x_min":42,"x_max":883,"o":"m 533 861 q 415 875 489 875 l 300 875 l 296 525 l 401 526 q 565 568 504 528 q 626 722 626 608 q 533 861 626 835 m 294 436 l 290 93 l 406 83 q 382 0 406 44 l 63 0 l 58 49 q 178 81 117 69 q 164 886 169 608 q 42 919 125 892 q 49 972 42 938 l 361 972 q 692 910 615 972 q 767 722 767 850 q 531 443 767 507 l 768 92 l 883 82 q 860 0 883 44 l 689 0 l 397 436 l 294 436 m 589 1239 l 393 1081 l 197 1239 q 243 1289 211 1258 q 265 1278 244 1288 q 303 1260 285 1269 q 393 1197 357 1231 q 522 1278 442 1243 q 543 1289 542 1288 q 589 1239 576 1258 z "},"ř":{"ha":624,"x_min":39,"x_max":611,"o":"m 476 606 q 446 613 469 613 q 376 596 422 613 q 292 557 329 579 q 281 94 283 249 l 397 83 q 374 0 397 44 l 54 0 l 50 49 q 175 82 114 71 q 161 604 167 435 q 39 621 85 608 l 44 693 q 263 714 118 714 q 290 625 285 679 q 481 722 450 722 q 551 710 511 722 q 611 685 592 699 q 585 458 611 546 q 540 453 565 453 q 504 454 514 453 l 476 606 m 508 972 l 313 814 l 117 972 q 163 1022 125 985 q 184 1012 164 1021 q 222 993 204 1003 q 313 931 276 964 q 442 1011 361 976 q 463 1022 461 1021 q 508 972 496 992 z "},"Š":{"ha":797,"x_min":49,"x_max":719,"o":"m 606 1239 l 410 1081 l 214 1239 q 260 1289 228 1258 q 281 1278 261 1288 q 319 1260 301 1269 q 410 1197 374 1231 q 539 1278 458 1243 q 560 1289 558 1288 q 606 1239 593 1258 m 383 93 q 590 261 590 93 q 489 400 590 343 q 388 450 443 426 q 278 501 333 474 q 177 561 222 529 q 103 642 132 593 q 75 751 75 690 q 156 922 75 851 q 379 992 238 992 q 678 906 521 992 q 658 707 678 826 q 578 703 628 703 l 536 864 q 470 881 519 872 q 383 889 421 889 q 258 855 303 889 q 214 760 214 821 q 266 652 214 700 q 392 570 318 604 q 541 500 467 536 q 667 406 615 464 q 719 272 719 349 q 626 58 719 133 q 383 -18 533 -18 q 206 8 301 -18 q 49 74 111 33 q 69 289 51 167 q 150 293 100 293 l 179 126 q 272 103 210 114 q 383 93 333 93 z "},"š":{"ha":628,"x_min":46,"x_max":560,"o":"m 511 972 l 315 814 l 119 972 q 165 1022 133 992 q 187 1012 167 1021 q 225 993 207 1003 q 315 931 279 964 q 444 1011 364 976 q 465 1022 464 1021 q 511 972 499 992 m 165 89 q 284 68 214 68 q 394 94 354 68 q 435 167 435 121 q 397 243 435 213 q 306 297 360 274 q 197 347 251 321 q 106 417 143 374 q 68 517 68 460 q 132 667 68 613 q 309 722 196 722 q 522 671 422 722 q 524 597 524 657 q 511 493 524 536 q 432 482 478 482 l 386 624 q 303 639 356 639 q 221 612 251 639 q 190 544 190 585 q 228 472 190 503 q 321 417 267 442 q 429 366 375 393 q 522 295 483 339 q 560 194 560 251 q 483 38 560 94 q 293 -18 406 -18 q 163 2 232 -18 q 46 54 93 22 q 63 219 46 147 q 149 225 94 225 l 165 89 z "},"Ū":{"ha":1047,"x_min":33,"x_max":1014,"o":"m 1014 890 q 901 889 926 890 q 895 574 899 778 q 890 307 892 371 q 793 66 886 149 q 539 -17 700 -17 q 401 -4 460 -17 q 289 42 343 8 q 174 306 176 108 q 158 890 169 506 q 33 924 97 901 l 38 972 l 386 972 q 410 889 410 928 q 294 883 410 889 q 292 400 292 722 q 356 158 292 226 q 540 90 421 90 q 630 101 592 90 q 706 144 668 113 q 781 403 781 208 q 768 883 781 404 q 643 924 660 915 l 647 972 l 992 972 q 1014 890 1014 915 m 689 1239 q 692 1203 692 1217 l 689 1154 q 553 1147 617 1147 l 385 1154 q 382 1190 382 1174 l 385 1239 q 521 1246 457 1246 l 689 1239 z "},"ū":{"ha":826,"x_min":14,"x_max":804,"o":"m 408 92 q 499 109 449 92 q 581 151 549 126 q 571 600 575 447 q 443 617 485 600 l 449 689 q 634 710 567 710 q 719 707 701 710 q 712 640 719 682 q 701 594 704 599 l 685 99 q 804 82 758 94 l 801 11 q 683 -8 740 -8 q 614 -7 626 -8 q 583 90 588 46 q 458 11 515 39 q 382 -17 400 -17 q 205 49 260 -17 q 150 243 150 115 q 163 599 150 244 q 14 617 82 599 l 19 689 q 203 710 138 710 q 286 707 268 710 q 278 633 286 674 q 268 594 269 593 l 269 294 q 296 140 269 189 q 408 92 322 92 m 551 972 q 554 936 554 950 l 551 888 q 415 881 479 881 l 247 888 q 244 924 244 907 l 247 972 q 383 979 319 979 l 551 972 z "},"Ŭ":{"ha":1047,"x_min":33,"x_max":1014,"o":"m 1014 890 q 901 889 926 890 q 895 574 899 778 q 890 307 892 371 q 793 66 886 149 q 539 -17 700 -17 q 401 -4 460 -17 q 289 42 343 8 q 174 306 176 108 q 158 890 169 506 q 33 924 97 901 l 38 972 l 386 972 q 410 889 410 928 q 294 883 410 889 q 292 400 292 722 q 356 158 292 226 q 540 90 421 90 q 630 101 592 90 q 706 144 668 113 q 781 403 781 208 q 768 883 781 404 q 643 924 660 915 l 647 972 l 992 972 q 1014 890 1014 915 m 724 1290 q 672 1153 724 1213 q 534 1093 621 1093 q 398 1153 447 1093 q 349 1290 349 1213 l 421 1293 q 449 1215 421 1249 q 535 1181 476 1181 q 636 1290 636 1181 l 724 1290 z "},"ŭ":{"ha":826,"x_min":14,"x_max":804,"o":"m 586 1024 q 535 886 586 946 q 397 826 483 826 q 260 886 310 826 q 211 1024 211 946 l 283 1026 q 311 948 283 982 q 397 914 339 914 q 499 1024 499 914 l 586 1024 m 408 92 q 499 109 449 92 q 581 151 549 126 q 571 600 575 447 q 443 617 485 600 l 449 689 q 634 710 567 710 q 719 707 701 710 q 712 640 719 682 q 701 594 704 599 l 685 99 q 804 82 758 94 l 801 11 q 683 -8 740 -8 q 614 -7 626 -8 q 583 90 588 46 q 458 11 515 39 q 382 -17 400 -17 q 205 49 260 -17 q 150 243 150 115 q 163 599 150 244 q 14 617 82 599 l 19 689 q 203 710 138 710 q 286 707 268 710 q 278 633 286 674 q 268 594 269 593 l 269 294 q 296 140 269 189 q 408 92 322 92 z "},"Ů":{"ha":1047,"x_min":33,"x_max":1014,"o":"m 1014 890 q 901 889 926 890 q 895 574 899 778 q 890 307 892 371 q 793 66 886 149 q 539 -17 700 -17 q 401 -4 460 -17 q 289 42 343 8 q 174 306 176 108 q 158 890 169 506 q 33 924 97 901 l 38 972 l 386 972 q 410 889 410 928 q 294 883 410 889 q 292 400 292 722 q 356 158 292 226 q 540 90 421 90 q 630 101 592 90 q 706 144 668 113 q 781 403 781 208 q 768 883 781 404 q 643 924 660 915 l 647 972 l 992 972 q 1014 890 1014 915 m 483 1318 q 464 1318 483 1318 q 422 1291 444 1318 q 399 1219 399 1264 q 422 1147 399 1174 q 483 1121 444 1121 q 544 1147 521 1121 q 567 1219 567 1174 q 544 1291 567 1264 q 483 1318 521 1318 m 483 1382 q 517 1382 483 1382 q 601 1338 551 1382 q 650 1217 650 1293 q 601 1101 650 1142 q 483 1060 553 1060 q 364 1101 414 1060 q 314 1218 314 1143 q 365 1338 314 1293 q 483 1382 415 1382 z "},"ů":{"ha":826,"x_min":14,"x_max":804,"o":"m 358 1051 q 339 1051 358 1051 q 297 1024 319 1051 q 274 952 274 997 q 297 881 274 907 q 358 854 319 854 q 419 881 396 854 q 442 952 442 907 q 419 1024 442 997 q 358 1051 396 1051 m 358 1115 q 392 1115 358 1115 q 476 1071 426 1115 q 525 951 525 1026 q 476 834 525 875 q 358 793 428 793 q 239 835 289 793 q 189 951 189 876 q 240 1071 189 1026 q 358 1115 290 1115 m 408 92 q 499 109 449 92 q 581 151 549 126 q 571 600 575 447 q 443 617 485 600 l 449 689 q 634 710 567 710 q 719 707 701 710 q 712 640 719 682 q 701 594 704 599 l 685 99 q 804 82 758 94 l 801 11 q 683 -8 740 -8 q 614 -7 626 -8 q 583 90 588 46 q 458 11 515 39 q 382 -17 400 -17 q 205 49 260 -17 q 150 243 150 115 q 163 599 150 244 q 14 617 82 599 l 19 689 q 203 710 138 710 q 286 707 268 710 q 278 633 286 674 q 268 594 269 593 l 269 294 q 296 140 269 189 q 408 92 322 92 z "},"Ÿ":{"ha":940,"x_min":7,"x_max":933,"o":"m 533 94 q 650 83 596 92 q 628 0 650 42 l 307 0 l 303 49 q 431 82 392 79 q 424 347 429 168 l 132 890 q 7 924 71 901 l 11 972 l 372 972 q 396 889 396 928 l 271 881 l 478 460 l 493 460 l 700 890 q 569 924 639 900 l 574 972 l 910 972 q 933 889 933 928 l 815 881 l 539 347 l 533 94 m 418 1108 q 359 1103 390 1103 q 308 1106 328 1103 q 301 1156 301 1131 q 304 1215 301 1182 q 361 1219 325 1219 q 414 1218 397 1219 q 419 1155 419 1188 q 418 1108 419 1122 m 647 1108 q 588 1103 619 1103 q 538 1106 557 1103 q 531 1156 531 1131 q 533 1215 531 1182 q 590 1219 554 1219 q 643 1218 626 1219 q 649 1155 649 1188 q 647 1108 649 1122 z "},"Ž":{"ha":828,"x_min":63,"x_max":772,"o":"m 106 922 q 108 972 106 939 l 740 972 q 772 888 765 940 l 231 93 l 636 93 l 669 251 q 742 243 714 251 q 764 81 764 144 q 761 0 764 17 l 94 0 q 63 85 69 32 l 603 878 l 238 878 l 201 718 q 129 728 153 718 q 106 922 106 829 m 651 1239 l 456 1081 l 260 1239 q 306 1289 274 1258 q 327 1278 307 1288 q 365 1260 347 1269 q 456 1197 419 1231 q 585 1278 504 1243 q 606 1289 604 1288 q 651 1239 639 1258 z "},"ž":{"ha":674,"x_min":61,"x_max":608,"o":"m 589 222 q 608 80 608 142 q 606 0 608 18 l 81 0 q 61 75 64 25 l 460 628 l 222 628 l 189 483 q 164 482 168 482 l 108 486 q 89 627 89 567 q 92 706 89 688 l 585 706 q 593 628 593 685 l 213 83 l 475 83 l 508 229 l 589 222 m 560 972 l 364 814 l 168 972 q 214 1022 182 992 q 235 1012 215 1021 q 274 993 256 1003 q 364 931 328 964 q 492 1011 413 976 q 514 1022 513 1021 q 560 972 547 992 z "},"ƒ":{"ha":753,"x_min":-83,"x_max":725,"o":"m 421 588 q 556 578 507 588 q 532 494 556 539 l 385 494 l 361 -24 q 119 -318 349 -318 q -83 -251 -1 -318 q -46 -86 -75 -164 q 11 -82 -25 -82 l 35 -82 l 54 -219 q 83 -230 56 -225 q 134 -235 111 -235 q 175 -222 157 -235 q 203 -190 193 -208 q 219 -136 213 -171 q 231 1 228 -82 l 253 494 l 117 494 l 113 543 q 256 581 194 572 l 264 746 q 319 939 269 854 q 398 1013 346 985 q 521 1040 450 1040 q 725 975 642 1040 q 686 810 714 882 q 629 806 665 806 l 606 806 l 588 943 q 557 953 585 949 q 508 958 529 958 q 426 913 444 958 q 396 721 408 868 l 389 588 l 421 588 z "},"ˆ":{"ha":636,"x_min":133,"x_max":525,"o":"m 329 1022 l 525 864 q 479 814 511 844 q 458 824 478 815 q 419 843 438 833 q 329 906 365 872 q 200 825 281 860 q 179 814 181 815 q 133 864 146 844 l 329 1022 z "},"ˇ":{"ha":576,"x_min":133,"x_max":525,"o":"m 525 972 l 329 814 l 133 972 q 179 1022 147 992 q 201 1012 181 1021 q 239 993 221 1003 q 329 931 293 964 q 458 1011 378 976 q 479 1022 478 1021 q 525 972 513 992 z "},"˘":{"ha":550,"x_min":90,"x_max":465,"o":"m 465 1024 q 414 886 465 946 q 276 826 363 826 q 140 886 189 826 q 90 1024 90 946 l 163 1026 q 190 948 163 982 q 276 914 218 914 q 378 1024 378 914 l 465 1024 z "},"˙":{"ha":214,"x_min":39,"x_max":188,"o":"m 185 879 q 115 871 149 871 q 47 875 81 871 q 39 953 39 914 q 42 1013 39 993 q 106 1019 72 1019 q 179 1017 140 1019 q 188 939 188 981 q 185 879 188 897 z "},"˚":{"ha":656,"x_min":154,"x_max":490,"o":"m 323 1051 q 304 1051 323 1051 q 262 1024 285 1051 q 239 952 239 997 q 262 881 239 907 q 323 854 285 854 q 384 881 361 854 q 407 952 407 907 q 384 1024 407 997 q 323 1051 361 1051 m 324 1115 q 358 1115 324 1115 q 441 1071 392 1115 q 490 951 490 1026 q 442 834 490 875 q 324 793 393 793 q 204 835 254 793 q 154 951 154 876 q 205 1071 154 1026 q 324 1115 256 1115 z "},"˛":{"ha":419,"x_min":142,"x_max":372,"o":"m 372 -264 q 342 -310 360 -289 q 265 -302 308 -310 q 206 -286 222 -294 q 175 -267 190 -278 q 142 -192 142 -242 q 167 -77 142 -143 q 206 0 192 -11 q 229 4 214 4 q 254 0 244 4 q 242 -39 254 -3 q 208 -162 208 -140 q 372 -264 208 -169 z "},"˜":{"ha":888,"x_min":182,"x_max":667,"o":"m 322 883 q 206 832 282 857 l 182 872 q 273 956 219 924 q 336 988 326 988 q 437 956 363 988 q 526 919 511 924 q 643 975 606 963 l 667 935 q 560 842 629 883 q 544 831 554 839 q 513 815 522 815 q 442 843 485 825 q 322 883 346 883 z "},"˝":{"ha":661,"x_min":79,"x_max":579,"o":"m 79 864 l 274 1022 q 332 938 328 981 q 249 873 299 906 q 135 807 200 840 q 79 864 110 825 m 326 864 l 521 1022 q 579 938 575 981 q 497 873 546 906 q 382 807 447 840 q 326 864 357 825 z "},"Δ":{"ha":908,"x_min":40,"x_max":867,"o":"m 401 978 q 453 981 418 981 q 504 976 488 981 q 848 123 829 172 q 867 49 867 74 q 863 0 867 25 l 44 0 q 40 56 40 42 q 54 111 40 71 l 401 978 m 456 829 l 440 829 l 142 85 l 751 85 l 456 829 z "},"Ω":{"ha":1031,"x_min":90,"x_max":933,"o":"m 610 99 q 756 237 711 151 q 800 499 800 322 q 731 778 800 675 q 510 881 661 881 q 405 871 457 881 q 301 842 353 861 q 281 802 293 828 q 248 690 268 776 q 228 508 228 603 q 262 256 228 340 q 401 99 296 171 q 378 0 401 44 l 124 0 l 119 51 q 271 97 208 86 q 137 279 183 165 q 90 504 90 393 q 192 860 90 731 q 516 989 293 989 q 836 872 739 989 q 933 518 933 754 q 878 285 933 406 q 735 97 822 165 q 903 51 806 83 l 899 0 l 633 0 q 610 99 610 44 z "},"π":{"ha":786,"x_min":7,"x_max":751,"o":"m 188 722 l 583 689 q 728 739 613 703 l 751 699 q 694 647 739 681 q 611 596 649 613 q 601 96 606 263 q 721 76 661 92 l 718 28 q 638 3 696 17 q 525 -10 581 -10 q 496 86 499 43 l 474 593 l 293 608 q 285 192 288 301 q 265 -1 282 82 q 186 -11 249 -11 q 156 608 171 58 q 31 568 110 589 l 7 608 q 90 678 24 633 q 188 722 156 722 z "},"–":{"ha":694,"x_min":1,"x_max":694,"o":"m 690 453 q 694 404 694 428 l 690 350 q 486 340 582 340 l 6 350 q 1 397 1 372 l 6 453 q 210 463 114 463 l 690 453 z "},"—":{"ha":1389,"x_min":1,"x_max":1389,"o":"m 1385 453 q 1389 404 1389 428 l 1385 350 q 1181 340 1276 340 l 6 350 q 1 397 1 372 l 6 453 q 210 463 114 463 l 1385 453 z "},"‘":{"ha":313,"x_min":69,"x_max":250,"o":"m 78 696 q 69 796 69 735 q 117 928 69 857 q 206 1024 165 999 q 250 992 229 1014 q 164 864 235 946 q 143 840 146 843 q 210 838 192 840 q 218 765 218 811 q 215 700 218 719 q 151 693 185 693 q 78 696 117 693 z "},"’":{"ha":313,"x_min":56,"x_max":236,"o":"m 228 1021 q 236 921 236 982 q 188 789 236 860 q 100 693 140 718 q 56 725 76 703 q 142 853 71 771 q 163 876 160 874 q 96 879 114 876 q 88 951 88 906 q 90 1017 88 997 q 155 1024 121 1024 q 228 1021 189 1024 z "},"‚":{"ha":292,"x_min":35,"x_max":215,"o":"m 207 140 q 215 40 215 101 q 167 -92 215 -21 q 79 -187 119 -162 q 35 -156 56 -178 q 122 -28 50 -110 q 142 -4 139 -7 q 75 -1 93 -4 q 67 72 67 26 q 69 136 67 117 q 134 143 100 143 q 207 140 168 143 z "},"“":{"ha":547,"x_min":56,"x_max":471,"o":"m 64 696 q 56 796 56 735 q 103 928 56 857 q 192 1024 151 999 q 236 992 215 1014 q 150 864 221 946 q 129 840 132 843 q 196 838 178 840 q 204 765 204 811 q 201 700 204 719 q 137 693 171 693 q 64 696 103 693 m 299 696 q 290 796 290 735 q 338 928 290 857 q 426 1024 386 999 q 471 992 450 1014 q 383 864 456 946 q 364 840 367 843 q 431 838 413 840 q 439 765 439 811 q 436 700 439 719 q 372 693 406 693 q 299 696 338 693 z "},"”":{"ha":547,"x_min":56,"x_max":471,"o":"m 463 1021 q 471 921 471 982 q 423 789 471 860 q 335 693 375 718 q 290 725 311 703 q 378 853 306 771 q 397 876 394 874 q 331 879 349 876 q 322 951 322 906 q 325 1017 322 997 q 390 1024 356 1024 q 463 1021 424 1024 m 228 1021 q 236 921 236 982 q 188 789 236 860 q 100 693 140 718 q 56 725 76 703 q 142 853 71 771 q 163 876 160 874 q 96 879 114 876 q 88 951 88 906 q 90 1017 88 997 q 155 1024 121 1024 q 228 1021 189 1024 z "},"„":{"ha":571,"x_min":56,"x_max":494,"o":"m 228 140 q 236 40 236 101 q 188 -92 236 -21 q 100 -187 140 -162 q 56 -156 76 -178 q 142 -28 71 -110 q 163 -4 160 -7 q 96 -1 114 -4 q 88 72 88 26 q 90 136 88 117 q 155 143 121 143 q 228 140 189 143 m 486 140 q 494 40 494 101 q 447 -92 494 -21 q 358 -187 399 -162 q 314 -156 335 -178 q 400 -28 329 -110 q 421 -4 418 -7 q 354 -1 372 -4 q 346 71 346 25 q 349 136 346 117 q 413 143 379 143 q 486 140 447 143 z "},"†":{"ha":713,"x_min":56,"x_max":657,"o":"m 379 644 q 450 444 450 467 l 372 -318 q 338 -312 350 -318 l 265 446 q 326 643 267 492 q 92 604 126 604 q 56 718 56 668 q 90 740 58 729 q 332 700 169 732 q 289 958 289 915 q 403 994 353 994 q 425 960 414 992 q 382 701 417 876 q 622 740 529 729 q 657 718 653 729 q 621 604 657 674 q 379 644 575 604 z "},"‡":{"ha":713,"x_min":56,"x_max":657,"o":"m 403 990 q 425 956 414 988 q 382 697 417 872 q 622 736 529 725 q 657 714 653 725 q 621 600 657 669 q 375 640 586 600 l 418 492 l 382 286 q 622 325 529 314 q 657 303 653 314 q 621 189 657 258 q 383 228 583 189 q 425 -19 425 7 q 311 -56 361 -56 q 289 -21 300 -53 q 329 228 296 51 q 92 189 129 189 q 56 303 56 253 q 90 325 58 314 q 333 285 172 315 l 294 489 l 338 642 q 92 600 135 600 q 56 714 56 664 q 90 736 58 725 q 332 696 169 728 q 289 954 289 911 q 403 990 353 990 z "},"•":{"ha":567,"x_min":126,"x_max":426,"o":"m 421 257 q 290 240 364 240 q 146 249 217 240 q 126 399 126 321 q 133 526 126 478 q 283 539 208 539 q 411 532 357 539 q 426 379 426 453 q 421 257 426 306 z "},"…":{"ha":1032,"x_min":85,"x_max":851,"o":"m 231 3 q 160 -6 194 -6 q 93 -1 126 -6 q 85 77 85 38 q 88 136 85 117 q 152 143 118 143 q 225 140 186 143 q 233 70 233 104 q 231 3 233 36 m 540 3 q 470 -6 504 -6 q 403 -1 436 -6 q 394 77 394 38 q 397 136 394 117 q 462 143 428 143 q 535 140 496 143 q 543 70 543 104 q 540 3 543 36 m 849 3 q 778 -6 813 -6 q 711 -1 744 -6 q 703 77 703 38 q 706 136 703 117 q 770 143 736 143 q 843 140 804 143 q 851 70 851 104 q 849 3 851 36 z "},"‰":{"ha":1717,"x_min":56,"x_max":1640,"o":"m 972 961 l 247 -17 q 194 24 231 -10 l 882 1022 q 972 961 931 1003 m 646 256 q 705 458 646 383 q 881 532 764 532 q 1060 460 999 532 q 1121 263 1121 388 q 1060 60 1121 139 q 882 -18 999 -18 q 646 256 646 -18 m 821 67 q 833 60 821 67 q 882 53 846 53 q 943 67 918 53 q 981 98 968 81 q 1000 147 993 115 q 1007 238 1007 188 q 1006 308 1007 289 q 999 360 1006 326 q 980 412 992 393 q 943 446 968 431 q 882 461 918 461 q 821 449 846 461 q 783 420 796 436 q 764 372 771 404 q 756 281 756 336 q 756 204 756 225 q 764 149 757 183 q 783 98 771 115 q 821 67 796 81 m 1165 256 q 1224 458 1165 383 q 1401 532 1283 532 q 1579 460 1518 532 q 1640 263 1640 388 q 1579 60 1640 139 q 1401 -18 1518 -18 q 1165 256 1165 -18 m 1340 67 q 1353 60 1340 67 q 1401 53 1365 53 q 1463 67 1438 53 q 1500 98 1488 81 q 1519 147 1513 115 q 1526 238 1526 188 q 1526 308 1526 289 q 1518 360 1525 326 q 1499 412 1511 393 q 1463 446 1488 431 q 1401 461 1438 461 q 1340 449 1365 461 q 1303 420 1315 436 q 1283 372 1290 404 q 1275 281 1275 336 q 1276 204 1275 225 q 1283 149 1276 183 q 1303 98 1290 115 q 1340 67 1315 81 m 56 764 q 115 966 56 892 q 291 1040 174 1040 q 469 968 408 1040 q 531 772 531 896 q 469 569 531 647 q 292 490 408 490 q 56 764 56 490 m 231 575 q 243 568 231 575 q 292 561 256 561 q 353 575 328 561 q 390 606 378 589 q 408 656 403 624 q 417 747 417 696 q 416 816 417 797 q 408 868 415 835 q 390 920 401 901 q 353 954 378 939 q 292 969 328 969 q 231 957 256 969 q 193 928 206 944 q 174 881 181 913 q 165 789 165 844 q 166 713 165 733 q 174 658 167 692 q 193 606 181 624 q 231 575 206 589 z "},"‹":{"ha":408,"x_min":69,"x_max":311,"o":"m 72 342 q 69 359 69 346 q 71 376 69 372 q 183 526 157 496 q 244 592 210 556 q 311 544 264 586 q 179 358 201 383 q 217 311 194 340 l 311 172 q 244 125 272 128 q 135 251 179 189 l 72 342 z "},"›":{"ha":408,"x_min":97,"x_max":339,"o":"m 336 375 q 339 358 339 371 q 338 340 339 344 q 225 190 251 221 q 164 125 199 160 q 97 172 144 131 q 229 358 207 333 q 192 406 214 375 l 97 544 q 164 592 136 589 q 274 465 229 528 l 336 375 z "},"⁄":{"ha":664,"x_min":-17,"x_max":761,"o":"m 761 961 l 36 -17 q -17 24 19 -10 l 671 1022 q 761 961 719 1003 z "},"€":{"ha":881,"x_min":21,"x_max":776,"o":"m 553 339 q 398 322 464 322 q 290 324 332 322 q 356 146 308 207 q 503 85 403 85 q 646 107 604 85 l 675 274 l 756 269 q 776 38 776 126 q 674 -1 750 17 q 497 -18 599 -18 q 264 64 350 -18 q 154 328 178 146 l 25 332 q 21 369 21 350 l 25 414 q 146 429 82 425 q 144 494 144 450 l 144 522 l 25 526 q 21 564 21 544 l 25 608 q 151 624 86 619 q 506 990 193 990 q 634 975 592 990 q 697 947 676 960 q 761 897 724 932 q 742 700 761 819 q 661 696 711 696 l 619 881 q 506 894 558 894 q 413 885 454 894 q 356 864 371 875 l 339 854 q 285 624 300 763 l 553 615 q 556 575 556 601 l 553 533 q 394 517 464 517 q 279 518 325 517 l 279 511 q 281 429 279 456 l 553 421 q 556 381 556 407 l 553 339 z "},"™":{"ha":1122,"x_min":56,"x_max":1101,"o":"m 79 776 q 56 897 56 864 q 57 936 56 931 l 438 936 q 439 907 439 928 l 429 776 q 381 775 415 775 l 363 865 l 294 865 q 289 608 292 696 l 382 596 q 369 532 382 557 l 125 532 l 122 579 q 221 601 196 599 l 203 865 l 136 865 l 119 775 l 79 776 m 544 601 l 589 875 q 533 886 546 883 l 535 938 l 706 938 l 771 690 l 785 690 l 842 938 l 1003 938 q 1011 874 1011 897 q 957 871 975 871 l 1008 608 l 1101 596 q 1089 532 1101 557 l 844 532 l 842 579 q 933 607 908 599 l 882 851 l 810 601 l 751 601 l 661 850 l 625 607 l 706 596 q 693 532 706 557 l 449 532 l 446 579 q 544 601 519 599 z "},"∂":{"ha":908,"x_min":106,"x_max":804,"o":"m 461 536 q 238 343 279 536 q 232 279 232 314 q 281 131 232 189 q 400 72 329 72 q 522 106 471 72 q 601 194 572 139 q 669 436 656 299 q 563 515 611 494 q 461 536 514 536 m 675 515 l 676 560 q 603 843 676 735 q 364 997 529 951 q 382 1056 364 1036 q 678 888 553 1025 q 804 535 804 751 q 789 385 804 472 q 735 219 774 299 q 654 94 697 139 q 558 22 611 50 q 390 -21 475 -21 q 185 69 264 -21 q 106 297 106 158 q 196 528 106 436 q 449 619 286 619 q 575 586 511 619 q 675 515 639 553 z "},"∏":{"ha":1047,"x_min":63,"x_max":985,"o":"m 325 883 l 311 94 l 428 83 q 404 0 428 44 l 85 0 l 81 49 q 207 82 144 71 q 188 890 201 351 q 63 924 132 901 l 67 972 l 961 972 q 985 889 985 928 q 872 883 914 883 l 858 94 l 975 83 q 951 0 975 44 l 632 0 l 628 49 q 754 82 692 71 q 735 883 749 356 l 325 883 z "},"∑":{"ha":871,"x_min":56,"x_max":794,"o":"m 790 972 q 758 718 790 851 q 674 711 735 711 l 656 878 l 235 878 l 501 472 q 503 458 503 469 l 501 438 l 254 94 l 660 94 l 678 260 q 763 251 738 260 q 794 0 793 143 l 83 0 l 74 49 l 396 453 l 94 911 l 56 924 l 58 972 l 790 972 z "},"−":{"ha":468,"x_min":35,"x_max":678,"o":"m 678 418 l 678 336 q 511 319 589 319 l 39 329 q 35 367 35 347 l 39 411 q 207 428 128 428 l 678 418 z "},"√":{"ha":847,"x_min":7,"x_max":806,"o":"m 671 1054 q 729 1058 692 1058 q 806 1051 767 1058 l 478 -3 q 432 -7 461 -7 l 333 0 l 129 594 q 7 611 53 599 l 13 683 q 218 704 83 704 q 279 701 261 704 q 271 628 279 668 q 261 589 263 588 q 300 471 281 531 q 337 358 319 411 q 372 251 354 306 q 411 131 390 196 l 671 1054 z "},"∞":{"ha":1326,"x_min":76,"x_max":1250,"o":"m 1003 592 q 1066 592 1003 592 q 1190 528 1129 592 q 1250 363 1250 464 q 1185 193 1250 261 q 1003 125 1121 125 q 843 166 925 125 q 658 283 761 207 q 477 167 560 210 q 313 125 394 125 q 135 190 194 125 q 76 355 76 254 q 142 524 76 456 q 319 592 207 592 q 483 550 400 592 q 668 432 565 508 q 1003 592 878 592 m 1011 239 q 1096 254 1038 239 q 1124 348 1124 282 q 1091 450 1124 414 q 1001 486 1058 486 q 924 465 968 486 q 849 424 879 444 q 758 358 818 403 q 1011 239 896 239 m 484 426 q 470 436 484 426 q 410 464 456 446 q 329 482 365 482 q 232 467 268 482 q 204 356 204 411 q 241 267 204 300 q 319 235 278 235 q 404 256 360 235 q 478 297 449 276 q 569 363 508 317 q 484 426 513 407 z "},"∫":{"ha":625,"x_min":7,"x_max":596,"o":"m 254 6 l 240 751 q 469 1040 240 1040 q 596 986 568 1003 q 581 915 590 947 q 426 946 476 915 q 363 732 363 910 l 363 11 q 133 -325 363 -325 q 7 -271 35 -287 q 32 -200 22 -232 q 186 -233 131 -200 q 236 -151 218 -215 q 254 6 254 -87 z "},"≈":{"ha":826,"x_min":97,"x_max":729,"o":"m 279 572 l 561 503 q 706 553 586 517 l 729 513 q 645 443 713 488 q 549 399 578 399 l 265 468 q 121 418 240 454 l 97 458 q 181 528 114 483 q 279 572 249 572 m 279 329 l 561 260 q 706 310 586 274 l 729 269 q 645 200 713 244 q 549 156 578 156 l 265 225 q 121 175 240 211 l 97 215 q 181 285 114 240 q 279 329 249 329 z "},"≠":{"ha":888,"x_min":104,"x_max":782,"o":"m 276 292 l 371 290 l 425 429 l 108 436 q 104 474 104 456 l 108 518 q 243 535 197 535 q 464 532 289 535 l 535 717 q 625 682 592 704 l 563 529 l 779 525 q 782 485 782 511 l 779 443 q 613 426 690 426 l 521 426 l 464 289 l 779 282 q 782 242 782 268 l 779 200 q 644 183 690 183 q 422 186 597 183 l 342 -11 q 268 19 292 -4 l 332 188 l 108 193 q 104 231 104 211 l 108 275 q 276 292 197 292 z "},"≤":{"ha":735,"x_min":76,"x_max":643,"o":"m 85 382 q 76 420 76 390 q 82 457 76 450 q 163 510 85 458 q 431 683 333 622 q 581 753 489 717 l 622 685 q 260 453 314 485 l 206 425 l 260 397 l 622 165 l 581 97 q 450 156 497 128 q 85 382 399 186 m 640 -10 q 643 -50 643 -24 l 640 -92 q 474 -108 551 -108 l 85 -99 q 81 -61 81 -81 l 85 -17 q 253 0 174 0 l 640 -10 z "},"≥":{"ha":731,"x_min":90,"x_max":653,"o":"m 640 457 q 646 420 646 450 q 640 383 646 390 q 292 167 574 338 q 142 97 233 133 l 100 165 q 463 397 408 365 l 517 425 l 463 453 l 100 685 l 142 753 q 269 696 225 722 q 398 615 314 669 q 560 510 482 561 q 640 457 638 458 m 650 -10 q 653 -50 653 -24 l 650 -92 q 483 -108 561 -108 l 94 -99 q 90 -61 90 -81 l 94 -17 q 263 0 183 0 l 650 -10 z "},"◊":{"ha":853,"x_min":49,"x_max":804,"o":"m 396 978 l 457 978 q 714 630 686 671 q 763 551 742 589 q 804 468 804 476 q 578 122 607 163 q 461 -15 528 49 q 424 -18 444 -18 q 392 -15 403 -18 q 297 89 328 44 q 208 223 267 133 q 99 390 150 313 q 49 469 49 468 q 131 617 86 553 l 396 978 m 428 861 q 385 794 419 850 q 156 474 367 769 q 219 395 192 435 q 422 86 247 356 l 428 86 q 628 388 586 329 q 696 474 650 422 q 465 799 490 761 q 428 861 440 836 z "},"":{"ha":388,"x_min":0,"x_max":0,"o":""},"":{"ha":1319,"x_min":76,"x_max":1069,"o":"m 951 260 q 983 261 964 261 q 1036 254 1022 261 q 1068 0 1067 143 l 82 0 l 76 56 q 235 88 178 81 q 213 890 221 615 q 89 924 174 896 l 93 972 l 440 972 q 464 889 464 929 q 353 883 386 885 q 338 94 346 651 l 933 94 l 951 260 m 953 583 q 983 585 965 585 q 1038 578 1017 585 q 1069 324 1068 467 l 496 324 l 490 379 q 649 411 592 404 l 626 890 q 503 924 588 896 l 507 972 l 854 972 q 878 889 878 929 q 767 883 800 885 l 751 418 l 935 418 l 953 583 z "},"":{"ha":1319,"x_min":76,"x_max":1243,"o":"m 885 418 q 919 418 885 418 q 979 465 953 418 q 1006 611 1006 513 q 986 972 1006 710 l 1219 972 q 1243 897 1243 925 l 1243 889 q 1132 883 1163 885 l 1119 532 q 1048 376 1115 429 q 865 322 981 322 q 722 364 796 322 q 660 429 685 385 q 635 533 635 474 l 636 890 q 503 924 592 896 l 507 972 l 854 972 q 878 889 878 928 q 767 883 815 885 q 761 743 765 846 q 757 581 757 640 q 787 469 757 521 q 885 418 817 418 m 951 260 q 983 261 964 261 q 1036 254 1022 261 q 1068 0 1067 143 l 82 0 l 76 56 q 235 88 178 81 q 213 890 221 615 q 89 924 174 896 l 93 972 l 440 972 q 464 889 464 929 q 353 883 386 885 q 338 94 346 651 l 933 94 l 951 260 z "},"":{"ha":775,"x_min":51,"x_max":719,"o":"m 717 164 q 719 128 719 142 l 717 83 q 581 69 644 69 l 60 83 q 57 118 57 93 l 60 164 q 196 178 132 178 l 717 164 m 373 335 q 431 335 373 335 q 530 408 489 335 q 571 615 571 481 q 476 883 571 829 q 367 906 438 906 q 235 876 297 906 q 179 628 179 769 q 215 419 179 492 q 373 335 257 335 m 51 614 q 132 891 51 792 q 381 990 213 990 q 624 899 549 990 q 699 631 699 808 q 619 351 699 453 q 379 250 540 250 q 51 614 51 250 z "},"":{"ha":799,"x_min":42,"x_max":714,"o":"m 711 83 q 714 46 714 69 l 711 8 q 544 -8 622 -8 l 53 1 q 49 38 49 19 l 53 76 q 221 93 142 93 l 711 83 m 694 379 q 714 238 714 299 q 711 161 714 178 l 64 161 l 60 210 q 178 242 121 232 q 164 886 169 667 q 42 919 133 889 l 49 971 l 690 971 q 693 917 693 953 q 674 750 693 842 q 593 746 658 750 l 560 876 l 303 876 q 296 611 301 790 l 488 611 l 499 711 q 582 688 538 711 l 582 424 l 533 419 q 506 519 513 479 l 296 519 q 290 254 293 429 l 581 254 l 614 383 l 694 379 z "},"":{"ha":951,"x_min":53,"x_max":1407,"o":"m 1239 -392 q 1131 -399 1204 -399 q 936 -365 1057 -399 q 719 -289 815 -331 q 512 -213 622 -247 q 325 -179 401 -179 q 226 -197 299 -179 q 146 -214 153 -214 q 113 -150 115 -189 q 344 -75 264 -75 q 565 -131 426 -75 q 1060 -243 853 -243 q 1263 -194 1178 -243 q 1335 -145 1311 -167 q 1361 -124 1360 -124 q 1406 -168 1406 -140 q 1386 -212 1406 -175 q 1325 -304 1367 -250 q 1239 -392 1283 -358 m 479 90 q 760 485 760 90 q 479 881 760 881 q 264 842 347 881 q 189 499 189 693 q 253 198 189 306 q 479 90 318 90 m 53 481 q 53 603 53 481 q 153 858 53 725 q 481 990 254 990 q 802 869 708 990 q 896 501 896 747 q 795 119 896 256 q 474 -17 694 -17 q 153 110 254 -17 q 53 481 53 236 z "},"":{"ha":799,"x_min":28,"x_max":771,"o":"m 383 622 l 393 624 q 482 670 404 625 q 599 715 560 715 q 658 687 639 715 q 678 622 678 658 q 664 558 678 585 q 621 507 646 519 q 581 548 607 529 q 525 567 554 567 q 431 456 431 567 q 481 369 431 408 q 583 331 531 331 q 630 358 603 331 q 693 385 657 385 q 771 254 771 385 q 735 97 771 168 q 660 -14 699 25 q 639 -19 654 -19 q 632 74 632 -17 q 639 188 632 165 q 631 201 639 194 q 615 208 622 208 q 596 193 608 208 q 565 178 583 178 q 524 206 547 178 q 494 235 500 235 q 460 195 485 235 q 431 140 436 156 q 467 96 432 129 q 504 56 501 63 q 471 15 503 49 q 432 -18 439 -18 q 419 -13 425 -18 q 408 -1 414 -8 q 399 8 401 6 q 371 -18 386 -8 q 328 13 358 -17 q 294 56 297 43 q 331 94 294 60 q 368 139 368 129 q 341 190 368 149 q 306 235 314 232 q 276 206 297 233 q 235 178 254 178 q 203 193 215 178 q 184 208 190 208 q 169 201 178 208 q 160 189 160 194 l 167 86 q 160 -19 167 -17 q 139 -14 144 -19 q 64 97 100 25 q 28 247 28 168 q 49 355 28 325 q 106 385 69 385 q 169 358 142 385 q 215 331 196 331 q 318 369 268 331 q 368 454 368 407 q 294 492 368 492 q 222 518 249 492 q 194 585 194 544 q 214 647 194 625 q 279 678 242 678 q 350 642 325 678 q 383 622 365 622 m 281 621 q 274 621 281 621 q 258 610 267 621 q 249 585 249 599 q 258 562 249 571 q 281 553 267 553 q 306 562 296 553 q 317 585 317 571 q 306 610 317 599 q 281 621 296 621 z "},"":{"ha":1614,"x_min":28,"x_max":1586,"o":"m 147 529 q 191 648 147 593 q 292 703 235 703 q 395 673 350 703 q 440 592 440 643 q 425 510 440 540 q 410 475 410 481 q 521 431 436 431 q 569 444 569 431 q 561 458 569 446 q 539 526 539 496 q 619 677 539 625 q 806 729 700 729 q 1051 673 911 729 q 1192 583 1192 617 q 1174 574 1190 574 q 1031 601 1158 574 q 853 629 903 629 q 769 612 803 629 q 735 556 735 594 q 794 506 735 519 q 889 488 847 493 q 945 481 931 483 q 1014 469 960 479 q 1158 442 1153 442 q 1167 442 1164 442 q 1172 446 1169 443 q 1176 452 1175 449 q 1190 481 1178 456 q 1284 549 1215 526 q 1418 572 1353 572 q 1535 561 1483 572 q 1586 535 1586 550 q 1556 506 1586 515 q 1484 492 1526 497 q 1399 475 1442 486 q 1326 430 1356 464 q 1296 346 1296 396 q 1322 260 1296 296 q 1387 201 1349 224 q 1463 162 1425 179 q 1528 130 1501 144 q 1554 101 1554 115 q 1519 72 1554 72 q 1338 111 1414 72 q 1174 254 1263 150 q 1045 236 1129 254 q 950 217 961 218 q 808 175 826 193 q 803 163 803 169 q 885 96 803 126 q 1015 65 967 65 q 1141 74 1063 65 q 1226 83 1219 83 q 1244 65 1244 83 q 1153 3 1244 26 q 949 -21 1063 -21 q 761 1 835 -21 q 646 55 688 24 q 581 116 604 86 q 558 167 558 146 q 565 219 558 189 q 572 256 572 250 q 550 276 572 269 q 482 287 528 282 q 402 301 436 292 q 315 343 368 310 q 250 376 261 376 q 187 285 218 376 q 156 111 156 194 q 163 53 156 75 q 171 29 171 32 q 140 8 171 8 q 58 63 88 8 q 28 203 28 118 q 47 342 28 288 q 89 422 67 397 q 131 464 111 446 q 150 489 150 482 q 147 529 147 511 m 287 618 q 276 618 287 618 q 251 603 265 618 q 238 567 238 589 q 251 532 238 546 q 287 518 265 518 q 323 532 308 518 q 338 567 338 546 q 323 603 338 589 q 287 618 308 618 z "},"":{"ha":635,"x_min":29,"x_max":606,"o":"m 379 1019 l 381 990 q 363 711 381 869 q 606 722 492 722 l 601 586 q 360 606 519 586 l 382 -42 q 313 -44 346 -44 q 253 -37 281 -44 l 276 607 q 42 586 101 586 l 33 586 q 29 707 29 671 l 29 722 l 47 722 q 271 711 144 722 q 251 886 260 782 q 243 1015 243 990 q 363 1019 325 1019 l 379 1019 z "},"":{"ha":493,"x_min":35,"x_max":458,"o":"m 350 888 q 333 94 350 888 l 458 83 q 435 0 458 44 l 69 0 l 67 47 q 232 82 114 61 q 218 811 224 568 q 61 756 100 757 q 35 842 38 794 l 306 933 q 350 888 347 903 z "},"":{"ha":657,"x_min":36,"x_max":621,"o":"m 621 0 l 51 0 q 36 81 36 25 q 442 593 393 485 q 467 719 467 647 q 422 826 467 792 q 281 861 376 861 q 207 853 232 861 l 174 681 l 93 688 q 69 851 71 746 q 329 944 165 944 q 522 881 458 944 q 585 713 585 817 q 523 515 585 608 q 192 106 461 422 q 185 99 188 101 l 189 82 l 515 83 q 532 214 522 178 l 604 208 q 621 0 621 101 z "},"":{"ha":626,"x_min":35,"x_max":592,"o":"m 426 711 q 257 860 426 860 q 193 850 229 860 l 160 678 l 79 683 q 56 847 56 751 q 152 910 85 881 q 269 940 219 940 q 473 878 393 940 q 553 731 553 817 q 375 504 553 581 q 526 451 460 504 q 592 300 592 399 q 533 127 592 201 q 398 19 475 53 q 228 -15 321 -15 q 35 19 136 -15 q 51 93 38 72 q 222 71 118 71 q 339 92 299 71 q 406 133 379 113 q 464 265 464 178 q 410 394 464 351 q 265 438 357 438 q 183 432 243 438 q 178 465 178 439 q 182 514 178 492 l 243 522 q 372 584 318 532 q 426 711 426 636 z "},"":{"ha":763,"x_min":36,"x_max":728,"o":"m 153 315 q 471 318 351 315 l 457 821 l 153 315 m 575 318 q 726 315 633 315 q 728 284 728 311 q 713 231 728 257 l 574 231 l 564 -1 q 519 -6 539 -6 q 483 0 500 -6 l 472 231 l 51 231 q 36 307 36 263 l 406 931 l 588 931 l 575 318 z "},"":{"ha":821,"x_min":26,"x_max":810,"o":"m 238 1040 q 299 1038 281 1040 q 281 926 299 994 q 272 372 272 560 l 496 611 l 385 622 q 408 706 385 661 l 761 706 l 765 644 q 649 613 733 632 l 458 440 l 693 94 l 810 83 q 786 0 810 44 l 596 0 l 379 369 l 271 271 q 268 94 268 154 l 385 83 q 361 0 385 44 l 42 0 l 38 49 q 163 82 101 71 q 149 931 154 643 q 26 947 72 935 l 32 1019 q 238 1040 103 1040 z "},"ﬁ":{"ha":849,"x_min":28,"x_max":821,"o":"m 153 82 q 144 610 153 251 l 38 610 l 33 658 q 144 689 83 678 l 144 746 q 203 942 144 858 q 446 1040 271 1040 q 581 1022 511 1040 q 685 982 651 1003 q 672 808 685 893 q 622 803 644 803 q 596 803 622 803 q 582 804 590 803 l 540 944 q 449 957 472 957 q 323 899 379 957 q 267 721 267 842 l 267 693 q 693 706 271 693 q 736 679 710 706 q 717 594 728 631 q 713 436 715 539 q 704 94 707 213 l 821 83 q 797 0 821 44 l 478 0 l 474 49 q 599 82 538 71 q 585 600 590 432 l 267 613 q 258 93 258 99 l 375 82 q 351 -1 375 43 l 32 -1 l 28 47 q 153 82 92 69 z "},"ﬂ":{"ha":849,"x_min":28,"x_max":821,"o":"m 717 914 l 704 94 l 821 83 q 797 0 821 44 l 478 0 l 474 49 q 599 82 538 71 q 592 535 597 242 q 585 922 586 828 q 452 958 524 958 q 324 901 381 958 q 267 721 267 843 l 267 704 l 285 706 q 440 692 364 706 q 417 610 439 651 l 267 610 q 258 94 258 260 q 361 89 306 94 q 419 81 417 83 q 396 0 419 44 l 32 0 l 28 49 q 153 82 92 71 q 144 610 144 607 l 38 610 l 33 658 q 144 689 83 678 l 144 746 q 222 949 144 858 q 439 1040 300 1040 q 685 1032 622 1040 q 733 1001 703 1032 q 717 914 721 910 z "}}}
